<?xml version="1.0" encoding="utf-8" standalone="no"?>
<!DOCTYPE svg PUBLIC "-//W3C//DTD SVG 1.1//EN"
  "http://www.w3.org/Graphics/SVG/1.1/DTD/svg11.dtd">
<svg xmlns:xlink="http://www.w3.org/1999/xlink" width="397.083438pt" height="233.932406pt" viewBox="0 0 397.083438 233.932406" xmlns="http://www.w3.org/2000/svg" version="1.1">
 <metadata>
  <rdf:RDF xmlns:dc="http://purl.org/dc/elements/1.1/" xmlns:cc="http://creativecommons.org/ns#" xmlns:rdf="http://www.w3.org/1999/02/22-rdf-syntax-ns#">
   <cc:Work>
    <dc:type rdf:resource="http://purl.org/dc/dcmitype/StillImage"/>
    <dc:date>2026-06-08T02:54:49.765173</dc:date>
    <dc:format>image/svg+xml</dc:format>
    <dc:creator>
     <cc:Agent>
      <dc:title>Matplotlib v3.10.8, https://matplotlib.org/</dc:title>
     </cc:Agent>
    </dc:creator>
   </cc:Work>
  </rdf:RDF>
 </metadata>
 <defs>
  <style type="text/css">*{stroke-linejoin: round; stroke-linecap: butt}</style>
 </defs>
 <g id="figure_1">
  <g id="patch_1">
   <path d="M 0 233.932406 
L 397.083438 233.932406 
L 397.083438 0 
L 0 0 
z
" style="fill: #ffffff"/>
  </g>
  <g id="axes_1">
   <g id="patch_2">
    <path d="M 43.923438 210.054281 
L 389.883438 210.054281 
L 389.883438 21.558281 
L 43.923438 21.558281 
z
" style="fill: #ffffff"/>
   </g>
   <g id="patch_3">
    <path d="M 59.648892 210.054281 
L 89.602139 210.054281 
L 89.602139 87.81336 
L 59.648892 87.81336 
z
" clip-path="url(#pdcf5dbff3d)" style="fill: #009e73; opacity: 0.9"/>
   </g>
   <g id="patch_4">
    <path d="M 171.973567 210.054281 
L 201.926814 210.054281 
L 201.926814 58.985835 
L 171.973567 58.985835 
z
" clip-path="url(#pdcf5dbff3d)" style="fill: #009e73; opacity: 0.9"/>
   </g>
   <g id="patch_5">
    <path d="M 284.298243 210.054281 
L 314.251489 210.054281 
L 314.251489 118.926687 
L 284.298243 118.926687 
z
" clip-path="url(#pdcf5dbff3d)" style="fill: #009e73; opacity: 0.9"/>
   </g>
   <g id="patch_6">
    <path d="M 89.602139 210.054281 
L 119.555386 210.054281 
L 119.555386 83.391683 
L 89.602139 83.391683 
z
" clip-path="url(#pdcf5dbff3d)" style="fill: #56b4e9; opacity: 0.9"/>
   </g>
   <g id="patch_7">
    <path d="M 201.926814 210.054281 
L 231.880061 210.054281 
L 231.880061 56.894371 
L 201.926814 56.894371 
z
" clip-path="url(#pdcf5dbff3d)" style="fill: #56b4e9; opacity: 0.9"/>
   </g>
   <g id="patch_8">
    <path d="M 314.251489 210.054281 
L 344.204736 210.054281 
L 344.204736 101.340322 
L 314.251489 101.340322 
z
" clip-path="url(#pdcf5dbff3d)" style="fill: #56b4e9; opacity: 0.9"/>
   </g>
   <g id="patch_9">
    <path d="M 119.555386 210.054281 
L 149.508632 210.054281 
L 149.508632 97.552588 
L 119.555386 97.552588 
z
" clip-path="url(#pdcf5dbff3d)" style="fill: #7f7f7f; opacity: 0.9"/>
   </g>
   <g id="patch_10">
    <path d="M 231.880061 210.054281 
L 261.833308 210.054281 
L 261.833308 62.380737 
L 231.880061 62.380737 
z
" clip-path="url(#pdcf5dbff3d)" style="fill: #7f7f7f; opacity: 0.9"/>
   </g>
   <g id="patch_11">
    <path d="M 344.204736 210.054281 
L 374.157983 210.054281 
L 374.157983 101.340322 
L 344.204736 101.340322 
z
" clip-path="url(#pdcf5dbff3d)" style="fill: #7f7f7f; opacity: 0.9"/>
   </g>
   <g id="matplotlib.axis_1">
    <g id="xtick_1">
     <g id="line2d_1">
      <path d="M 104.578762 210.054281 
L 104.578762 21.558281 
" clip-path="url(#pdcf5dbff3d)" style="fill: none; stroke: #b0b0b0; stroke-opacity: 0; stroke-width: 0.6; stroke-linecap: square"/>
     </g>
     <g id="line2d_2">
      <defs>
       <path id="md87edb1c89" d="M 0 0 
L 0 3.5 
" style="stroke: #000000; stroke-width: 0.8"/>
      </defs>
      <g>
       <use xlink:href="#md87edb1c89" x="104.578762" y="210.054281" style="stroke: #000000; stroke-width: 0.8"/>
      </g>
     </g>
     <g id="text_1">
      <!-- MU -->
      <g transform="translate(95.245168 224.652719) scale(0.1 -0.1)">
       <defs>
        <path id="DejaVuSerif-4d" d="M 353 0 
L 353 331 
L 947 331 
L 947 4331 
L 319 4331 
L 319 4666 
L 1678 4666 
L 3316 1344 
L 4953 4666 
L 6228 4666 
L 6228 4331 
L 5606 4331 
L 5606 331 
L 6203 331 
L 6203 0 
L 4378 0 
L 4378 331 
L 4972 331 
L 4972 3938 
L 3372 684 
L 2931 684 
L 1331 3938 
L 1331 331 
L 1925 331 
L 1925 0 
L 353 0 
z
" transform="scale(0.015625)"/>
        <path id="DejaVuSerif-55" d="M 897 4331 
L 300 4331 
L 300 4666 
L 2125 4666 
L 2125 4331 
L 1528 4331 
L 1528 1919 
Q 1528 1025 1820 672 
Q 2113 319 2828 319 
Q 3544 319 3836 672 
Q 4128 1025 4128 1919 
L 4128 4331 
L 3531 4331 
L 3531 4666 
L 5106 4666 
L 5106 4331 
L 4513 4331 
L 4513 1856 
Q 4513 791 4103 350 
Q 3694 -91 2713 -91 
Q 1731 -91 1314 353 
Q 897 797 897 1856 
L 897 4331 
z
" transform="scale(0.015625)"/>
       </defs>
       <use xlink:href="#DejaVuSerif-4d"/>
       <use xlink:href="#DejaVuSerif-55" transform="translate(102.392578 0)"/>
      </g>
     </g>
    </g>
    <g id="xtick_2">
     <g id="line2d_3">
      <path d="M 216.903438 210.054281 
L 216.903438 21.558281 
" clip-path="url(#pdcf5dbff3d)" style="fill: none; stroke: #b0b0b0; stroke-opacity: 0; stroke-width: 0.6; stroke-linecap: square"/>
     </g>
     <g id="line2d_4">
      <g>
       <use xlink:href="#md87edb1c89" x="216.903438" y="210.054281" style="stroke: #000000; stroke-width: 0.8"/>
      </g>
     </g>
     <g id="text_2">
      <!-- PU -->
      <g transform="translate(209.412813 224.652719) scale(0.1 -0.1)">
       <defs>
        <path id="DejaVuSerif-50" d="M 1581 2375 
L 2406 2375 
Q 2872 2375 3115 2626 
Q 3359 2878 3359 3353 
Q 3359 3831 3115 4081 
Q 2872 4331 2406 4331 
L 1581 4331 
L 1581 2375 
z
M 353 0 
L 353 331 
L 947 331 
L 947 4331 
L 353 4331 
L 353 4666 
L 2559 4666 
Q 3259 4666 3668 4311 
Q 4078 3956 4078 3353 
Q 4078 2753 3668 2397 
Q 3259 2041 2559 2041 
L 1581 2041 
L 1581 331 
L 2303 331 
L 2303 0 
L 353 0 
z
" transform="scale(0.015625)"/>
       </defs>
       <use xlink:href="#DejaVuSerif-50"/>
       <use xlink:href="#DejaVuSerif-55" transform="translate(65.535156 0)"/>
      </g>
     </g>
    </g>
    <g id="xtick_3">
     <g id="line2d_5">
      <path d="M 329.228113 210.054281 
L 329.228113 21.558281 
" clip-path="url(#pdcf5dbff3d)" style="fill: none; stroke: #b0b0b0; stroke-opacity: 0; stroke-width: 0.6; stroke-linecap: square"/>
     </g>
     <g id="line2d_6">
      <g>
       <use xlink:href="#md87edb1c89" x="329.228113" y="210.054281" style="stroke: #000000; stroke-width: 0.8"/>
      </g>
     </g>
     <g id="text_3">
      <!-- ET -->
      <g transform="translate(322.242957 224.652719) scale(0.1 -0.1)">
       <defs>
        <path id="DejaVuSerif-45" d="M 353 0 
L 353 331 
L 947 331 
L 947 4331 
L 353 4331 
L 353 4666 
L 4109 4666 
L 4109 3628 
L 3725 3628 
L 3725 4281 
L 1581 4281 
L 1581 2719 
L 3109 2719 
L 3109 3303 
L 3494 3303 
L 3494 1753 
L 3109 1753 
L 3109 2338 
L 1581 2338 
L 1581 384 
L 3775 384 
L 3775 1038 
L 4159 1038 
L 4159 0 
L 353 0 
z
" transform="scale(0.015625)"/>
        <path id="DejaVuSerif-54" d="M 1222 0 
L 1222 331 
L 1819 331 
L 1819 4294 
L 447 4294 
L 447 3566 
L 63 3566 
L 63 4666 
L 4206 4666 
L 4206 3566 
L 3822 3566 
L 3822 4294 
L 2450 4294 
L 2450 331 
L 3047 331 
L 3047 0 
L 1222 0 
z
" transform="scale(0.015625)"/>
       </defs>
       <use xlink:href="#DejaVuSerif-45"/>
       <use xlink:href="#DejaVuSerif-54" transform="translate(72.998047 0)"/>
      </g>
     </g>
    </g>
   </g>
   <g id="matplotlib.axis_2">
    <g id="ytick_1">
     <g id="line2d_7">
      <path d="M 43.923438 210.054281 
L 389.883438 210.054281 
" clip-path="url(#pdcf5dbff3d)" style="fill: none; stroke: #b0b0b0; stroke-opacity: 0.25; stroke-width: 0.6; stroke-linecap: square"/>
     </g>
     <g id="line2d_8">
      <defs>
       <path id="m7c2bdf8ac2" d="M 0 0 
L -3.5 0 
" style="stroke: #000000; stroke-width: 0.8"/>
      </defs>
      <g>
       <use xlink:href="#m7c2bdf8ac2" x="43.923438" y="210.054281" style="stroke: #000000; stroke-width: 0.8"/>
      </g>
     </g>
     <g id="text_4">
      <!-- 0.0 -->
      <g transform="translate(21.020313 213.8535) scale(0.1 -0.1)">
       <defs>
        <path id="DejaVuSerif-30" d="M 2034 219 
Q 2513 219 2750 744 
Q 2988 1269 2988 2328 
Q 2988 3391 2750 3916 
Q 2513 4441 2034 4441 
Q 1556 4441 1318 3916 
Q 1081 3391 1081 2328 
Q 1081 1269 1318 744 
Q 1556 219 2034 219 
z
M 2034 -91 
Q 1275 -91 848 546 
Q 422 1184 422 2328 
Q 422 3475 848 4112 
Q 1275 4750 2034 4750 
Q 2797 4750 3222 4112 
Q 3647 3475 3647 2328 
Q 3647 1184 3222 546 
Q 2797 -91 2034 -91 
z
" transform="scale(0.015625)"/>
        <path id="DejaVuSerif-2e" d="M 603 325 
Q 603 500 722 622 
Q 841 744 1019 744 
Q 1191 744 1312 622 
Q 1434 500 1434 325 
Q 1434 153 1312 31 
Q 1191 -91 1019 -91 
Q 841 -91 722 29 
Q 603 150 603 325 
z
" transform="scale(0.015625)"/>
       </defs>
       <use xlink:href="#DejaVuSerif-30"/>
       <use xlink:href="#DejaVuSerif-2e" transform="translate(63.623047 0)"/>
       <use xlink:href="#DejaVuSerif-30" transform="translate(95.410156 0)"/>
      </g>
     </g>
    </g>
    <g id="ytick_2">
     <g id="line2d_9">
      <path d="M 43.923438 172.568607 
L 389.883438 172.568607 
" clip-path="url(#pdcf5dbff3d)" style="fill: none; stroke: #b0b0b0; stroke-opacity: 0.25; stroke-width: 0.6; stroke-linecap: square"/>
     </g>
     <g id="line2d_10">
      <g>
       <use xlink:href="#m7c2bdf8ac2" x="43.923438" y="172.568607" style="stroke: #000000; stroke-width: 0.8"/>
      </g>
     </g>
     <g id="text_5">
      <!-- 0.2 -->
      <g transform="translate(21.020313 176.367826) scale(0.1 -0.1)">
       <defs>
        <path id="DejaVuSerif-32" d="M 819 3553 
L 469 3553 
L 469 4384 
Q 803 4563 1142 4656 
Q 1481 4750 1806 4750 
Q 2534 4750 2956 4397 
Q 3378 4044 3378 3438 
Q 3378 2753 2422 1800 
Q 2347 1728 2309 1691 
L 1131 513 
L 3078 513 
L 3078 1088 
L 3444 1088 
L 3444 0 
L 434 0 
L 434 341 
L 1850 1753 
Q 2319 2222 2519 2614 
Q 2719 3006 2719 3438 
Q 2719 3909 2473 4175 
Q 2228 4441 1797 4441 
Q 1350 4441 1106 4219 
Q 863 3997 819 3553 
z
" transform="scale(0.015625)"/>
       </defs>
       <use xlink:href="#DejaVuSerif-30"/>
       <use xlink:href="#DejaVuSerif-2e" transform="translate(63.623047 0)"/>
       <use xlink:href="#DejaVuSerif-32" transform="translate(95.410156 0)"/>
      </g>
     </g>
    </g>
    <g id="ytick_3">
     <g id="line2d_11">
      <path d="M 43.923438 135.082933 
L 389.883438 135.082933 
" clip-path="url(#pdcf5dbff3d)" style="fill: none; stroke: #b0b0b0; stroke-opacity: 0.25; stroke-width: 0.6; stroke-linecap: square"/>
     </g>
     <g id="line2d_12">
      <g>
       <use xlink:href="#m7c2bdf8ac2" x="43.923438" y="135.082933" style="stroke: #000000; stroke-width: 0.8"/>
      </g>
     </g>
     <g id="text_6">
      <!-- 0.4 -->
      <g transform="translate(21.020313 138.882152) scale(0.1 -0.1)">
       <defs>
        <path id="DejaVuSerif-34" d="M 2234 1581 
L 2234 4063 
L 641 1581 
L 2234 1581 
z
M 3609 0 
L 1484 0 
L 1484 331 
L 2234 331 
L 2234 1247 
L 197 1247 
L 197 1588 
L 2241 4750 
L 2859 4750 
L 2859 1581 
L 3750 1581 
L 3750 1247 
L 2859 1247 
L 2859 331 
L 3609 331 
L 3609 0 
z
" transform="scale(0.015625)"/>
       </defs>
       <use xlink:href="#DejaVuSerif-30"/>
       <use xlink:href="#DejaVuSerif-2e" transform="translate(63.623047 0)"/>
       <use xlink:href="#DejaVuSerif-34" transform="translate(95.410156 0)"/>
      </g>
     </g>
    </g>
    <g id="ytick_4">
     <g id="line2d_13">
      <path d="M 43.923438 97.597259 
L 389.883438 97.597259 
" clip-path="url(#pdcf5dbff3d)" style="fill: none; stroke: #b0b0b0; stroke-opacity: 0.25; stroke-width: 0.6; stroke-linecap: square"/>
     </g>
     <g id="line2d_14">
      <g>
       <use xlink:href="#m7c2bdf8ac2" x="43.923438" y="97.597259" style="stroke: #000000; stroke-width: 0.8"/>
      </g>
     </g>
     <g id="text_7">
      <!-- 0.6 -->
      <g transform="translate(21.020313 101.396478) scale(0.1 -0.1)">
       <defs>
        <path id="DejaVuSerif-36" d="M 2094 219 
Q 2534 219 2771 542 
Q 3009 866 3009 1472 
Q 3009 2078 2771 2401 
Q 2534 2725 2094 2725 
Q 1647 2725 1412 2412 
Q 1178 2100 1178 1509 
Q 1178 888 1415 553 
Q 1653 219 2094 219 
z
M 1075 2569 
Q 1288 2803 1556 2918 
Q 1825 3034 2163 3034 
Q 2859 3034 3264 2615 
Q 3669 2197 3669 1472 
Q 3669 763 3233 336 
Q 2797 -91 2069 -91 
Q 1278 -91 853 498 
Q 428 1088 428 2181 
Q 428 3406 931 4078 
Q 1434 4750 2350 4750 
Q 2597 4750 2869 4703 
Q 3141 4656 3425 4563 
L 3425 3794 
L 3072 3794 
Q 3034 4109 2831 4275 
Q 2628 4441 2284 4441 
Q 1678 4441 1381 3981 
Q 1084 3522 1075 2569 
z
" transform="scale(0.015625)"/>
       </defs>
       <use xlink:href="#DejaVuSerif-30"/>
       <use xlink:href="#DejaVuSerif-2e" transform="translate(63.623047 0)"/>
       <use xlink:href="#DejaVuSerif-36" transform="translate(95.410156 0)"/>
      </g>
     </g>
    </g>
    <g id="ytick_5">
     <g id="line2d_15">
      <path d="M 43.923438 60.111585 
L 389.883438 60.111585 
" clip-path="url(#pdcf5dbff3d)" style="fill: none; stroke: #b0b0b0; stroke-opacity: 0.25; stroke-width: 0.6; stroke-linecap: square"/>
     </g>
     <g id="line2d_16">
      <g>
       <use xlink:href="#m7c2bdf8ac2" x="43.923438" y="60.111585" style="stroke: #000000; stroke-width: 0.8"/>
      </g>
     </g>
     <g id="text_8">
      <!-- 0.8 -->
      <g transform="translate(21.020313 63.910804) scale(0.1 -0.1)">
       <defs>
        <path id="DejaVuSerif-38" d="M 2981 1275 
Q 2981 1775 2732 2051 
Q 2484 2328 2034 2328 
Q 1584 2328 1336 2051 
Q 1088 1775 1088 1275 
Q 1088 772 1336 495 
Q 1584 219 2034 219 
Q 2484 219 2732 495 
Q 2981 772 2981 1275 
z
M 2853 3541 
Q 2853 3966 2637 4203 
Q 2422 4441 2034 4441 
Q 1650 4441 1433 4203 
Q 1216 3966 1216 3541 
Q 1216 3113 1433 2875 
Q 1650 2638 2034 2638 
Q 2422 2638 2637 2875 
Q 2853 3113 2853 3541 
z
M 2516 2484 
Q 3047 2413 3344 2092 
Q 3641 1772 3641 1275 
Q 3641 619 3225 264 
Q 2809 -91 2034 -91 
Q 1263 -91 845 264 
Q 428 619 428 1275 
Q 428 1772 725 2092 
Q 1022 2413 1556 2484 
Q 1084 2569 832 2842 
Q 581 3116 581 3541 
Q 581 4103 968 4426 
Q 1356 4750 2034 4750 
Q 2713 4750 3100 4426 
Q 3488 4103 3488 3541 
Q 3488 3116 3236 2842 
Q 2984 2569 2516 2484 
z
" transform="scale(0.015625)"/>
       </defs>
       <use xlink:href="#DejaVuSerif-30"/>
       <use xlink:href="#DejaVuSerif-2e" transform="translate(63.623047 0)"/>
       <use xlink:href="#DejaVuSerif-38" transform="translate(95.410156 0)"/>
      </g>
     </g>
    </g>
    <g id="ytick_6">
     <g id="line2d_17">
      <path d="M 43.923438 22.625911 
L 389.883438 22.625911 
" clip-path="url(#pdcf5dbff3d)" style="fill: none; stroke: #b0b0b0; stroke-opacity: 0.25; stroke-width: 0.6; stroke-linecap: square"/>
     </g>
     <g id="line2d_18">
      <g>
       <use xlink:href="#m7c2bdf8ac2" x="43.923438" y="22.625911" style="stroke: #000000; stroke-width: 0.8"/>
      </g>
     </g>
     <g id="text_9">
      <!-- 1.0 -->
      <g transform="translate(21.020313 26.42513) scale(0.1 -0.1)">
       <defs>
        <path id="DejaVuSerif-31" d="M 909 0 
L 909 331 
L 1722 331 
L 1722 4213 
L 781 3603 
L 781 4013 
L 1919 4750 
L 2350 4750 
L 2350 331 
L 3163 331 
L 3163 0 
L 909 0 
z
" transform="scale(0.015625)"/>
       </defs>
       <use xlink:href="#DejaVuSerif-31"/>
       <use xlink:href="#DejaVuSerif-2e" transform="translate(63.623047 0)"/>
       <use xlink:href="#DejaVuSerif-30" transform="translate(95.410156 0)"/>
      </g>
     </g>
    </g>
    <g id="text_10">
     <!-- QWK (clinician gold, real-only) -->
     <g transform="translate(14.798438 193.741437) rotate(-90) scale(0.1 -0.1)">
      <defs>
       <path id="DejaVuSerif-51" d="M 2700 -91 
Q 1628 -91 993 567 
Q 359 1225 359 2328 
Q 359 2894 529 3339 
Q 700 3784 1050 4134 
Q 1356 4441 1750 4595 
Q 2144 4750 2625 4750 
Q 3641 4750 4266 4084 
Q 4891 3419 4891 2328 
Q 4891 1403 4422 773 
Q 3953 144 3128 -38 
Q 3297 -247 3539 -347 
Q 3781 -447 4122 -447 
L 4219 -447 
L 4219 -1025 
Q 3691 -1000 3314 -767 
Q 2938 -534 2700 -91 
z
M 2625 244 
Q 3391 244 3781 770 
Q 4172 1297 4172 2328 
Q 4172 3363 3781 3889 
Q 3391 4416 2625 4416 
Q 1856 4416 1465 3889 
Q 1075 3363 1075 2328 
Q 1075 1297 1465 770 
Q 1856 244 2625 244 
z
" transform="scale(0.015625)"/>
       <path id="DejaVuSerif-57" d="M 4878 0 
L 4366 0 
L 3297 3794 
L 2228 0 
L 1716 0 
L 494 4331 
L 31 4331 
L 31 4666 
L 1734 4666 
L 1734 4331 
L 1153 4331 
L 2125 884 
L 3188 4666 
L 3694 4666 
L 4775 844 
L 5753 4331 
L 5216 4331 
L 5216 4666 
L 6559 4666 
L 6559 4331 
L 6100 4331 
L 4878 0 
z
" transform="scale(0.015625)"/>
       <path id="DejaVuSerif-4b" d="M 353 0 
L 353 331 
L 947 331 
L 947 4331 
L 353 4331 
L 353 4666 
L 2175 4666 
L 2175 4331 
L 1581 4331 
L 1581 2566 
L 3591 4331 
L 3084 4331 
L 3084 4666 
L 4634 4666 
L 4634 4331 
L 4109 4331 
L 2106 2572 
L 4347 331 
L 4878 331 
L 4878 0 
L 3794 0 
L 1581 2216 
L 1581 331 
L 2175 331 
L 2175 0 
L 353 0 
z
" transform="scale(0.015625)"/>
       <path id="DejaVuSerif-20" transform="scale(0.015625)"/>
       <path id="DejaVuSerif-28" d="M 2041 -997 
Q 1281 -656 893 83 
Q 506 822 506 1931 
Q 506 3044 893 3783 
Q 1281 4522 2041 4863 
L 2041 4556 
Q 1559 4225 1350 3623 
Q 1141 3022 1141 1931 
Q 1141 844 1350 242 
Q 1559 -359 2041 -691 
L 2041 -997 
z
" transform="scale(0.015625)"/>
       <path id="DejaVuSerif-63" d="M 3291 997 
Q 3169 466 2822 187 
Q 2475 -91 1925 -91 
Q 1200 -91 759 389 
Q 319 869 319 1663 
Q 319 2459 759 2936 
Q 1200 3413 1925 3413 
Q 2241 3413 2553 3339 
Q 2866 3266 3181 3116 
L 3181 2266 
L 2847 2266 
Q 2781 2703 2561 2903 
Q 2341 3103 1931 3103 
Q 1466 3103 1228 2742 
Q 991 2381 991 1663 
Q 991 944 1227 581 
Q 1463 219 1931 219 
Q 2303 219 2525 412 
Q 2747 606 2828 997 
L 3291 997 
z
" transform="scale(0.015625)"/>
       <path id="DejaVuSerif-6c" d="M 1313 331 
L 1856 331 
L 1856 0 
L 184 0 
L 184 331 
L 738 331 
L 738 4531 
L 184 4531 
L 184 4863 
L 1313 4863 
L 1313 331 
z
" transform="scale(0.015625)"/>
       <path id="DejaVuSerif-69" d="M 622 4353 
Q 622 4497 726 4603 
Q 831 4709 978 4709 
Q 1122 4709 1226 4603 
Q 1331 4497 1331 4353 
Q 1331 4206 1228 4103 
Q 1125 4000 978 4000 
Q 831 4000 726 4103 
Q 622 4206 622 4353 
z
M 1356 331 
L 1900 331 
L 1900 0 
L 231 0 
L 231 331 
L 781 331 
L 781 2988 
L 231 2988 
L 231 3322 
L 1356 3322 
L 1356 331 
z
" transform="scale(0.015625)"/>
       <path id="DejaVuSerif-6e" d="M 263 0 
L 263 331 
L 781 331 
L 781 2988 
L 231 2988 
L 231 3322 
L 1356 3322 
L 1356 2731 
Q 1516 3069 1770 3241 
Q 2025 3413 2363 3413 
Q 2913 3413 3172 3097 
Q 3431 2781 3431 2113 
L 3431 331 
L 3944 331 
L 3944 0 
L 2356 0 
L 2356 331 
L 2853 331 
L 2853 1931 
Q 2853 2541 2703 2767 
Q 2553 2994 2175 2994 
Q 1775 2994 1565 2701 
Q 1356 2409 1356 1850 
L 1356 331 
L 1856 331 
L 1856 0 
L 263 0 
z
" transform="scale(0.015625)"/>
       <path id="DejaVuSerif-61" d="M 2547 1044 
L 2547 1747 
L 1806 1747 
Q 1378 1747 1168 1562 
Q 959 1378 959 997 
Q 959 650 1171 447 
Q 1384 244 1747 244 
Q 2106 244 2326 466 
Q 2547 688 2547 1044 
z
M 3122 2075 
L 3122 331 
L 3634 331 
L 3634 0 
L 2547 0 
L 2547 359 
Q 2356 128 2106 18 
Q 1856 -91 1522 -91 
Q 969 -91 644 203 
Q 319 497 319 997 
Q 319 1513 691 1797 
Q 1063 2081 1741 2081 
L 2547 2081 
L 2547 2309 
Q 2547 2688 2317 2895 
Q 2088 3103 1672 3103 
Q 1328 3103 1125 2947 
Q 922 2791 872 2484 
L 575 2484 
L 575 3156 
Q 875 3284 1158 3348 
Q 1441 3413 1709 3413 
Q 2400 3413 2761 3070 
Q 3122 2728 3122 2075 
z
" transform="scale(0.015625)"/>
       <path id="DejaVuSerif-67" d="M 3359 2988 
L 3359 72 
Q 3359 -644 2965 -1033 
Q 2572 -1422 1844 -1422 
Q 1516 -1422 1216 -1362 
Q 916 -1303 641 -1184 
L 641 -488 
L 941 -488 
Q 997 -813 1206 -963 
Q 1416 -1113 1806 -1113 
Q 2313 -1113 2548 -827 
Q 2784 -541 2784 72 
L 2784 519 
Q 2616 206 2355 57 
Q 2094 -91 1709 -91 
Q 1097 -91 708 395 
Q 319 881 319 1663 
Q 319 2444 706 2928 
Q 1094 3413 1709 3413 
Q 2094 3413 2355 3264 
Q 2616 3116 2784 2803 
L 2784 3322 
L 3909 3322 
L 3909 2988 
L 3359 2988 
z
M 2784 1825 
Q 2784 2422 2554 2737 
Q 2325 3053 1888 3053 
Q 1444 3053 1217 2703 
Q 991 2353 991 1663 
Q 991 975 1217 622 
Q 1444 269 1888 269 
Q 2325 269 2554 583 
Q 2784 897 2784 1497 
L 2784 1825 
z
" transform="scale(0.015625)"/>
       <path id="DejaVuSerif-6f" d="M 1925 219 
Q 2388 219 2623 584 
Q 2859 950 2859 1663 
Q 2859 2375 2623 2739 
Q 2388 3103 1925 3103 
Q 1463 3103 1227 2739 
Q 991 2375 991 1663 
Q 991 950 1228 584 
Q 1466 219 1925 219 
z
M 1925 -91 
Q 1200 -91 759 389 
Q 319 869 319 1663 
Q 319 2456 758 2934 
Q 1197 3413 1925 3413 
Q 2653 3413 3092 2934 
Q 3531 2456 3531 1663 
Q 3531 869 3092 389 
Q 2653 -91 1925 -91 
z
" transform="scale(0.015625)"/>
       <path id="DejaVuSerif-64" d="M 3359 331 
L 3909 331 
L 3909 0 
L 2784 0 
L 2784 519 
Q 2616 206 2355 57 
Q 2094 -91 1709 -91 
Q 1097 -91 708 395 
Q 319 881 319 1663 
Q 319 2444 706 2928 
Q 1094 3413 1709 3413 
Q 2094 3413 2355 3264 
Q 2616 3116 2784 2803 
L 2784 4531 
L 2241 4531 
L 2241 4863 
L 3359 4863 
L 3359 331 
z
M 2784 1497 
L 2784 1825 
Q 2784 2422 2554 2737 
Q 2325 3053 1888 3053 
Q 1444 3053 1217 2703 
Q 991 2353 991 1663 
Q 991 975 1217 622 
Q 1444 269 1888 269 
Q 2325 269 2554 583 
Q 2784 897 2784 1497 
z
" transform="scale(0.015625)"/>
       <path id="DejaVuSerif-2c" d="M 231 -622 
Q 525 -406 662 -114 
Q 800 178 800 594 
L 800 709 
L 1416 709 
Q 1391 175 1164 -208 
Q 938 -591 481 -872 
L 231 -622 
z
" transform="scale(0.015625)"/>
       <path id="DejaVuSerif-72" d="M 3059 3328 
L 3059 2497 
L 2728 2497 
Q 2713 2744 2591 2866 
Q 2469 2988 2234 2988 
Q 1809 2988 1582 2694 
Q 1356 2400 1356 1850 
L 1356 331 
L 2022 331 
L 2022 0 
L 263 0 
L 263 331 
L 781 331 
L 781 2994 
L 231 2994 
L 231 3322 
L 1356 3322 
L 1356 2731 
Q 1525 3078 1790 3245 
Q 2056 3413 2438 3413 
Q 2578 3413 2733 3391 
Q 2888 3369 3059 3328 
z
" transform="scale(0.015625)"/>
       <path id="DejaVuSerif-65" d="M 3469 1600 
L 991 1600 
L 991 1575 
Q 991 903 1244 561 
Q 1497 219 1991 219 
Q 2369 219 2611 417 
Q 2853 616 2950 1006 
L 3413 1006 
Q 3275 459 2904 184 
Q 2534 -91 1931 -91 
Q 1203 -91 761 389 
Q 319 869 319 1663 
Q 319 2450 753 2931 
Q 1188 3413 1894 3413 
Q 2647 3413 3050 2948 
Q 3453 2484 3469 1600 
z
M 2791 1931 
Q 2772 2513 2545 2808 
Q 2319 3103 1894 3103 
Q 1497 3103 1269 2806 
Q 1041 2509 991 1931 
L 2791 1931 
z
" transform="scale(0.015625)"/>
       <path id="DejaVuSerif-2d" d="M 281 1959 
L 1881 1959 
L 1881 1472 
L 281 1472 
L 281 1959 
z
" transform="scale(0.015625)"/>
       <path id="DejaVuSerif-79" d="M 1381 -609 
L 1600 -56 
L 359 2988 
L -19 2988 
L -19 3322 
L 1509 3322 
L 1509 2988 
L 978 2988 
L 1913 703 
L 2847 2988 
L 2350 2988 
L 2350 3322 
L 3597 3322 
L 3597 2988 
L 3225 2988 
L 1703 -750 
Q 1547 -1138 1356 -1280 
Q 1166 -1422 819 -1422 
Q 672 -1422 517 -1397 
Q 363 -1372 206 -1325 
L 206 -691 
L 500 -691 
Q 519 -903 608 -995 
Q 697 -1088 884 -1088 
Q 1056 -1088 1161 -992 
Q 1266 -897 1381 -609 
z
" transform="scale(0.015625)"/>
       <path id="DejaVuSerif-29" d="M 453 -997 
L 453 -691 
Q 934 -359 1145 242 
Q 1356 844 1356 1931 
Q 1356 3022 1145 3623 
Q 934 4225 453 4556 
L 453 4863 
Q 1216 4522 1603 3783 
Q 1991 3044 1991 1931 
Q 1991 822 1603 83 
Q 1216 -656 453 -997 
z
" transform="scale(0.015625)"/>
      </defs>
      <use xlink:href="#DejaVuSerif-51"/>
      <use xlink:href="#DejaVuSerif-57" transform="translate(81.982422 0)"/>
      <use xlink:href="#DejaVuSerif-4b" transform="translate(184.765625 0)"/>
      <use xlink:href="#DejaVuSerif-20" transform="translate(259.472656 0)"/>
      <use xlink:href="#DejaVuSerif-28" transform="translate(291.259766 0)"/>
      <use xlink:href="#DejaVuSerif-63" transform="translate(330.273438 0)"/>
      <use xlink:href="#DejaVuSerif-6c" transform="translate(386.279297 0)"/>
      <use xlink:href="#DejaVuSerif-69" transform="translate(418.261719 0)"/>
      <use xlink:href="#DejaVuSerif-6e" transform="translate(450.244141 0)"/>
      <use xlink:href="#DejaVuSerif-69" transform="translate(514.648438 0)"/>
      <use xlink:href="#DejaVuSerif-63" transform="translate(546.630859 0)"/>
      <use xlink:href="#DejaVuSerif-69" transform="translate(602.636719 0)"/>
      <use xlink:href="#DejaVuSerif-61" transform="translate(634.619141 0)"/>
      <use xlink:href="#DejaVuSerif-6e" transform="translate(694.238281 0)"/>
      <use xlink:href="#DejaVuSerif-20" transform="translate(758.642578 0)"/>
      <use xlink:href="#DejaVuSerif-67" transform="translate(790.429688 0)"/>
      <use xlink:href="#DejaVuSerif-6f" transform="translate(854.443359 0)"/>
      <use xlink:href="#DejaVuSerif-6c" transform="translate(914.648438 0)"/>
      <use xlink:href="#DejaVuSerif-64" transform="translate(946.630859 0)"/>
      <use xlink:href="#DejaVuSerif-2c" transform="translate(1010.644531 0)"/>
      <use xlink:href="#DejaVuSerif-20" transform="translate(1042.431641 0)"/>
      <use xlink:href="#DejaVuSerif-72" transform="translate(1074.21875 0)"/>
      <use xlink:href="#DejaVuSerif-65" transform="translate(1122.021484 0)"/>
      <use xlink:href="#DejaVuSerif-61" transform="translate(1181.201172 0)"/>
      <use xlink:href="#DejaVuSerif-6c" transform="translate(1240.820312 0)"/>
      <use xlink:href="#DejaVuSerif-2d" transform="translate(1272.802734 0)"/>
      <use xlink:href="#DejaVuSerif-6f" transform="translate(1306.591797 0)"/>
      <use xlink:href="#DejaVuSerif-6e" transform="translate(1366.796875 0)"/>
      <use xlink:href="#DejaVuSerif-6c" transform="translate(1431.201172 0)"/>
      <use xlink:href="#DejaVuSerif-79" transform="translate(1463.183594 0)"/>
      <use xlink:href="#DejaVuSerif-29" transform="translate(1519.677734 0)"/>
     </g>
    </g>
   </g>
   <g id="patch_12">
    <path d="M 43.923438 210.054281 
L 43.923438 21.558281 
" style="fill: none; stroke: #000000; stroke-width: 0.8; stroke-linejoin: miter; stroke-linecap: square"/>
   </g>
   <g id="patch_13">
    <path d="M 43.923438 210.054281 
L 389.883438 210.054281 
" style="fill: none; stroke: #000000; stroke-width: 0.8; stroke-linejoin: miter; stroke-linecap: square"/>
   </g>
   <g id="text_11">
    <!-- Probe head: does ET need more than one direction? -->
    <g transform="translate(71.775625 15.558281) scale(0.11 -0.11)">
     <defs>
      <path id="DejaVuSerif-62" d="M 738 331 
L 738 4531 
L 184 4531 
L 184 4863 
L 1313 4863 
L 1313 2803 
Q 1481 3116 1742 3264 
Q 2003 3413 2388 3413 
Q 3000 3413 3387 2928 
Q 3775 2444 3775 1663 
Q 3775 881 3387 395 
Q 3000 -91 2388 -91 
Q 2003 -91 1742 57 
Q 1481 206 1313 519 
L 1313 0 
L 184 0 
L 184 331 
L 738 331 
z
M 1313 1497 
Q 1313 897 1542 583 
Q 1772 269 2209 269 
Q 2650 269 2876 622 
Q 3103 975 3103 1663 
Q 3103 2353 2876 2703 
Q 2650 3053 2209 3053 
Q 1772 3053 1542 2737 
Q 1313 2422 1313 1825 
L 1313 1497 
z
" transform="scale(0.015625)"/>
      <path id="DejaVuSerif-68" d="M 263 0 
L 263 331 
L 781 331 
L 781 4531 
L 231 4531 
L 231 4863 
L 1356 4863 
L 1356 2731 
Q 1516 3069 1770 3241 
Q 2025 3413 2363 3413 
Q 2913 3413 3172 3097 
Q 3431 2781 3431 2113 
L 3431 331 
L 3944 331 
L 3944 0 
L 2356 0 
L 2356 331 
L 2853 331 
L 2853 1931 
Q 2853 2541 2704 2764 
Q 2556 2988 2175 2988 
Q 1775 2988 1565 2697 
Q 1356 2406 1356 1850 
L 1356 331 
L 1856 331 
L 1856 0 
L 263 0 
z
" transform="scale(0.015625)"/>
      <path id="DejaVuSerif-3a" d="M 666 325 
Q 666 500 786 622 
Q 906 744 1081 744 
Q 1256 744 1376 622 
Q 1497 500 1497 325 
Q 1497 150 1378 29 
Q 1259 -91 1081 -91 
Q 903 -91 784 29 
Q 666 150 666 325 
z
M 666 2363 
Q 666 2538 786 2658 
Q 906 2778 1081 2778 
Q 1259 2778 1378 2659 
Q 1497 2541 1497 2363 
Q 1497 2184 1378 2065 
Q 1259 1947 1081 1947 
Q 906 1947 786 2067 
Q 666 2188 666 2363 
z
" transform="scale(0.015625)"/>
      <path id="DejaVuSerif-73" d="M 359 184 
L 359 959 
L 691 959 
Q 703 588 923 403 
Q 1144 219 1575 219 
Q 1963 219 2166 364 
Q 2369 509 2369 788 
Q 2369 1006 2220 1140 
Q 2072 1275 1594 1428 
L 1178 1569 
Q 750 1706 558 1912 
Q 366 2119 366 2438 
Q 366 2894 700 3153 
Q 1034 3413 1625 3413 
Q 1888 3413 2178 3344 
Q 2469 3275 2778 3144 
L 2778 2419 
L 2447 2419 
Q 2434 2741 2221 2922 
Q 2009 3103 1644 3103 
Q 1281 3103 1095 2975 
Q 909 2847 909 2591 
Q 909 2381 1050 2254 
Q 1191 2128 1613 1997 
L 2069 1856 
Q 2541 1709 2748 1489 
Q 2956 1269 2956 922 
Q 2956 450 2595 179 
Q 2234 -91 1600 -91 
Q 1278 -91 972 -22 
Q 666 47 359 184 
z
" transform="scale(0.015625)"/>
      <path id="DejaVuSerif-6d" d="M 3316 2675 
Q 3481 3041 3739 3227 
Q 3997 3413 4341 3413 
Q 4863 3413 5119 3089 
Q 5375 2766 5375 2113 
L 5375 331 
L 5894 331 
L 5894 0 
L 4300 0 
L 4300 331 
L 4800 331 
L 4800 2047 
Q 4800 2556 4650 2772 
Q 4500 2988 4153 2988 
Q 3769 2988 3567 2697 
Q 3366 2406 3366 1850 
L 3366 331 
L 3866 331 
L 3866 0 
L 2291 0 
L 2291 331 
L 2791 331 
L 2791 2069 
Q 2791 2566 2641 2777 
Q 2491 2988 2144 2988 
Q 1759 2988 1557 2697 
Q 1356 2406 1356 1850 
L 1356 331 
L 1856 331 
L 1856 0 
L 263 0 
L 263 331 
L 781 331 
L 781 2994 
L 231 2994 
L 231 3322 
L 1356 3322 
L 1356 2731 
Q 1516 3063 1762 3238 
Q 2009 3413 2322 3413 
Q 2709 3413 2968 3220 
Q 3228 3028 3316 2675 
z
" transform="scale(0.015625)"/>
      <path id="DejaVuSerif-74" d="M 691 2988 
L 184 2988 
L 184 3322 
L 691 3322 
L 691 4353 
L 1269 4353 
L 1269 3322 
L 2350 3322 
L 2350 2988 
L 1269 2988 
L 1269 878 
Q 1269 456 1350 337 
Q 1431 219 1650 219 
Q 1875 219 1978 351 
Q 2081 484 2088 781 
L 2522 781 
Q 2497 328 2275 118 
Q 2053 -91 1600 -91 
Q 1103 -91 897 129 
Q 691 350 691 878 
L 691 2988 
z
" transform="scale(0.015625)"/>
      <path id="DejaVuSerif-3f" d="M 1125 325 
Q 1125 500 1245 622 
Q 1366 744 1544 744 
Q 1716 744 1837 622 
Q 1959 500 1959 325 
Q 1959 153 1837 31 
Q 1716 -91 1544 -91 
Q 1366 -91 1245 29 
Q 1125 150 1125 325 
z
M 434 4459 
Q 766 4606 1064 4678 
Q 1363 4750 1625 4750 
Q 2319 4750 2720 4415 
Q 3122 4081 3122 3513 
Q 3122 2931 2776 2562 
Q 2431 2194 1734 2034 
L 1734 1241 
L 1350 1241 
L 1350 2266 
Q 1903 2400 2183 2715 
Q 2463 3031 2463 3519 
Q 2463 3947 2234 4194 
Q 2006 4441 1613 4441 
Q 1256 4441 1029 4236 
Q 803 4031 738 3647 
L 434 3647 
L 434 4459 
z
" transform="scale(0.015625)"/>
     </defs>
     <use xlink:href="#DejaVuSerif-50"/>
     <use xlink:href="#DejaVuSerif-72" transform="translate(67.285156 0)"/>
     <use xlink:href="#DejaVuSerif-6f" transform="translate(115.087891 0)"/>
     <use xlink:href="#DejaVuSerif-62" transform="translate(175.292969 0)"/>
     <use xlink:href="#DejaVuSerif-65" transform="translate(239.306641 0)"/>
     <use xlink:href="#DejaVuSerif-20" transform="translate(298.486328 0)"/>
     <use xlink:href="#DejaVuSerif-68" transform="translate(330.273438 0)"/>
     <use xlink:href="#DejaVuSerif-65" transform="translate(394.677734 0)"/>
     <use xlink:href="#DejaVuSerif-61" transform="translate(453.857422 0)"/>
     <use xlink:href="#DejaVuSerif-64" transform="translate(513.476562 0)"/>
     <use xlink:href="#DejaVuSerif-3a" transform="translate(577.490234 0)"/>
     <use xlink:href="#DejaVuSerif-20" transform="translate(611.181641 0)"/>
     <use xlink:href="#DejaVuSerif-64" transform="translate(642.96875 0)"/>
     <use xlink:href="#DejaVuSerif-6f" transform="translate(706.982422 0)"/>
     <use xlink:href="#DejaVuSerif-65" transform="translate(767.1875 0)"/>
     <use xlink:href="#DejaVuSerif-73" transform="translate(826.367188 0)"/>
     <use xlink:href="#DejaVuSerif-20" transform="translate(877.685547 0)"/>
     <use xlink:href="#DejaVuSerif-45" transform="translate(909.472656 0)"/>
     <use xlink:href="#DejaVuSerif-54" transform="translate(982.470703 0)"/>
     <use xlink:href="#DejaVuSerif-20" transform="translate(1049.169922 0)"/>
     <use xlink:href="#DejaVuSerif-6e" transform="translate(1080.957031 0)"/>
     <use xlink:href="#DejaVuSerif-65" transform="translate(1145.361328 0)"/>
     <use xlink:href="#DejaVuSerif-65" transform="translate(1204.541016 0)"/>
     <use xlink:href="#DejaVuSerif-64" transform="translate(1263.720703 0)"/>
     <use xlink:href="#DejaVuSerif-20" transform="translate(1327.734375 0)"/>
     <use xlink:href="#DejaVuSerif-6d" transform="translate(1359.521484 0)"/>
     <use xlink:href="#DejaVuSerif-6f" transform="translate(1454.345703 0)"/>
     <use xlink:href="#DejaVuSerif-72" transform="translate(1514.550781 0)"/>
     <use xlink:href="#DejaVuSerif-65" transform="translate(1562.353516 0)"/>
     <use xlink:href="#DejaVuSerif-20" transform="translate(1621.533203 0)"/>
     <use xlink:href="#DejaVuSerif-74" transform="translate(1653.320312 0)"/>
     <use xlink:href="#DejaVuSerif-68" transform="translate(1693.505859 0)"/>
     <use xlink:href="#DejaVuSerif-61" transform="translate(1757.910156 0)"/>
     <use xlink:href="#DejaVuSerif-6e" transform="translate(1817.529297 0)"/>
     <use xlink:href="#DejaVuSerif-20" transform="translate(1881.933594 0)"/>
     <use xlink:href="#DejaVuSerif-6f" transform="translate(1913.720703 0)"/>
     <use xlink:href="#DejaVuSerif-6e" transform="translate(1973.925781 0)"/>
     <use xlink:href="#DejaVuSerif-65" transform="translate(2038.330078 0)"/>
     <use xlink:href="#DejaVuSerif-20" transform="translate(2097.509766 0)"/>
     <use xlink:href="#DejaVuSerif-64" transform="translate(2129.296875 0)"/>
     <use xlink:href="#DejaVuSerif-69" transform="translate(2193.310547 0)"/>
     <use xlink:href="#DejaVuSerif-72" transform="translate(2225.292969 0)"/>
     <use xlink:href="#DejaVuSerif-65" transform="translate(2273.095703 0)"/>
     <use xlink:href="#DejaVuSerif-63" transform="translate(2332.275391 0)"/>
     <use xlink:href="#DejaVuSerif-74" transform="translate(2388.28125 0)"/>
     <use xlink:href="#DejaVuSerif-69" transform="translate(2428.466797 0)"/>
     <use xlink:href="#DejaVuSerif-6f" transform="translate(2460.449219 0)"/>
     <use xlink:href="#DejaVuSerif-6e" transform="translate(2520.654297 0)"/>
     <use xlink:href="#DejaVuSerif-3f" transform="translate(2585.058594 0)"/>
    </g>
   </g>
   <g id="line2d_19">
    <path d="M 59.648892 63.729876 
L 149.508632 63.729876 
" clip-path="url(#pdcf5dbff3d)" style="fill: none; stroke-dasharray: 5.92,2.56; stroke-dashoffset: 0; stroke: #222222; stroke-width: 1.6"/>
   </g>
   <g id="line2d_20">
    <path d="M 171.973567 30.534281 
L 261.833308 30.534281 
" clip-path="url(#pdcf5dbff3d)" style="fill: none; stroke-dasharray: 5.92,2.56; stroke-dashoffset: 0; stroke: #222222; stroke-width: 1.6"/>
   </g>
   <g id="line2d_21">
    <path d="M 284.298243 56.521844 
L 374.157983 56.521844 
" clip-path="url(#pdcf5dbff3d)" style="fill: none; stroke-dasharray: 5.92,2.56; stroke-dashoffset: 0; stroke: #222222; stroke-width: 1.6"/>
   </g>
   <g id="legend_1">
    <g id="line2d_22">
     <path d="M 51.573438 159.990609 
L 60.073438 159.990609 
L 68.573438 159.990609 
" style="fill: none; stroke-dasharray: 5.92,2.56; stroke-dashoffset: 0; stroke: #222222; stroke-width: 1.6"/>
    </g>
    <g id="text_12">
     <!-- human ceiling -->
     <g transform="translate(75.373438 162.965609) scale(0.085 -0.085)">
      <defs>
       <path id="DejaVuSerif-75" d="M 2266 3322 
L 3341 3322 
L 3341 331 
L 3884 331 
L 3884 0 
L 2766 0 
L 2766 588 
Q 2606 256 2353 82 
Q 2100 -91 1766 -91 
Q 1213 -91 952 223 
Q 691 538 691 1209 
L 691 2988 
L 172 2988 
L 172 3322 
L 1269 3322 
L 1269 1388 
Q 1269 781 1417 556 
Q 1566 331 1947 331 
Q 2347 331 2556 625 
Q 2766 919 2766 1478 
L 2766 2988 
L 2266 2988 
L 2266 3322 
z
" transform="scale(0.015625)"/>
      </defs>
      <use xlink:href="#DejaVuSerif-68"/>
      <use xlink:href="#DejaVuSerif-75" transform="translate(64.404297 0)"/>
      <use xlink:href="#DejaVuSerif-6d" transform="translate(128.808594 0)"/>
      <use xlink:href="#DejaVuSerif-61" transform="translate(223.632812 0)"/>
      <use xlink:href="#DejaVuSerif-6e" transform="translate(283.251953 0)"/>
      <use xlink:href="#DejaVuSerif-20" transform="translate(347.65625 0)"/>
      <use xlink:href="#DejaVuSerif-63" transform="translate(379.443359 0)"/>
      <use xlink:href="#DejaVuSerif-65" transform="translate(435.449219 0)"/>
      <use xlink:href="#DejaVuSerif-69" transform="translate(494.628906 0)"/>
      <use xlink:href="#DejaVuSerif-6c" transform="translate(526.611328 0)"/>
      <use xlink:href="#DejaVuSerif-69" transform="translate(558.59375 0)"/>
      <use xlink:href="#DejaVuSerif-6e" transform="translate(590.576172 0)"/>
      <use xlink:href="#DejaVuSerif-67" transform="translate(654.980469 0)"/>
     </g>
    </g>
    <g id="patch_14">
     <path d="M 51.573438 175.562875 
L 68.573438 175.562875 
L 68.573438 169.612875 
L 51.573438 169.612875 
z
" style="fill: #009e73; opacity: 0.9"/>
    </g>
    <g id="text_13">
     <!-- 1-D DoM (single direction) -->
     <g transform="translate(75.373438 175.562875) scale(0.085 -0.085)">
      <defs>
       <path id="DejaVuSerif-44" d="M 1581 331 
L 2163 331 
Q 3072 331 3558 850 
Q 4044 1369 4044 2338 
Q 4044 3306 3559 3818 
Q 3075 4331 2163 4331 
L 1581 4331 
L 1581 331 
z
M 353 0 
L 353 331 
L 947 331 
L 947 4331 
L 353 4331 
L 353 4666 
L 2209 4666 
Q 3416 4666 4089 4050 
Q 4763 3434 4763 2338 
Q 4763 1238 4088 619 
Q 3413 0 2209 0 
L 353 0 
z
" transform="scale(0.015625)"/>
      </defs>
      <use xlink:href="#DejaVuSerif-31"/>
      <use xlink:href="#DejaVuSerif-2d" transform="translate(63.623047 0)"/>
      <use xlink:href="#DejaVuSerif-44" transform="translate(97.412109 0)"/>
      <use xlink:href="#DejaVuSerif-20" transform="translate(177.587891 0)"/>
      <use xlink:href="#DejaVuSerif-44" transform="translate(209.375 0)"/>
      <use xlink:href="#DejaVuSerif-6f" transform="translate(289.550781 0)"/>
      <use xlink:href="#DejaVuSerif-4d" transform="translate(349.755859 0)"/>
      <use xlink:href="#DejaVuSerif-20" transform="translate(452.148438 0)"/>
      <use xlink:href="#DejaVuSerif-28" transform="translate(483.935547 0)"/>
      <use xlink:href="#DejaVuSerif-73" transform="translate(522.949219 0)"/>
      <use xlink:href="#DejaVuSerif-69" transform="translate(574.267578 0)"/>
      <use xlink:href="#DejaVuSerif-6e" transform="translate(606.25 0)"/>
      <use xlink:href="#DejaVuSerif-67" transform="translate(670.654297 0)"/>
      <use xlink:href="#DejaVuSerif-6c" transform="translate(734.667969 0)"/>
      <use xlink:href="#DejaVuSerif-65" transform="translate(766.650391 0)"/>
      <use xlink:href="#DejaVuSerif-20" transform="translate(825.830078 0)"/>
      <use xlink:href="#DejaVuSerif-64" transform="translate(857.617188 0)"/>
      <use xlink:href="#DejaVuSerif-69" transform="translate(921.630859 0)"/>
      <use xlink:href="#DejaVuSerif-72" transform="translate(953.613281 0)"/>
      <use xlink:href="#DejaVuSerif-65" transform="translate(1001.416016 0)"/>
      <use xlink:href="#DejaVuSerif-63" transform="translate(1060.595703 0)"/>
      <use xlink:href="#DejaVuSerif-74" transform="translate(1116.601562 0)"/>
      <use xlink:href="#DejaVuSerif-69" transform="translate(1156.787109 0)"/>
      <use xlink:href="#DejaVuSerif-6f" transform="translate(1188.769531 0)"/>
      <use xlink:href="#DejaVuSerif-6e" transform="translate(1248.974609 0)"/>
      <use xlink:href="#DejaVuSerif-29" transform="translate(1313.378906 0)"/>
     </g>
    </g>
    <g id="patch_15">
     <path d="M 51.573438 188.160141 
L 68.573438 188.160141 
L 68.573438 182.210141 
L 51.573438 182.210141 
z
" style="fill: #56b4e9; opacity: 0.9"/>
    </g>
    <g id="text_14">
     <!-- linear (full subspace) -->
     <g transform="translate(75.373438 188.160141) scale(0.085 -0.085)">
      <defs>
       <path id="DejaVuSerif-66" d="M 2753 4078 
L 2450 4078 
Q 2447 4313 2317 4434 
Q 2188 4556 1941 4556 
Q 1619 4556 1487 4379 
Q 1356 4203 1356 3750 
L 1356 3322 
L 2284 3322 
L 2284 2988 
L 1356 2988 
L 1356 331 
L 2094 331 
L 2094 0 
L 231 0 
L 231 331 
L 781 331 
L 781 2988 
L 231 2988 
L 231 3322 
L 781 3322 
L 781 3738 
Q 781 4294 1070 4578 
Q 1359 4863 1919 4863 
Q 2128 4863 2337 4825 
Q 2547 4788 2753 4709 
L 2753 4078 
z
" transform="scale(0.015625)"/>
       <path id="DejaVuSerif-70" d="M 1313 1825 
L 1313 1497 
Q 1313 897 1542 583 
Q 1772 269 2209 269 
Q 2650 269 2876 622 
Q 3103 975 3103 1663 
Q 3103 2353 2876 2703 
Q 2650 3053 2209 3053 
Q 1772 3053 1542 2737 
Q 1313 2422 1313 1825 
z
M 738 2988 
L 184 2988 
L 184 3322 
L 1313 3322 
L 1313 2803 
Q 1481 3116 1742 3264 
Q 2003 3413 2388 3413 
Q 3000 3413 3387 2928 
Q 3775 2444 3775 1663 
Q 3775 881 3387 395 
Q 3000 -91 2388 -91 
Q 2003 -91 1742 57 
Q 1481 206 1313 519 
L 1313 -997 
L 1856 -997 
L 1856 -1331 
L 184 -1331 
L 184 -997 
L 738 -997 
L 738 2988 
z
" transform="scale(0.015625)"/>
      </defs>
      <use xlink:href="#DejaVuSerif-6c"/>
      <use xlink:href="#DejaVuSerif-69" transform="translate(31.982422 0)"/>
      <use xlink:href="#DejaVuSerif-6e" transform="translate(63.964844 0)"/>
      <use xlink:href="#DejaVuSerif-65" transform="translate(128.369141 0)"/>
      <use xlink:href="#DejaVuSerif-61" transform="translate(187.548828 0)"/>
      <use xlink:href="#DejaVuSerif-72" transform="translate(247.167969 0)"/>
      <use xlink:href="#DejaVuSerif-20" transform="translate(294.970703 0)"/>
      <use xlink:href="#DejaVuSerif-28" transform="translate(326.757812 0)"/>
      <use xlink:href="#DejaVuSerif-66" transform="translate(365.771484 0)"/>
      <use xlink:href="#DejaVuSerif-75" transform="translate(402.783203 0)"/>
      <use xlink:href="#DejaVuSerif-6c" transform="translate(467.1875 0)"/>
      <use xlink:href="#DejaVuSerif-6c" transform="translate(499.169922 0)"/>
      <use xlink:href="#DejaVuSerif-20" transform="translate(531.152344 0)"/>
      <use xlink:href="#DejaVuSerif-73" transform="translate(562.939453 0)"/>
      <use xlink:href="#DejaVuSerif-75" transform="translate(614.257812 0)"/>
      <use xlink:href="#DejaVuSerif-62" transform="translate(678.662109 0)"/>
      <use xlink:href="#DejaVuSerif-73" transform="translate(742.675781 0)"/>
      <use xlink:href="#DejaVuSerif-70" transform="translate(793.994141 0)"/>
      <use xlink:href="#DejaVuSerif-61" transform="translate(858.007812 0)"/>
      <use xlink:href="#DejaVuSerif-63" transform="translate(917.626953 0)"/>
      <use xlink:href="#DejaVuSerif-65" transform="translate(973.632812 0)"/>
      <use xlink:href="#DejaVuSerif-29" transform="translate(1032.8125 0)"/>
     </g>
    </g>
    <g id="patch_16">
     <path d="M 51.573438 200.636547 
L 68.573438 200.636547 
L 68.573438 194.686547 
L 51.573438 194.686547 
z
" style="fill: #7f7f7f; opacity: 0.9"/>
    </g>
    <g id="text_15">
     <!-- MLP -->
     <g transform="translate(75.373438 200.636547) scale(0.085 -0.085)">
      <defs>
       <path id="DejaVuSerif-4c" d="M 353 0 
L 353 331 
L 947 331 
L 947 4331 
L 353 4331 
L 353 4666 
L 2175 4666 
L 2175 4331 
L 1581 4331 
L 1581 384 
L 3713 384 
L 3713 1166 
L 4097 1166 
L 4097 0 
L 353 0 
z
" transform="scale(0.015625)"/>
      </defs>
      <use xlink:href="#DejaVuSerif-4d"/>
      <use xlink:href="#DejaVuSerif-4c" transform="translate(102.392578 0)"/>
      <use xlink:href="#DejaVuSerif-50" transform="translate(168.798828 0)"/>
     </g>
    </g>
   </g>
  </g>
 </g>
 <defs>
  <clipPath id="pdcf5dbff3d">
   <rect x="43.923438" y="21.558281" width="345.96" height="188.496"/>
  </clipPath>
 </defs>
</svg>
