<?xml version="1.0" encoding="utf-8" standalone="no"?>
<!DOCTYPE svg PUBLIC "-//W3C//DTD SVG 1.1//EN"
  "http://www.w3.org/Graphics/SVG/1.1/DTD/svg11.dtd">
<svg xmlns:xlink="http://www.w3.org/1999/xlink" width="430.62875pt" height="244.196312pt" viewBox="0 0 430.62875 244.196312" xmlns="http://www.w3.org/2000/svg" version="1.1">
 <metadata>
  <rdf:RDF xmlns:dc="http://purl.org/dc/elements/1.1/" xmlns:cc="http://creativecommons.org/ns#" xmlns:rdf="http://www.w3.org/1999/02/22-rdf-syntax-ns#">
   <cc:Work>
    <dc:type rdf:resource="http://purl.org/dc/dcmitype/StillImage"/>
    <dc:date>2026-06-08T02:54:50.146438</dc:date>
    <dc:format>image/svg+xml</dc:format>
    <dc:creator>
     <cc:Agent>
      <dc:title>Matplotlib v3.10.8, https://matplotlib.org/</dc:title>
     </cc:Agent>
    </dc:creator>
   </cc:Work>
  </rdf:RDF>
 </metadata>
 <defs>
  <style type="text/css">*{stroke-linejoin: round; stroke-linecap: butt}</style>
 </defs>
 <g id="figure_1">
  <g id="patch_1">
   <path d="M 0 244.196312 
L 430.62875 244.196312 
L 430.62875 -0 
L 0 -0 
z
" style="fill: #ffffff"/>
  </g>
  <g id="axes_1">
   <g id="patch_2">
    <path d="M 34.382813 220.176 
L 380.342813 220.176 
L 380.342813 31.68 
L 34.382813 31.68 
z
" style="fill: #ffffff"/>
   </g>
   <g id="patch_3">
    <path d="M 50.108267 220.176 
L 154.944631 220.176 
L 154.944631 164.461561 
L 50.108267 164.461561 
z
" clip-path="url(#p7d17781610)" style="fill: #56b4e9; opacity: 0.85"/>
   </g>
   <g id="patch_4">
    <path d="M 259.780994 220.176 
L 364.617358 220.176 
L 364.617358 85.536 
L 259.780994 85.536 
z
" clip-path="url(#p7d17781610)" style="fill: #56b4e9; opacity: 0.85"/>
   </g>
   <g id="matplotlib.axis_1">
    <g id="xtick_1">
     <g id="line2d_1">
      <defs>
       <path id="m182a49bffa" d="M 0 0 
L 0 3.5 
" style="stroke: #000000; stroke-width: 0.8"/>
      </defs>
      <g>
       <use xlink:href="#m182a49bffa" x="102.526449" y="220.176" style="stroke: #000000; stroke-width: 0.8"/>
      </g>
     </g>
     <g id="text_1">
      <!-- low reasoning -->
      <g transform="translate(66.901449 234.774437) scale(0.1 -0.1)">
       <defs>
        <path id="DejaVuSerif-6c" d="M 1313 331 
L 1856 331 
L 1856 0 
L 184 0 
L 184 331 
L 738 331 
L 738 4531 
L 184 4531 
L 184 4863 
L 1313 4863 
L 1313 331 
z
" transform="scale(0.015625)"/>
        <path id="DejaVuSerif-6f" d="M 1925 219 
Q 2388 219 2623 584 
Q 2859 950 2859 1663 
Q 2859 2375 2623 2739 
Q 2388 3103 1925 3103 
Q 1463 3103 1227 2739 
Q 991 2375 991 1663 
Q 991 950 1228 584 
Q 1466 219 1925 219 
z
M 1925 -91 
Q 1200 -91 759 389 
Q 319 869 319 1663 
Q 319 2456 758 2934 
Q 1197 3413 1925 3413 
Q 2653 3413 3092 2934 
Q 3531 2456 3531 1663 
Q 3531 869 3092 389 
Q 2653 -91 1925 -91 
z
" transform="scale(0.015625)"/>
        <path id="DejaVuSerif-77" d="M 3072 3322 
L 3922 728 
L 4672 2988 
L 4191 2988 
L 4191 3322 
L 5394 3322 
L 5394 2988 
L 5025 2988 
L 4038 0 
L 3559 0 
L 2741 2484 
L 1919 0 
L 1459 0 
L 475 2988 
L 103 2988 
L 103 3322 
L 1606 3322 
L 1606 2988 
L 1069 2988 
L 1813 728 
L 2669 3322 
L 3072 3322 
z
" transform="scale(0.015625)"/>
        <path id="DejaVuSerif-20" transform="scale(0.015625)"/>
        <path id="DejaVuSerif-72" d="M 3059 3328 
L 3059 2497 
L 2728 2497 
Q 2713 2744 2591 2866 
Q 2469 2988 2234 2988 
Q 1809 2988 1582 2694 
Q 1356 2400 1356 1850 
L 1356 331 
L 2022 331 
L 2022 0 
L 263 0 
L 263 331 
L 781 331 
L 781 2994 
L 231 2994 
L 231 3322 
L 1356 3322 
L 1356 2731 
Q 1525 3078 1790 3245 
Q 2056 3413 2438 3413 
Q 2578 3413 2733 3391 
Q 2888 3369 3059 3328 
z
" transform="scale(0.015625)"/>
        <path id="DejaVuSerif-65" d="M 3469 1600 
L 991 1600 
L 991 1575 
Q 991 903 1244 561 
Q 1497 219 1991 219 
Q 2369 219 2611 417 
Q 2853 616 2950 1006 
L 3413 1006 
Q 3275 459 2904 184 
Q 2534 -91 1931 -91 
Q 1203 -91 761 389 
Q 319 869 319 1663 
Q 319 2450 753 2931 
Q 1188 3413 1894 3413 
Q 2647 3413 3050 2948 
Q 3453 2484 3469 1600 
z
M 2791 1931 
Q 2772 2513 2545 2808 
Q 2319 3103 1894 3103 
Q 1497 3103 1269 2806 
Q 1041 2509 991 1931 
L 2791 1931 
z
" transform="scale(0.015625)"/>
        <path id="DejaVuSerif-61" d="M 2547 1044 
L 2547 1747 
L 1806 1747 
Q 1378 1747 1168 1562 
Q 959 1378 959 997 
Q 959 650 1171 447 
Q 1384 244 1747 244 
Q 2106 244 2326 466 
Q 2547 688 2547 1044 
z
M 3122 2075 
L 3122 331 
L 3634 331 
L 3634 0 
L 2547 0 
L 2547 359 
Q 2356 128 2106 18 
Q 1856 -91 1522 -91 
Q 969 -91 644 203 
Q 319 497 319 997 
Q 319 1513 691 1797 
Q 1063 2081 1741 2081 
L 2547 2081 
L 2547 2309 
Q 2547 2688 2317 2895 
Q 2088 3103 1672 3103 
Q 1328 3103 1125 2947 
Q 922 2791 872 2484 
L 575 2484 
L 575 3156 
Q 875 3284 1158 3348 
Q 1441 3413 1709 3413 
Q 2400 3413 2761 3070 
Q 3122 2728 3122 2075 
z
" transform="scale(0.015625)"/>
        <path id="DejaVuSerif-73" d="M 359 184 
L 359 959 
L 691 959 
Q 703 588 923 403 
Q 1144 219 1575 219 
Q 1963 219 2166 364 
Q 2369 509 2369 788 
Q 2369 1006 2220 1140 
Q 2072 1275 1594 1428 
L 1178 1569 
Q 750 1706 558 1912 
Q 366 2119 366 2438 
Q 366 2894 700 3153 
Q 1034 3413 1625 3413 
Q 1888 3413 2178 3344 
Q 2469 3275 2778 3144 
L 2778 2419 
L 2447 2419 
Q 2434 2741 2221 2922 
Q 2009 3103 1644 3103 
Q 1281 3103 1095 2975 
Q 909 2847 909 2591 
Q 909 2381 1050 2254 
Q 1191 2128 1613 1997 
L 2069 1856 
Q 2541 1709 2748 1489 
Q 2956 1269 2956 922 
Q 2956 450 2595 179 
Q 2234 -91 1600 -91 
Q 1278 -91 972 -22 
Q 666 47 359 184 
z
" transform="scale(0.015625)"/>
        <path id="DejaVuSerif-6e" d="M 263 0 
L 263 331 
L 781 331 
L 781 2988 
L 231 2988 
L 231 3322 
L 1356 3322 
L 1356 2731 
Q 1516 3069 1770 3241 
Q 2025 3413 2363 3413 
Q 2913 3413 3172 3097 
Q 3431 2781 3431 2113 
L 3431 331 
L 3944 331 
L 3944 0 
L 2356 0 
L 2356 331 
L 2853 331 
L 2853 1931 
Q 2853 2541 2703 2767 
Q 2553 2994 2175 2994 
Q 1775 2994 1565 2701 
Q 1356 2409 1356 1850 
L 1356 331 
L 1856 331 
L 1856 0 
L 263 0 
z
" transform="scale(0.015625)"/>
        <path id="DejaVuSerif-69" d="M 622 4353 
Q 622 4497 726 4603 
Q 831 4709 978 4709 
Q 1122 4709 1226 4603 
Q 1331 4497 1331 4353 
Q 1331 4206 1228 4103 
Q 1125 4000 978 4000 
Q 831 4000 726 4103 
Q 622 4206 622 4353 
z
M 1356 331 
L 1900 331 
L 1900 0 
L 231 0 
L 231 331 
L 781 331 
L 781 2988 
L 231 2988 
L 231 3322 
L 1356 3322 
L 1356 331 
z
" transform="scale(0.015625)"/>
        <path id="DejaVuSerif-67" d="M 3359 2988 
L 3359 72 
Q 3359 -644 2965 -1033 
Q 2572 -1422 1844 -1422 
Q 1516 -1422 1216 -1362 
Q 916 -1303 641 -1184 
L 641 -488 
L 941 -488 
Q 997 -813 1206 -963 
Q 1416 -1113 1806 -1113 
Q 2313 -1113 2548 -827 
Q 2784 -541 2784 72 
L 2784 519 
Q 2616 206 2355 57 
Q 2094 -91 1709 -91 
Q 1097 -91 708 395 
Q 319 881 319 1663 
Q 319 2444 706 2928 
Q 1094 3413 1709 3413 
Q 2094 3413 2355 3264 
Q 2616 3116 2784 2803 
L 2784 3322 
L 3909 3322 
L 3909 2988 
L 3359 2988 
z
M 2784 1825 
Q 2784 2422 2554 2737 
Q 2325 3053 1888 3053 
Q 1444 3053 1217 2703 
Q 991 2353 991 1663 
Q 991 975 1217 622 
Q 1444 269 1888 269 
Q 2325 269 2554 583 
Q 2784 897 2784 1497 
L 2784 1825 
z
" transform="scale(0.015625)"/>
       </defs>
       <use xlink:href="#DejaVuSerif-6c"/>
       <use xlink:href="#DejaVuSerif-6f" transform="translate(31.982422 0)"/>
       <use xlink:href="#DejaVuSerif-77" transform="translate(92.1875 0)"/>
       <use xlink:href="#DejaVuSerif-20" transform="translate(177.783203 0)"/>
       <use xlink:href="#DejaVuSerif-72" transform="translate(209.570312 0)"/>
       <use xlink:href="#DejaVuSerif-65" transform="translate(257.373047 0)"/>
       <use xlink:href="#DejaVuSerif-61" transform="translate(316.552734 0)"/>
       <use xlink:href="#DejaVuSerif-73" transform="translate(376.171875 0)"/>
       <use xlink:href="#DejaVuSerif-6f" transform="translate(427.490234 0)"/>
       <use xlink:href="#DejaVuSerif-6e" transform="translate(487.695312 0)"/>
       <use xlink:href="#DejaVuSerif-69" transform="translate(552.099609 0)"/>
       <use xlink:href="#DejaVuSerif-6e" transform="translate(584.082031 0)"/>
       <use xlink:href="#DejaVuSerif-67" transform="translate(648.486328 0)"/>
      </g>
     </g>
    </g>
    <g id="xtick_2">
     <g id="line2d_2">
      <g>
       <use xlink:href="#m182a49bffa" x="312.199176" y="220.176" style="stroke: #000000; stroke-width: 0.8"/>
      </g>
     </g>
     <g id="text_2">
      <!-- medium reasoning -->
      <g transform="translate(265.000739 234.774437) scale(0.1 -0.1)">
       <defs>
        <path id="DejaVuSerif-6d" d="M 3316 2675 
Q 3481 3041 3739 3227 
Q 3997 3413 4341 3413 
Q 4863 3413 5119 3089 
Q 5375 2766 5375 2113 
L 5375 331 
L 5894 331 
L 5894 0 
L 4300 0 
L 4300 331 
L 4800 331 
L 4800 2047 
Q 4800 2556 4650 2772 
Q 4500 2988 4153 2988 
Q 3769 2988 3567 2697 
Q 3366 2406 3366 1850 
L 3366 331 
L 3866 331 
L 3866 0 
L 2291 0 
L 2291 331 
L 2791 331 
L 2791 2069 
Q 2791 2566 2641 2777 
Q 2491 2988 2144 2988 
Q 1759 2988 1557 2697 
Q 1356 2406 1356 1850 
L 1356 331 
L 1856 331 
L 1856 0 
L 263 0 
L 263 331 
L 781 331 
L 781 2994 
L 231 2994 
L 231 3322 
L 1356 3322 
L 1356 2731 
Q 1516 3063 1762 3238 
Q 2009 3413 2322 3413 
Q 2709 3413 2968 3220 
Q 3228 3028 3316 2675 
z
" transform="scale(0.015625)"/>
        <path id="DejaVuSerif-64" d="M 3359 331 
L 3909 331 
L 3909 0 
L 2784 0 
L 2784 519 
Q 2616 206 2355 57 
Q 2094 -91 1709 -91 
Q 1097 -91 708 395 
Q 319 881 319 1663 
Q 319 2444 706 2928 
Q 1094 3413 1709 3413 
Q 2094 3413 2355 3264 
Q 2616 3116 2784 2803 
L 2784 4531 
L 2241 4531 
L 2241 4863 
L 3359 4863 
L 3359 331 
z
M 2784 1497 
L 2784 1825 
Q 2784 2422 2554 2737 
Q 2325 3053 1888 3053 
Q 1444 3053 1217 2703 
Q 991 2353 991 1663 
Q 991 975 1217 622 
Q 1444 269 1888 269 
Q 2325 269 2554 583 
Q 2784 897 2784 1497 
z
" transform="scale(0.015625)"/>
        <path id="DejaVuSerif-75" d="M 2266 3322 
L 3341 3322 
L 3341 331 
L 3884 331 
L 3884 0 
L 2766 0 
L 2766 588 
Q 2606 256 2353 82 
Q 2100 -91 1766 -91 
Q 1213 -91 952 223 
Q 691 538 691 1209 
L 691 2988 
L 172 2988 
L 172 3322 
L 1269 3322 
L 1269 1388 
Q 1269 781 1417 556 
Q 1566 331 1947 331 
Q 2347 331 2556 625 
Q 2766 919 2766 1478 
L 2766 2988 
L 2266 2988 
L 2266 3322 
z
" transform="scale(0.015625)"/>
       </defs>
       <use xlink:href="#DejaVuSerif-6d"/>
       <use xlink:href="#DejaVuSerif-65" transform="translate(94.824219 0)"/>
       <use xlink:href="#DejaVuSerif-64" transform="translate(154.003906 0)"/>
       <use xlink:href="#DejaVuSerif-69" transform="translate(218.017578 0)"/>
       <use xlink:href="#DejaVuSerif-75" transform="translate(250 0)"/>
       <use xlink:href="#DejaVuSerif-6d" transform="translate(314.404297 0)"/>
       <use xlink:href="#DejaVuSerif-20" transform="translate(409.228516 0)"/>
       <use xlink:href="#DejaVuSerif-72" transform="translate(441.015625 0)"/>
       <use xlink:href="#DejaVuSerif-65" transform="translate(488.818359 0)"/>
       <use xlink:href="#DejaVuSerif-61" transform="translate(547.998047 0)"/>
       <use xlink:href="#DejaVuSerif-73" transform="translate(607.617188 0)"/>
       <use xlink:href="#DejaVuSerif-6f" transform="translate(658.935547 0)"/>
       <use xlink:href="#DejaVuSerif-6e" transform="translate(719.140625 0)"/>
       <use xlink:href="#DejaVuSerif-69" transform="translate(783.544922 0)"/>
       <use xlink:href="#DejaVuSerif-6e" transform="translate(815.527344 0)"/>
       <use xlink:href="#DejaVuSerif-67" transform="translate(879.931641 0)"/>
      </g>
     </g>
    </g>
   </g>
   <g id="matplotlib.axis_2">
    <g id="ytick_1">
     <g id="line2d_3">
      <defs>
       <path id="m1931cb756c" d="M 0 0 
L -3.5 0 
" style="stroke: #000000; stroke-width: 0.8"/>
      </defs>
      <g>
       <use xlink:href="#m1931cb756c" x="34.382813" y="220.176" style="stroke: #000000; stroke-width: 0.8"/>
      </g>
     </g>
     <g id="text_3">
      <!-- 0 -->
      <g transform="translate(21.020313 223.975219) scale(0.1 -0.1)">
       <defs>
        <path id="DejaVuSerif-30" d="M 2034 219 
Q 2513 219 2750 744 
Q 2988 1269 2988 2328 
Q 2988 3391 2750 3916 
Q 2513 4441 2034 4441 
Q 1556 4441 1318 3916 
Q 1081 3391 1081 2328 
Q 1081 1269 1318 744 
Q 1556 219 2034 219 
z
M 2034 -91 
Q 1275 -91 848 546 
Q 422 1184 422 2328 
Q 422 3475 848 4112 
Q 1275 4750 2034 4750 
Q 2797 4750 3222 4112 
Q 3647 3475 3647 2328 
Q 3647 1184 3222 546 
Q 2797 -91 2034 -91 
z
" transform="scale(0.015625)"/>
       </defs>
       <use xlink:href="#DejaVuSerif-30"/>
      </g>
     </g>
    </g>
    <g id="ytick_2">
     <g id="line2d_4">
      <g>
       <use xlink:href="#m1931cb756c" x="34.382813" y="181.458531" style="stroke: #000000; stroke-width: 0.8"/>
      </g>
     </g>
     <g id="text_4">
      <!-- 2 -->
      <g transform="translate(21.020313 185.257749) scale(0.1 -0.1)">
       <defs>
        <path id="DejaVuSerif-32" d="M 819 3553 
L 469 3553 
L 469 4384 
Q 803 4563 1142 4656 
Q 1481 4750 1806 4750 
Q 2534 4750 2956 4397 
Q 3378 4044 3378 3438 
Q 3378 2753 2422 1800 
Q 2347 1728 2309 1691 
L 1131 513 
L 3078 513 
L 3078 1088 
L 3444 1088 
L 3444 0 
L 434 0 
L 434 341 
L 1850 1753 
Q 2319 2222 2519 2614 
Q 2719 3006 2719 3438 
Q 2719 3909 2473 4175 
Q 2228 4441 1797 4441 
Q 1350 4441 1106 4219 
Q 863 3997 819 3553 
z
" transform="scale(0.015625)"/>
       </defs>
       <use xlink:href="#DejaVuSerif-32"/>
      </g>
     </g>
    </g>
    <g id="ytick_3">
     <g id="line2d_5">
      <g>
       <use xlink:href="#m1931cb756c" x="34.382813" y="142.741061" style="stroke: #000000; stroke-width: 0.8"/>
      </g>
     </g>
     <g id="text_5">
      <!-- 4 -->
      <g transform="translate(21.020313 146.54028) scale(0.1 -0.1)">
       <defs>
        <path id="DejaVuSerif-34" d="M 2234 1581 
L 2234 4063 
L 641 1581 
L 2234 1581 
z
M 3609 0 
L 1484 0 
L 1484 331 
L 2234 331 
L 2234 1247 
L 197 1247 
L 197 1588 
L 2241 4750 
L 2859 4750 
L 2859 1581 
L 3750 1581 
L 3750 1247 
L 2859 1247 
L 2859 331 
L 3609 331 
L 3609 0 
z
" transform="scale(0.015625)"/>
       </defs>
       <use xlink:href="#DejaVuSerif-34"/>
      </g>
     </g>
    </g>
    <g id="ytick_4">
     <g id="line2d_6">
      <g>
       <use xlink:href="#m1931cb756c" x="34.382813" y="104.023592" style="stroke: #000000; stroke-width: 0.8"/>
      </g>
     </g>
     <g id="text_6">
      <!-- 6 -->
      <g transform="translate(21.020313 107.82281) scale(0.1 -0.1)">
       <defs>
        <path id="DejaVuSerif-36" d="M 2094 219 
Q 2534 219 2771 542 
Q 3009 866 3009 1472 
Q 3009 2078 2771 2401 
Q 2534 2725 2094 2725 
Q 1647 2725 1412 2412 
Q 1178 2100 1178 1509 
Q 1178 888 1415 553 
Q 1653 219 2094 219 
z
M 1075 2569 
Q 1288 2803 1556 2918 
Q 1825 3034 2163 3034 
Q 2859 3034 3264 2615 
Q 3669 2197 3669 1472 
Q 3669 763 3233 336 
Q 2797 -91 2069 -91 
Q 1278 -91 853 498 
Q 428 1088 428 2181 
Q 428 3406 931 4078 
Q 1434 4750 2350 4750 
Q 2597 4750 2869 4703 
Q 3141 4656 3425 4563 
L 3425 3794 
L 3072 3794 
Q 3034 4109 2831 4275 
Q 2628 4441 2284 4441 
Q 1678 4441 1381 3981 
Q 1084 3522 1075 2569 
z
" transform="scale(0.015625)"/>
       </defs>
       <use xlink:href="#DejaVuSerif-36"/>
      </g>
     </g>
    </g>
    <g id="ytick_5">
     <g id="line2d_7">
      <g>
       <use xlink:href="#m1931cb756c" x="34.382813" y="65.306122" style="stroke: #000000; stroke-width: 0.8"/>
      </g>
     </g>
     <g id="text_7">
      <!-- 8 -->
      <g transform="translate(21.020313 69.105341) scale(0.1 -0.1)">
       <defs>
        <path id="DejaVuSerif-38" d="M 2981 1275 
Q 2981 1775 2732 2051 
Q 2484 2328 2034 2328 
Q 1584 2328 1336 2051 
Q 1088 1775 1088 1275 
Q 1088 772 1336 495 
Q 1584 219 2034 219 
Q 2484 219 2732 495 
Q 2981 772 2981 1275 
z
M 2853 3541 
Q 2853 3966 2637 4203 
Q 2422 4441 2034 4441 
Q 1650 4441 1433 4203 
Q 1216 3966 1216 3541 
Q 1216 3113 1433 2875 
Q 1650 2638 2034 2638 
Q 2422 2638 2637 2875 
Q 2853 3113 2853 3541 
z
M 2516 2484 
Q 3047 2413 3344 2092 
Q 3641 1772 3641 1275 
Q 3641 619 3225 264 
Q 2809 -91 2034 -91 
Q 1263 -91 845 264 
Q 428 619 428 1275 
Q 428 1772 725 2092 
Q 1022 2413 1556 2484 
Q 1084 2569 832 2842 
Q 581 3116 581 3541 
Q 581 4103 968 4426 
Q 1356 4750 2034 4750 
Q 2713 4750 3100 4426 
Q 3488 4103 3488 3541 
Q 3488 3116 3236 2842 
Q 2984 2569 2516 2484 
z
" transform="scale(0.015625)"/>
       </defs>
       <use xlink:href="#DejaVuSerif-38"/>
      </g>
     </g>
    </g>
    <g id="text_8">
     <!-- isolated latency (s/query) -->
     <g style="fill: #0072b2" transform="translate(14.798438 190.172531) rotate(-90) scale(0.1 -0.1)">
      <defs>
       <path id="DejaVuSerif-74" d="M 691 2988 
L 184 2988 
L 184 3322 
L 691 3322 
L 691 4353 
L 1269 4353 
L 1269 3322 
L 2350 3322 
L 2350 2988 
L 1269 2988 
L 1269 878 
Q 1269 456 1350 337 
Q 1431 219 1650 219 
Q 1875 219 1978 351 
Q 2081 484 2088 781 
L 2522 781 
Q 2497 328 2275 118 
Q 2053 -91 1600 -91 
Q 1103 -91 897 129 
Q 691 350 691 878 
L 691 2988 
z
" transform="scale(0.015625)"/>
       <path id="DejaVuSerif-63" d="M 3291 997 
Q 3169 466 2822 187 
Q 2475 -91 1925 -91 
Q 1200 -91 759 389 
Q 319 869 319 1663 
Q 319 2459 759 2936 
Q 1200 3413 1925 3413 
Q 2241 3413 2553 3339 
Q 2866 3266 3181 3116 
L 3181 2266 
L 2847 2266 
Q 2781 2703 2561 2903 
Q 2341 3103 1931 3103 
Q 1466 3103 1228 2742 
Q 991 2381 991 1663 
Q 991 944 1227 581 
Q 1463 219 1931 219 
Q 2303 219 2525 412 
Q 2747 606 2828 997 
L 3291 997 
z
" transform="scale(0.015625)"/>
       <path id="DejaVuSerif-79" d="M 1381 -609 
L 1600 -56 
L 359 2988 
L -19 2988 
L -19 3322 
L 1509 3322 
L 1509 2988 
L 978 2988 
L 1913 703 
L 2847 2988 
L 2350 2988 
L 2350 3322 
L 3597 3322 
L 3597 2988 
L 3225 2988 
L 1703 -750 
Q 1547 -1138 1356 -1280 
Q 1166 -1422 819 -1422 
Q 672 -1422 517 -1397 
Q 363 -1372 206 -1325 
L 206 -691 
L 500 -691 
Q 519 -903 608 -995 
Q 697 -1088 884 -1088 
Q 1056 -1088 1161 -992 
Q 1266 -897 1381 -609 
z
" transform="scale(0.015625)"/>
       <path id="DejaVuSerif-28" d="M 2041 -997 
Q 1281 -656 893 83 
Q 506 822 506 1931 
Q 506 3044 893 3783 
Q 1281 4522 2041 4863 
L 2041 4556 
Q 1559 4225 1350 3623 
Q 1141 3022 1141 1931 
Q 1141 844 1350 242 
Q 1559 -359 2041 -691 
L 2041 -997 
z
" transform="scale(0.015625)"/>
       <path id="DejaVuSerif-2f" d="M 1656 4666 
L 2156 4666 
L 500 -594 
L 0 -594 
L 1656 4666 
z
" transform="scale(0.015625)"/>
       <path id="DejaVuSerif-71" d="M 3359 2988 
L 3359 -997 
L 3909 -997 
L 3909 -1331 
L 2241 -1331 
L 2241 -997 
L 2784 -997 
L 2784 519 
Q 2616 206 2355 57 
Q 2094 -91 1709 -91 
Q 1097 -91 708 395 
Q 319 881 319 1663 
Q 319 2444 706 2928 
Q 1094 3413 1709 3413 
Q 2094 3413 2355 3264 
Q 2616 3116 2784 2803 
L 2784 3322 
L 3909 3322 
L 3909 2988 
L 3359 2988 
z
M 2784 1825 
Q 2784 2422 2554 2737 
Q 2325 3053 1888 3053 
Q 1444 3053 1217 2703 
Q 991 2353 991 1663 
Q 991 975 1217 622 
Q 1444 269 1888 269 
Q 2325 269 2554 583 
Q 2784 897 2784 1497 
L 2784 1825 
z
" transform="scale(0.015625)"/>
       <path id="DejaVuSerif-29" d="M 453 -997 
L 453 -691 
Q 934 -359 1145 242 
Q 1356 844 1356 1931 
Q 1356 3022 1145 3623 
Q 934 4225 453 4556 
L 453 4863 
Q 1216 4522 1603 3783 
Q 1991 3044 1991 1931 
Q 1991 822 1603 83 
Q 1216 -656 453 -997 
z
" transform="scale(0.015625)"/>
      </defs>
      <use xlink:href="#DejaVuSerif-69"/>
      <use xlink:href="#DejaVuSerif-73" transform="translate(31.982422 0)"/>
      <use xlink:href="#DejaVuSerif-6f" transform="translate(83.300781 0)"/>
      <use xlink:href="#DejaVuSerif-6c" transform="translate(143.505859 0)"/>
      <use xlink:href="#DejaVuSerif-61" transform="translate(175.488281 0)"/>
      <use xlink:href="#DejaVuSerif-74" transform="translate(235.107422 0)"/>
      <use xlink:href="#DejaVuSerif-65" transform="translate(275.292969 0)"/>
      <use xlink:href="#DejaVuSerif-64" transform="translate(334.472656 0)"/>
      <use xlink:href="#DejaVuSerif-20" transform="translate(398.486328 0)"/>
      <use xlink:href="#DejaVuSerif-6c" transform="translate(430.273438 0)"/>
      <use xlink:href="#DejaVuSerif-61" transform="translate(462.255859 0)"/>
      <use xlink:href="#DejaVuSerif-74" transform="translate(521.875 0)"/>
      <use xlink:href="#DejaVuSerif-65" transform="translate(562.060547 0)"/>
      <use xlink:href="#DejaVuSerif-6e" transform="translate(621.240234 0)"/>
      <use xlink:href="#DejaVuSerif-63" transform="translate(685.644531 0)"/>
      <use xlink:href="#DejaVuSerif-79" transform="translate(741.650391 0)"/>
      <use xlink:href="#DejaVuSerif-20" transform="translate(798.144531 0)"/>
      <use xlink:href="#DejaVuSerif-28" transform="translate(829.931641 0)"/>
      <use xlink:href="#DejaVuSerif-73" transform="translate(868.945312 0)"/>
      <use xlink:href="#DejaVuSerif-2f" transform="translate(920.263672 0)"/>
      <use xlink:href="#DejaVuSerif-71" transform="translate(953.955078 0)"/>
      <use xlink:href="#DejaVuSerif-75" transform="translate(1017.96875 0)"/>
      <use xlink:href="#DejaVuSerif-65" transform="translate(1082.373047 0)"/>
      <use xlink:href="#DejaVuSerif-72" transform="translate(1141.552734 0)"/>
      <use xlink:href="#DejaVuSerif-79" transform="translate(1189.355469 0)"/>
      <use xlink:href="#DejaVuSerif-29" transform="translate(1245.849609 0)"/>
     </g>
    </g>
   </g>
   <g id="patch_5">
    <path d="M 34.382813 220.176 
L 34.382813 31.68 
" style="fill: none; stroke: #000000; stroke-width: 0.8; stroke-linejoin: miter; stroke-linecap: square"/>
   </g>
   <g id="patch_6">
    <path d="M 34.382813 220.176 
L 380.342813 220.176 
" style="fill: none; stroke: #000000; stroke-width: 0.8; stroke-linejoin: miter; stroke-linecap: square"/>
   </g>
   <g id="text_9">
    <!-- 2.9s -->
    <g style="fill: #0072b2" transform="translate(93.06098 162.912863) scale(0.09 -0.09)">
     <defs>
      <path id="DejaVuSerif-2e" d="M 603 325 
Q 603 500 722 622 
Q 841 744 1019 744 
Q 1191 744 1312 622 
Q 1434 500 1434 325 
Q 1434 153 1312 31 
Q 1191 -91 1019 -91 
Q 841 -91 722 29 
Q 603 150 603 325 
z
" transform="scale(0.015625)"/>
      <path id="DejaVuSerif-39" d="M 2994 2091 
Q 2784 1856 2512 1740 
Q 2241 1625 1900 1625 
Q 1206 1625 804 2044 
Q 403 2463 403 3188 
Q 403 3897 839 4323 
Q 1275 4750 2003 4750 
Q 2794 4750 3217 4161 
Q 3641 3572 3641 2478 
Q 3641 1253 3137 581 
Q 2634 -91 1722 -91 
Q 1475 -91 1203 -44 
Q 931 3 647 97 
L 647 872 
L 997 872 
Q 1038 556 1241 387 
Q 1444 219 1784 219 
Q 2391 219 2687 676 
Q 2984 1134 2994 2091 
z
M 1978 4441 
Q 1534 4441 1298 4117 
Q 1063 3794 1063 3188 
Q 1063 2581 1298 2256 
Q 1534 1931 1978 1931 
Q 2422 1931 2658 2245 
Q 2894 2559 2894 3150 
Q 2894 3772 2656 4106 
Q 2419 4441 1978 4441 
z
" transform="scale(0.015625)"/>
     </defs>
     <use xlink:href="#DejaVuSerif-32"/>
     <use xlink:href="#DejaVuSerif-2e" transform="translate(63.623047 0)"/>
     <use xlink:href="#DejaVuSerif-39" transform="translate(95.410156 0)"/>
     <use xlink:href="#DejaVuSerif-73" transform="translate(159.033203 0)"/>
    </g>
   </g>
   <g id="text_10">
    <!-- 7.0s -->
    <g style="fill: #0072b2" transform="translate(302.733707 83.987301) scale(0.09 -0.09)">
     <defs>
      <path id="DejaVuSerif-37" d="M 3609 4347 
L 1784 0 
L 1319 0 
L 3059 4153 
L 903 4153 
L 903 3578 
L 538 3578 
L 538 4666 
L 3609 4666 
L 3609 4347 
z
" transform="scale(0.015625)"/>
     </defs>
     <use xlink:href="#DejaVuSerif-37"/>
     <use xlink:href="#DejaVuSerif-2e" transform="translate(63.623047 0)"/>
     <use xlink:href="#DejaVuSerif-30" transform="translate(95.410156 0)"/>
     <use xlink:href="#DejaVuSerif-73" transform="translate(159.033203 0)"/>
    </g>
   </g>
  </g>
  <g id="axes_2">
   <g id="matplotlib.axis_3">
    <g id="ytick_6">
     <g id="line2d_8">
      <defs>
       <path id="m657deb9ee8" d="M 0 0 
L 3.5 0 
" style="stroke: #000000; stroke-width: 0.8"/>
      </defs>
      <g>
       <use xlink:href="#m657deb9ee8" x="380.342813" y="220.176" style="stroke: #000000; stroke-width: 0.8"/>
      </g>
     </g>
     <g id="text_11">
      <!-- 0.45 -->
      <g transform="translate(387.342813 223.975219) scale(0.1 -0.1)">
       <defs>
        <path id="DejaVuSerif-35" d="M 3219 4666 
L 3219 4153 
L 1081 4153 
L 1081 2816 
Q 1244 2928 1461 2984 
Q 1678 3041 1947 3041 
Q 2703 3041 3140 2622 
Q 3578 2203 3578 1478 
Q 3578 738 3136 323 
Q 2694 -91 1894 -91 
Q 1572 -91 1234 -12 
Q 897 66 544 225 
L 544 1131 
L 897 1131 
Q 925 688 1179 453 
Q 1434 219 1894 219 
Q 2388 219 2653 544 
Q 2919 869 2919 1478 
Q 2919 2084 2655 2407 
Q 2391 2731 1894 2731 
Q 1613 2731 1398 2631 
Q 1184 2531 1019 2322 
L 750 2322 
L 750 4666 
L 3219 4666 
z
" transform="scale(0.015625)"/>
       </defs>
       <use xlink:href="#DejaVuSerif-30"/>
       <use xlink:href="#DejaVuSerif-2e" transform="translate(63.623047 0)"/>
       <use xlink:href="#DejaVuSerif-34" transform="translate(95.410156 0)"/>
       <use xlink:href="#DejaVuSerif-35" transform="translate(159.033203 0)"/>
      </g>
     </g>
    </g>
    <g id="ytick_7">
     <g id="line2d_9">
      <g>
       <use xlink:href="#m657deb9ee8" x="380.342813" y="191.616" style="stroke: #000000; stroke-width: 0.8"/>
      </g>
     </g>
     <g id="text_12">
      <!-- 0.50 -->
      <g transform="translate(387.342813 195.415219) scale(0.1 -0.1)">
       <use xlink:href="#DejaVuSerif-30"/>
       <use xlink:href="#DejaVuSerif-2e" transform="translate(63.623047 0)"/>
       <use xlink:href="#DejaVuSerif-35" transform="translate(95.410156 0)"/>
       <use xlink:href="#DejaVuSerif-30" transform="translate(159.033203 0)"/>
      </g>
     </g>
    </g>
    <g id="ytick_8">
     <g id="line2d_10">
      <g>
       <use xlink:href="#m657deb9ee8" x="380.342813" y="163.056" style="stroke: #000000; stroke-width: 0.8"/>
      </g>
     </g>
     <g id="text_13">
      <!-- 0.55 -->
      <g transform="translate(387.342813 166.855219) scale(0.1 -0.1)">
       <use xlink:href="#DejaVuSerif-30"/>
       <use xlink:href="#DejaVuSerif-2e" transform="translate(63.623047 0)"/>
       <use xlink:href="#DejaVuSerif-35" transform="translate(95.410156 0)"/>
       <use xlink:href="#DejaVuSerif-35" transform="translate(159.033203 0)"/>
      </g>
     </g>
    </g>
    <g id="ytick_9">
     <g id="line2d_11">
      <g>
       <use xlink:href="#m657deb9ee8" x="380.342813" y="134.496" style="stroke: #000000; stroke-width: 0.8"/>
      </g>
     </g>
     <g id="text_14">
      <!-- 0.60 -->
      <g transform="translate(387.342813 138.295219) scale(0.1 -0.1)">
       <use xlink:href="#DejaVuSerif-30"/>
       <use xlink:href="#DejaVuSerif-2e" transform="translate(63.623047 0)"/>
       <use xlink:href="#DejaVuSerif-36" transform="translate(95.410156 0)"/>
       <use xlink:href="#DejaVuSerif-30" transform="translate(159.033203 0)"/>
      </g>
     </g>
    </g>
    <g id="ytick_10">
     <g id="line2d_12">
      <g>
       <use xlink:href="#m657deb9ee8" x="380.342813" y="105.936" style="stroke: #000000; stroke-width: 0.8"/>
      </g>
     </g>
     <g id="text_15">
      <!-- 0.65 -->
      <g transform="translate(387.342813 109.735219) scale(0.1 -0.1)">
       <use xlink:href="#DejaVuSerif-30"/>
       <use xlink:href="#DejaVuSerif-2e" transform="translate(63.623047 0)"/>
       <use xlink:href="#DejaVuSerif-36" transform="translate(95.410156 0)"/>
       <use xlink:href="#DejaVuSerif-35" transform="translate(159.033203 0)"/>
      </g>
     </g>
    </g>
    <g id="ytick_11">
     <g id="line2d_13">
      <g>
       <use xlink:href="#m657deb9ee8" x="380.342813" y="77.376" style="stroke: #000000; stroke-width: 0.8"/>
      </g>
     </g>
     <g id="text_16">
      <!-- 0.70 -->
      <g transform="translate(387.342813 81.175219) scale(0.1 -0.1)">
       <use xlink:href="#DejaVuSerif-30"/>
       <use xlink:href="#DejaVuSerif-2e" transform="translate(63.623047 0)"/>
       <use xlink:href="#DejaVuSerif-37" transform="translate(95.410156 0)"/>
       <use xlink:href="#DejaVuSerif-30" transform="translate(159.033203 0)"/>
      </g>
     </g>
    </g>
    <g id="ytick_12">
     <g id="line2d_14">
      <g>
       <use xlink:href="#m657deb9ee8" x="380.342813" y="48.816" style="stroke: #000000; stroke-width: 0.8"/>
      </g>
     </g>
     <g id="text_17">
      <!-- 0.75 -->
      <g transform="translate(387.342813 52.615219) scale(0.1 -0.1)">
       <use xlink:href="#DejaVuSerif-30"/>
       <use xlink:href="#DejaVuSerif-2e" transform="translate(63.623047 0)"/>
       <use xlink:href="#DejaVuSerif-37" transform="translate(95.410156 0)"/>
       <use xlink:href="#DejaVuSerif-35" transform="translate(159.033203 0)"/>
      </g>
     </g>
    </g>
    <g id="text_18">
     <!-- MU quadratic-weighted κ -->
     <g style="fill: #d55e00" transform="translate(421.206875 191.066281) rotate(-90) scale(0.1 -0.1)">
      <defs>
       <path id="DejaVuSerif-4d" d="M 353 0 
L 353 331 
L 947 331 
L 947 4331 
L 319 4331 
L 319 4666 
L 1678 4666 
L 3316 1344 
L 4953 4666 
L 6228 4666 
L 6228 4331 
L 5606 4331 
L 5606 331 
L 6203 331 
L 6203 0 
L 4378 0 
L 4378 331 
L 4972 331 
L 4972 3938 
L 3372 684 
L 2931 684 
L 1331 3938 
L 1331 331 
L 1925 331 
L 1925 0 
L 353 0 
z
" transform="scale(0.015625)"/>
       <path id="DejaVuSerif-55" d="M 897 4331 
L 300 4331 
L 300 4666 
L 2125 4666 
L 2125 4331 
L 1528 4331 
L 1528 1919 
Q 1528 1025 1820 672 
Q 2113 319 2828 319 
Q 3544 319 3836 672 
Q 4128 1025 4128 1919 
L 4128 4331 
L 3531 4331 
L 3531 4666 
L 5106 4666 
L 5106 4331 
L 4513 4331 
L 4513 1856 
Q 4513 791 4103 350 
Q 3694 -91 2713 -91 
Q 1731 -91 1314 353 
Q 897 797 897 1856 
L 897 4331 
z
" transform="scale(0.015625)"/>
       <path id="DejaVuSerif-2d" d="M 281 1959 
L 1881 1959 
L 1881 1472 
L 281 1472 
L 281 1959 
z
" transform="scale(0.015625)"/>
       <path id="DejaVuSerif-68" d="M 263 0 
L 263 331 
L 781 331 
L 781 4531 
L 231 4531 
L 231 4863 
L 1356 4863 
L 1356 2731 
Q 1516 3069 1770 3241 
Q 2025 3413 2363 3413 
Q 2913 3413 3172 3097 
Q 3431 2781 3431 2113 
L 3431 331 
L 3944 331 
L 3944 0 
L 2356 0 
L 2356 331 
L 2853 331 
L 2853 1931 
Q 2853 2541 2704 2764 
Q 2556 2988 2175 2988 
Q 1775 2988 1565 2697 
Q 1356 2406 1356 1850 
L 1356 331 
L 1856 331 
L 1856 0 
L 263 0 
z
" transform="scale(0.015625)"/>
       <path id="DejaVuSerif-3ba" d="M 1831 3322 
L 1831 2991 
L 1313 2991 
L 1313 1697 
L 2713 2991 
L 2234 2991 
L 2234 3322 
L 3738 3322 
L 3738 2991 
L 3169 2991 
L 2181 2075 
L 3444 331 
L 3922 331 
L 3922 0 
L 2284 0 
L 2284 331 
L 2759 331 
L 1766 1697 
L 1313 1275 
L 1313 331 
L 1831 331 
L 1831 0 
L 219 0 
L 219 331 
L 738 331 
L 738 2991 
L 219 2991 
L 219 3322 
L 1831 3322 
z
" transform="scale(0.015625)"/>
      </defs>
      <use xlink:href="#DejaVuSerif-4d"/>
      <use xlink:href="#DejaVuSerif-55" transform="translate(102.392578 0)"/>
      <use xlink:href="#DejaVuSerif-20" transform="translate(186.669922 0)"/>
      <use xlink:href="#DejaVuSerif-71" transform="translate(218.457031 0)"/>
      <use xlink:href="#DejaVuSerif-75" transform="translate(282.470703 0)"/>
      <use xlink:href="#DejaVuSerif-61" transform="translate(346.875 0)"/>
      <use xlink:href="#DejaVuSerif-64" transform="translate(406.494141 0)"/>
      <use xlink:href="#DejaVuSerif-72" transform="translate(470.507812 0)"/>
      <use xlink:href="#DejaVuSerif-61" transform="translate(518.310547 0)"/>
      <use xlink:href="#DejaVuSerif-74" transform="translate(577.929688 0)"/>
      <use xlink:href="#DejaVuSerif-69" transform="translate(618.115234 0)"/>
      <use xlink:href="#DejaVuSerif-63" transform="translate(650.097656 0)"/>
      <use xlink:href="#DejaVuSerif-2d" transform="translate(706.103516 0)"/>
      <use xlink:href="#DejaVuSerif-77" transform="translate(739.892578 0)"/>
      <use xlink:href="#DejaVuSerif-65" transform="translate(825.488281 0)"/>
      <use xlink:href="#DejaVuSerif-69" transform="translate(884.667969 0)"/>
      <use xlink:href="#DejaVuSerif-67" transform="translate(916.650391 0)"/>
      <use xlink:href="#DejaVuSerif-68" transform="translate(980.664062 0)"/>
      <use xlink:href="#DejaVuSerif-74" transform="translate(1045.068359 0)"/>
      <use xlink:href="#DejaVuSerif-65" transform="translate(1085.253906 0)"/>
      <use xlink:href="#DejaVuSerif-64" transform="translate(1144.433594 0)"/>
      <use xlink:href="#DejaVuSerif-20" transform="translate(1208.447266 0)"/>
      <use xlink:href="#DejaVuSerif-3ba" transform="translate(1240.234375 0)"/>
     </g>
    </g>
   </g>
   <g id="line2d_15">
    <path d="M 102.526449 112.163368 
L 312.199176 162.381354 
" clip-path="url(#p7d17781610)" style="fill: none; stroke: #d55e00; stroke-width: 2; stroke-linecap: square"/>
    <defs>
     <path id="mb349a71253" d="M 0 3 
C 0.795609 3 1.55874 2.683901 2.12132 2.12132 
C 2.683901 1.55874 3 0.795609 3 0 
C 3 -0.795609 2.683901 -1.55874 2.12132 -2.12132 
C 1.55874 -2.683901 0.795609 -3 0 -3 
C -0.795609 -3 -1.55874 -2.683901 -2.12132 -2.12132 
C -2.683901 -1.55874 -3 -0.795609 -3 0 
C -3 0.795609 -2.683901 1.55874 -2.12132 2.12132 
C -1.55874 2.683901 -0.795609 3 0 3 
z
" style="stroke: #d55e00"/>
    </defs>
    <g clip-path="url(#p7d17781610)">
     <use xlink:href="#mb349a71253" x="102.526449" y="112.163368" style="fill: #d55e00; stroke: #d55e00"/>
     <use xlink:href="#mb349a71253" x="312.199176" y="162.381354" style="fill: #d55e00; stroke: #d55e00"/>
    </g>
   </g>
   <g id="patch_7">
    <path d="M 34.382813 220.176 
L 34.382813 31.68 
" style="fill: none; stroke: #000000; stroke-width: 0.8; stroke-linejoin: miter; stroke-linecap: square"/>
   </g>
   <g id="patch_8">
    <path d="M 34.382813 220.176 
L 380.342813 220.176 
" style="fill: none; stroke: #000000; stroke-width: 0.8; stroke-linejoin: miter; stroke-linecap: square"/>
   </g>
   <g id="text_19">
    <!-- κ 0.64 · 8/28 emerg. missed -->
    <g style="fill: #d55e00" transform="translate(42.608089 102.163368) scale(0.085 -0.085)">
     <defs>
      <path id="DejaVuSerif-b7" d="M 594 2222 
Q 594 2397 714 2517 
Q 834 2638 1013 2638 
Q 1184 2638 1306 2516 
Q 1428 2394 1428 2222 
Q 1428 2047 1306 1926 
Q 1184 1806 1013 1806 
Q 834 1806 714 1925 
Q 594 2044 594 2222 
z
" transform="scale(0.015625)"/>
     </defs>
     <use xlink:href="#DejaVuSerif-3ba"/>
     <use xlink:href="#DejaVuSerif-20" transform="translate(62.5 0)"/>
     <use xlink:href="#DejaVuSerif-30" transform="translate(94.287109 0)"/>
     <use xlink:href="#DejaVuSerif-2e" transform="translate(157.910156 0)"/>
     <use xlink:href="#DejaVuSerif-36" transform="translate(189.697266 0)"/>
     <use xlink:href="#DejaVuSerif-34" transform="translate(253.320312 0)"/>
     <use xlink:href="#DejaVuSerif-20" transform="translate(316.943359 0)"/>
     <use xlink:href="#DejaVuSerif-b7" transform="translate(348.730469 0)"/>
     <use xlink:href="#DejaVuSerif-20" transform="translate(380.517578 0)"/>
     <use xlink:href="#DejaVuSerif-38" transform="translate(412.304688 0)"/>
     <use xlink:href="#DejaVuSerif-2f" transform="translate(475.927734 0)"/>
     <use xlink:href="#DejaVuSerif-32" transform="translate(509.619141 0)"/>
     <use xlink:href="#DejaVuSerif-38" transform="translate(573.242188 0)"/>
     <use xlink:href="#DejaVuSerif-20" transform="translate(636.865234 0)"/>
     <use xlink:href="#DejaVuSerif-65" transform="translate(668.652344 0)"/>
     <use xlink:href="#DejaVuSerif-6d" transform="translate(727.832031 0)"/>
     <use xlink:href="#DejaVuSerif-65" transform="translate(822.65625 0)"/>
     <use xlink:href="#DejaVuSerif-72" transform="translate(881.835938 0)"/>
     <use xlink:href="#DejaVuSerif-67" transform="translate(929.638672 0)"/>
     <use xlink:href="#DejaVuSerif-2e" transform="translate(993.652344 0)"/>
     <use xlink:href="#DejaVuSerif-20" transform="translate(1025.439453 0)"/>
     <use xlink:href="#DejaVuSerif-6d" transform="translate(1057.226562 0)"/>
     <use xlink:href="#DejaVuSerif-69" transform="translate(1152.050781 0)"/>
     <use xlink:href="#DejaVuSerif-73" transform="translate(1184.033203 0)"/>
     <use xlink:href="#DejaVuSerif-73" transform="translate(1235.351562 0)"/>
     <use xlink:href="#DejaVuSerif-65" transform="translate(1286.669922 0)"/>
     <use xlink:href="#DejaVuSerif-64" transform="translate(1345.849609 0)"/>
    </g>
   </g>
   <g id="text_20">
    <!-- κ 0.55 · 12/28 emerg. missed -->
    <g style="fill: #d55e00" transform="translate(249.576754 152.381354) scale(0.085 -0.085)">
     <defs>
      <path id="DejaVuSerif-31" d="M 909 0 
L 909 331 
L 1722 331 
L 1722 4213 
L 781 3603 
L 781 4013 
L 1919 4750 
L 2350 4750 
L 2350 331 
L 3163 331 
L 3163 0 
L 909 0 
z
" transform="scale(0.015625)"/>
     </defs>
     <use xlink:href="#DejaVuSerif-3ba"/>
     <use xlink:href="#DejaVuSerif-20" transform="translate(62.5 0)"/>
     <use xlink:href="#DejaVuSerif-30" transform="translate(94.287109 0)"/>
     <use xlink:href="#DejaVuSerif-2e" transform="translate(157.910156 0)"/>
     <use xlink:href="#DejaVuSerif-35" transform="translate(189.697266 0)"/>
     <use xlink:href="#DejaVuSerif-35" transform="translate(253.320312 0)"/>
     <use xlink:href="#DejaVuSerif-20" transform="translate(316.943359 0)"/>
     <use xlink:href="#DejaVuSerif-b7" transform="translate(348.730469 0)"/>
     <use xlink:href="#DejaVuSerif-20" transform="translate(380.517578 0)"/>
     <use xlink:href="#DejaVuSerif-31" transform="translate(412.304688 0)"/>
     <use xlink:href="#DejaVuSerif-32" transform="translate(475.927734 0)"/>
     <use xlink:href="#DejaVuSerif-2f" transform="translate(539.550781 0)"/>
     <use xlink:href="#DejaVuSerif-32" transform="translate(573.242188 0)"/>
     <use xlink:href="#DejaVuSerif-38" transform="translate(636.865234 0)"/>
     <use xlink:href="#DejaVuSerif-20" transform="translate(700.488281 0)"/>
     <use xlink:href="#DejaVuSerif-65" transform="translate(732.275391 0)"/>
     <use xlink:href="#DejaVuSerif-6d" transform="translate(791.455078 0)"/>
     <use xlink:href="#DejaVuSerif-65" transform="translate(886.279297 0)"/>
     <use xlink:href="#DejaVuSerif-72" transform="translate(945.458984 0)"/>
     <use xlink:href="#DejaVuSerif-67" transform="translate(993.261719 0)"/>
     <use xlink:href="#DejaVuSerif-2e" transform="translate(1057.275391 0)"/>
     <use xlink:href="#DejaVuSerif-20" transform="translate(1089.0625 0)"/>
     <use xlink:href="#DejaVuSerif-6d" transform="translate(1120.849609 0)"/>
     <use xlink:href="#DejaVuSerif-69" transform="translate(1215.673828 0)"/>
     <use xlink:href="#DejaVuSerif-73" transform="translate(1247.65625 0)"/>
     <use xlink:href="#DejaVuSerif-73" transform="translate(1298.974609 0)"/>
     <use xlink:href="#DejaVuSerif-65" transform="translate(1350.292969 0)"/>
     <use xlink:href="#DejaVuSerif-64" transform="translate(1409.472656 0)"/>
    </g>
   </g>
  </g>
  <g id="text_21">
   <!-- More reasoning → higher latency AND worse emergency recall -->
   <g transform="translate(33.681914 15.178359) scale(0.105 -0.105)">
    <defs>
     <path id="DejaVuSerif-2192" d="M 366 2322 
L 4391 2322 
L 3788 3375 
L 3822 3375 
L 5125 2084 
L 5125 2053 
L 3822 763 
L 3788 763 
L 4391 1816 
L 366 1816 
L 366 2322 
z
" transform="scale(0.015625)"/>
     <path id="DejaVuSerif-41" d="M 1281 1691 
L 2994 1691 
L 2138 3909 
L 1281 1691 
z
M -38 0 
L -38 331 
L 372 331 
L 2034 4666 
L 2559 4666 
L 4225 331 
L 4684 331 
L 4684 0 
L 2988 0 
L 2988 331 
L 3506 331 
L 3116 1356 
L 1153 1356 
L 763 331 
L 1275 331 
L 1275 0 
L -38 0 
z
" transform="scale(0.015625)"/>
     <path id="DejaVuSerif-4e" d="M 313 0 
L 313 331 
L 941 331 
L 941 4331 
L 313 4331 
L 313 4666 
L 1509 4666 
L 4306 984 
L 4306 4331 
L 3681 4331 
L 3681 4666 
L 5319 4666 
L 5319 4331 
L 4691 4331 
L 4691 -91 
L 4313 -91 
L 1325 3841 
L 1325 331 
L 1953 331 
L 1953 0 
L 313 0 
z
" transform="scale(0.015625)"/>
     <path id="DejaVuSerif-44" d="M 1581 331 
L 2163 331 
Q 3072 331 3558 850 
Q 4044 1369 4044 2338 
Q 4044 3306 3559 3818 
Q 3075 4331 2163 4331 
L 1581 4331 
L 1581 331 
z
M 353 0 
L 353 331 
L 947 331 
L 947 4331 
L 353 4331 
L 353 4666 
L 2209 4666 
Q 3416 4666 4089 4050 
Q 4763 3434 4763 2338 
Q 4763 1238 4088 619 
Q 3413 0 2209 0 
L 353 0 
z
" transform="scale(0.015625)"/>
    </defs>
    <use xlink:href="#DejaVuSerif-4d"/>
    <use xlink:href="#DejaVuSerif-6f" transform="translate(102.392578 0)"/>
    <use xlink:href="#DejaVuSerif-72" transform="translate(162.597656 0)"/>
    <use xlink:href="#DejaVuSerif-65" transform="translate(210.400391 0)"/>
    <use xlink:href="#DejaVuSerif-20" transform="translate(269.580078 0)"/>
    <use xlink:href="#DejaVuSerif-72" transform="translate(301.367188 0)"/>
    <use xlink:href="#DejaVuSerif-65" transform="translate(349.169922 0)"/>
    <use xlink:href="#DejaVuSerif-61" transform="translate(408.349609 0)"/>
    <use xlink:href="#DejaVuSerif-73" transform="translate(467.96875 0)"/>
    <use xlink:href="#DejaVuSerif-6f" transform="translate(519.287109 0)"/>
    <use xlink:href="#DejaVuSerif-6e" transform="translate(579.492188 0)"/>
    <use xlink:href="#DejaVuSerif-69" transform="translate(643.896484 0)"/>
    <use xlink:href="#DejaVuSerif-6e" transform="translate(675.878906 0)"/>
    <use xlink:href="#DejaVuSerif-67" transform="translate(740.283203 0)"/>
    <use xlink:href="#DejaVuSerif-20" transform="translate(804.296875 0)"/>
    <use xlink:href="#DejaVuSerif-2192" transform="translate(836.083984 0)"/>
    <use xlink:href="#DejaVuSerif-20" transform="translate(919.873047 0)"/>
    <use xlink:href="#DejaVuSerif-68" transform="translate(951.660156 0)"/>
    <use xlink:href="#DejaVuSerif-69" transform="translate(1016.064453 0)"/>
    <use xlink:href="#DejaVuSerif-67" transform="translate(1048.046875 0)"/>
    <use xlink:href="#DejaVuSerif-68" transform="translate(1112.060547 0)"/>
    <use xlink:href="#DejaVuSerif-65" transform="translate(1176.464844 0)"/>
    <use xlink:href="#DejaVuSerif-72" transform="translate(1235.644531 0)"/>
    <use xlink:href="#DejaVuSerif-20" transform="translate(1283.447266 0)"/>
    <use xlink:href="#DejaVuSerif-6c" transform="translate(1315.234375 0)"/>
    <use xlink:href="#DejaVuSerif-61" transform="translate(1347.216797 0)"/>
    <use xlink:href="#DejaVuSerif-74" transform="translate(1406.835938 0)"/>
    <use xlink:href="#DejaVuSerif-65" transform="translate(1447.021484 0)"/>
    <use xlink:href="#DejaVuSerif-6e" transform="translate(1506.201172 0)"/>
    <use xlink:href="#DejaVuSerif-63" transform="translate(1570.605469 0)"/>
    <use xlink:href="#DejaVuSerif-79" transform="translate(1626.611328 0)"/>
    <use xlink:href="#DejaVuSerif-20" transform="translate(1683.105469 0)"/>
    <use xlink:href="#DejaVuSerif-41" transform="translate(1714.892578 0)"/>
    <use xlink:href="#DejaVuSerif-4e" transform="translate(1787.109375 0)"/>
    <use xlink:href="#DejaVuSerif-44" transform="translate(1874.609375 0)"/>
    <use xlink:href="#DejaVuSerif-20" transform="translate(1954.785156 0)"/>
    <use xlink:href="#DejaVuSerif-77" transform="translate(1986.572266 0)"/>
    <use xlink:href="#DejaVuSerif-6f" transform="translate(2072.167969 0)"/>
    <use xlink:href="#DejaVuSerif-72" transform="translate(2132.373047 0)"/>
    <use xlink:href="#DejaVuSerif-73" transform="translate(2180.175781 0)"/>
    <use xlink:href="#DejaVuSerif-65" transform="translate(2231.494141 0)"/>
    <use xlink:href="#DejaVuSerif-20" transform="translate(2290.673828 0)"/>
    <use xlink:href="#DejaVuSerif-65" transform="translate(2322.460938 0)"/>
    <use xlink:href="#DejaVuSerif-6d" transform="translate(2381.640625 0)"/>
    <use xlink:href="#DejaVuSerif-65" transform="translate(2476.464844 0)"/>
    <use xlink:href="#DejaVuSerif-72" transform="translate(2535.644531 0)"/>
    <use xlink:href="#DejaVuSerif-67" transform="translate(2583.447266 0)"/>
    <use xlink:href="#DejaVuSerif-65" transform="translate(2647.460938 0)"/>
    <use xlink:href="#DejaVuSerif-6e" transform="translate(2706.640625 0)"/>
    <use xlink:href="#DejaVuSerif-63" transform="translate(2771.044922 0)"/>
    <use xlink:href="#DejaVuSerif-79" transform="translate(2827.050781 0)"/>
    <use xlink:href="#DejaVuSerif-20" transform="translate(2883.544922 0)"/>
    <use xlink:href="#DejaVuSerif-72" transform="translate(2915.332031 0)"/>
    <use xlink:href="#DejaVuSerif-65" transform="translate(2963.134766 0)"/>
    <use xlink:href="#DejaVuSerif-63" transform="translate(3022.314453 0)"/>
    <use xlink:href="#DejaVuSerif-61" transform="translate(3078.320312 0)"/>
    <use xlink:href="#DejaVuSerif-6c" transform="translate(3137.939453 0)"/>
    <use xlink:href="#DejaVuSerif-6c" transform="translate(3169.921875 0)"/>
   </g>
  </g>
 </g>
 <defs>
  <clipPath id="p7d17781610">
   <rect x="34.382813" y="31.68" width="345.96" height="188.496"/>
  </clipPath>
 </defs>
</svg>
