<?xml version="1.0" encoding="utf-8" standalone="no"?>
<!DOCTYPE svg PUBLIC "-//W3C//DTD SVG 1.1//EN"
  "http://www.w3.org/Graphics/SVG/1.1/DTD/svg11.dtd">
<svg xmlns:xlink="http://www.w3.org/1999/xlink" width="1556.452734pt" height="244.196312pt" viewBox="0 0 1556.452734 244.196312" xmlns="http://www.w3.org/2000/svg" version="1.1">
 <metadata>
  <rdf:RDF xmlns:dc="http://purl.org/dc/elements/1.1/" xmlns:cc="http://creativecommons.org/ns#" xmlns:rdf="http://www.w3.org/1999/02/22-rdf-syntax-ns#">
   <cc:Work>
    <dc:type rdf:resource="http://purl.org/dc/dcmitype/StillImage"/>
    <dc:date>2026-06-07T01:31:49.876846</dc:date>
    <dc:format>image/svg+xml</dc:format>
    <dc:creator>
     <cc:Agent>
      <dc:title>Matplotlib v3.10.8, https://matplotlib.org/</dc:title>
     </cc:Agent>
    </dc:creator>
   </cc:Work>
  </rdf:RDF>
 </metadata>
 <defs>
  <style type="text/css">*{stroke-linejoin: round; stroke-linecap: butt}</style>
 </defs>
 <g id="figure_1">
  <g id="patch_1">
   <path d="M 0 244.196312 
L 1556.452734 244.196312 
L 1556.452734 -0 
L 0 -0 
z
" style="fill: #ffffff"/>
  </g>
  <g id="axes_1">
   <g id="patch_2">
    <path d="M 509.371822 220.176 
L 844.171822 220.176 
L 844.171822 31.68 
L 509.371822 31.68 
z
" style="fill: #ffffff"/>
   </g>
   <g id="patch_3">
    <path d="M 524.590004 220.176 
L 626.044549 220.176 
L 626.044549 164.461561 
L 524.590004 164.461561 
z
" clip-path="url(#p29d3c40f67)" style="fill: #56b4e9; opacity: 0.85"/>
   </g>
   <g id="patch_4">
    <path d="M 727.499094 220.176 
L 828.95364 220.176 
L 828.95364 85.536 
L 727.499094 85.536 
z
" clip-path="url(#p29d3c40f67)" style="fill: #56b4e9; opacity: 0.85"/>
   </g>
   <g id="matplotlib.axis_1">
    <g id="xtick_1">
     <g id="line2d_1">
      <defs>
       <path id="m8c3edd4f08" d="M 0 0 
L 0 3.5 
" style="stroke: #000000; stroke-width: 0.8"/>
      </defs>
      <g>
       <use xlink:href="#m8c3edd4f08" x="575.317276" y="220.176" style="stroke: #000000; stroke-width: 0.8"/>
      </g>
     </g>
     <g id="text_1">
      <!-- low reasoning -->
      <g transform="translate(539.692276 234.774437) scale(0.1 -0.1)">
       <defs>
        <path id="DejaVuSerif-6c" d="M 1313 331 
L 1856 331 
L 1856 0 
L 184 0 
L 184 331 
L 738 331 
L 738 4531 
L 184 4531 
L 184 4863 
L 1313 4863 
L 1313 331 
z
" transform="scale(0.015625)"/>
        <path id="DejaVuSerif-6f" d="M 1925 219 
Q 2388 219 2623 584 
Q 2859 950 2859 1663 
Q 2859 2375 2623 2739 
Q 2388 3103 1925 3103 
Q 1463 3103 1227 2739 
Q 991 2375 991 1663 
Q 991 950 1228 584 
Q 1466 219 1925 219 
z
M 1925 -91 
Q 1200 -91 759 389 
Q 319 869 319 1663 
Q 319 2456 758 2934 
Q 1197 3413 1925 3413 
Q 2653 3413 3092 2934 
Q 3531 2456 3531 1663 
Q 3531 869 3092 389 
Q 2653 -91 1925 -91 
z
" transform="scale(0.015625)"/>
        <path id="DejaVuSerif-77" d="M 3072 3322 
L 3922 728 
L 4672 2988 
L 4191 2988 
L 4191 3322 
L 5394 3322 
L 5394 2988 
L 5025 2988 
L 4038 0 
L 3559 0 
L 2741 2484 
L 1919 0 
L 1459 0 
L 475 2988 
L 103 2988 
L 103 3322 
L 1606 3322 
L 1606 2988 
L 1069 2988 
L 1813 728 
L 2669 3322 
L 3072 3322 
z
" transform="scale(0.015625)"/>
        <path id="DejaVuSerif-20" transform="scale(0.015625)"/>
        <path id="DejaVuSerif-72" d="M 3059 3328 
L 3059 2497 
L 2728 2497 
Q 2713 2744 2591 2866 
Q 2469 2988 2234 2988 
Q 1809 2988 1582 2694 
Q 1356 2400 1356 1850 
L 1356 331 
L 2022 331 
L 2022 0 
L 263 0 
L 263 331 
L 781 331 
L 781 2994 
L 231 2994 
L 231 3322 
L 1356 3322 
L 1356 2731 
Q 1525 3078 1790 3245 
Q 2056 3413 2438 3413 
Q 2578 3413 2733 3391 
Q 2888 3369 3059 3328 
z
" transform="scale(0.015625)"/>
        <path id="DejaVuSerif-65" d="M 3469 1600 
L 991 1600 
L 991 1575 
Q 991 903 1244 561 
Q 1497 219 1991 219 
Q 2369 219 2611 417 
Q 2853 616 2950 1006 
L 3413 1006 
Q 3275 459 2904 184 
Q 2534 -91 1931 -91 
Q 1203 -91 761 389 
Q 319 869 319 1663 
Q 319 2450 753 2931 
Q 1188 3413 1894 3413 
Q 2647 3413 3050 2948 
Q 3453 2484 3469 1600 
z
M 2791 1931 
Q 2772 2513 2545 2808 
Q 2319 3103 1894 3103 
Q 1497 3103 1269 2806 
Q 1041 2509 991 1931 
L 2791 1931 
z
" transform="scale(0.015625)"/>
        <path id="DejaVuSerif-61" d="M 2547 1044 
L 2547 1747 
L 1806 1747 
Q 1378 1747 1168 1562 
Q 959 1378 959 997 
Q 959 650 1171 447 
Q 1384 244 1747 244 
Q 2106 244 2326 466 
Q 2547 688 2547 1044 
z
M 3122 2075 
L 3122 331 
L 3634 331 
L 3634 0 
L 2547 0 
L 2547 359 
Q 2356 128 2106 18 
Q 1856 -91 1522 -91 
Q 969 -91 644 203 
Q 319 497 319 997 
Q 319 1513 691 1797 
Q 1063 2081 1741 2081 
L 2547 2081 
L 2547 2309 
Q 2547 2688 2317 2895 
Q 2088 3103 1672 3103 
Q 1328 3103 1125 2947 
Q 922 2791 872 2484 
L 575 2484 
L 575 3156 
Q 875 3284 1158 3348 
Q 1441 3413 1709 3413 
Q 2400 3413 2761 3070 
Q 3122 2728 3122 2075 
z
" transform="scale(0.015625)"/>
        <path id="DejaVuSerif-73" d="M 359 184 
L 359 959 
L 691 959 
Q 703 588 923 403 
Q 1144 219 1575 219 
Q 1963 219 2166 364 
Q 2369 509 2369 788 
Q 2369 1006 2220 1140 
Q 2072 1275 1594 1428 
L 1178 1569 
Q 750 1706 558 1912 
Q 366 2119 366 2438 
Q 366 2894 700 3153 
Q 1034 3413 1625 3413 
Q 1888 3413 2178 3344 
Q 2469 3275 2778 3144 
L 2778 2419 
L 2447 2419 
Q 2434 2741 2221 2922 
Q 2009 3103 1644 3103 
Q 1281 3103 1095 2975 
Q 909 2847 909 2591 
Q 909 2381 1050 2254 
Q 1191 2128 1613 1997 
L 2069 1856 
Q 2541 1709 2748 1489 
Q 2956 1269 2956 922 
Q 2956 450 2595 179 
Q 2234 -91 1600 -91 
Q 1278 -91 972 -22 
Q 666 47 359 184 
z
" transform="scale(0.015625)"/>
        <path id="DejaVuSerif-6e" d="M 263 0 
L 263 331 
L 781 331 
L 781 2988 
L 231 2988 
L 231 3322 
L 1356 3322 
L 1356 2731 
Q 1516 3069 1770 3241 
Q 2025 3413 2363 3413 
Q 2913 3413 3172 3097 
Q 3431 2781 3431 2113 
L 3431 331 
L 3944 331 
L 3944 0 
L 2356 0 
L 2356 331 
L 2853 331 
L 2853 1931 
Q 2853 2541 2703 2767 
Q 2553 2994 2175 2994 
Q 1775 2994 1565 2701 
Q 1356 2409 1356 1850 
L 1356 331 
L 1856 331 
L 1856 0 
L 263 0 
z
" transform="scale(0.015625)"/>
        <path id="DejaVuSerif-69" d="M 622 4353 
Q 622 4497 726 4603 
Q 831 4709 978 4709 
Q 1122 4709 1226 4603 
Q 1331 4497 1331 4353 
Q 1331 4206 1228 4103 
Q 1125 4000 978 4000 
Q 831 4000 726 4103 
Q 622 4206 622 4353 
z
M 1356 331 
L 1900 331 
L 1900 0 
L 231 0 
L 231 331 
L 781 331 
L 781 2988 
L 231 2988 
L 231 3322 
L 1356 3322 
L 1356 331 
z
" transform="scale(0.015625)"/>
        <path id="DejaVuSerif-67" d="M 3359 2988 
L 3359 72 
Q 3359 -644 2965 -1033 
Q 2572 -1422 1844 -1422 
Q 1516 -1422 1216 -1362 
Q 916 -1303 641 -1184 
L 641 -488 
L 941 -488 
Q 997 -813 1206 -963 
Q 1416 -1113 1806 -1113 
Q 2313 -1113 2548 -827 
Q 2784 -541 2784 72 
L 2784 519 
Q 2616 206 2355 57 
Q 2094 -91 1709 -91 
Q 1097 -91 708 395 
Q 319 881 319 1663 
Q 319 2444 706 2928 
Q 1094 3413 1709 3413 
Q 2094 3413 2355 3264 
Q 2616 3116 2784 2803 
L 2784 3322 
L 3909 3322 
L 3909 2988 
L 3359 2988 
z
M 2784 1825 
Q 2784 2422 2554 2737 
Q 2325 3053 1888 3053 
Q 1444 3053 1217 2703 
Q 991 2353 991 1663 
Q 991 975 1217 622 
Q 1444 269 1888 269 
Q 2325 269 2554 583 
Q 2784 897 2784 1497 
L 2784 1825 
z
" transform="scale(0.015625)"/>
       </defs>
       <use xlink:href="#DejaVuSerif-6c"/>
       <use xlink:href="#DejaVuSerif-6f" transform="translate(31.982422 0)"/>
       <use xlink:href="#DejaVuSerif-77" transform="translate(92.1875 0)"/>
       <use xlink:href="#DejaVuSerif-20" transform="translate(177.783203 0)"/>
       <use xlink:href="#DejaVuSerif-72" transform="translate(209.570312 0)"/>
       <use xlink:href="#DejaVuSerif-65" transform="translate(257.373047 0)"/>
       <use xlink:href="#DejaVuSerif-61" transform="translate(316.552734 0)"/>
       <use xlink:href="#DejaVuSerif-73" transform="translate(376.171875 0)"/>
       <use xlink:href="#DejaVuSerif-6f" transform="translate(427.490234 0)"/>
       <use xlink:href="#DejaVuSerif-6e" transform="translate(487.695312 0)"/>
       <use xlink:href="#DejaVuSerif-69" transform="translate(552.099609 0)"/>
       <use xlink:href="#DejaVuSerif-6e" transform="translate(584.082031 0)"/>
       <use xlink:href="#DejaVuSerif-67" transform="translate(648.486328 0)"/>
      </g>
     </g>
    </g>
    <g id="xtick_2">
     <g id="line2d_2">
      <g>
       <use xlink:href="#m8c3edd4f08" x="778.226367" y="220.176" style="stroke: #000000; stroke-width: 0.8"/>
      </g>
     </g>
     <g id="text_2">
      <!-- medium reasoning -->
      <g transform="translate(731.02793 234.774437) scale(0.1 -0.1)">
       <defs>
        <path id="DejaVuSerif-6d" d="M 3316 2675 
Q 3481 3041 3739 3227 
Q 3997 3413 4341 3413 
Q 4863 3413 5119 3089 
Q 5375 2766 5375 2113 
L 5375 331 
L 5894 331 
L 5894 0 
L 4300 0 
L 4300 331 
L 4800 331 
L 4800 2047 
Q 4800 2556 4650 2772 
Q 4500 2988 4153 2988 
Q 3769 2988 3567 2697 
Q 3366 2406 3366 1850 
L 3366 331 
L 3866 331 
L 3866 0 
L 2291 0 
L 2291 331 
L 2791 331 
L 2791 2069 
Q 2791 2566 2641 2777 
Q 2491 2988 2144 2988 
Q 1759 2988 1557 2697 
Q 1356 2406 1356 1850 
L 1356 331 
L 1856 331 
L 1856 0 
L 263 0 
L 263 331 
L 781 331 
L 781 2994 
L 231 2994 
L 231 3322 
L 1356 3322 
L 1356 2731 
Q 1516 3063 1762 3238 
Q 2009 3413 2322 3413 
Q 2709 3413 2968 3220 
Q 3228 3028 3316 2675 
z
" transform="scale(0.015625)"/>
        <path id="DejaVuSerif-64" d="M 3359 331 
L 3909 331 
L 3909 0 
L 2784 0 
L 2784 519 
Q 2616 206 2355 57 
Q 2094 -91 1709 -91 
Q 1097 -91 708 395 
Q 319 881 319 1663 
Q 319 2444 706 2928 
Q 1094 3413 1709 3413 
Q 2094 3413 2355 3264 
Q 2616 3116 2784 2803 
L 2784 4531 
L 2241 4531 
L 2241 4863 
L 3359 4863 
L 3359 331 
z
M 2784 1497 
L 2784 1825 
Q 2784 2422 2554 2737 
Q 2325 3053 1888 3053 
Q 1444 3053 1217 2703 
Q 991 2353 991 1663 
Q 991 975 1217 622 
Q 1444 269 1888 269 
Q 2325 269 2554 583 
Q 2784 897 2784 1497 
z
" transform="scale(0.015625)"/>
        <path id="DejaVuSerif-75" d="M 2266 3322 
L 3341 3322 
L 3341 331 
L 3884 331 
L 3884 0 
L 2766 0 
L 2766 588 
Q 2606 256 2353 82 
Q 2100 -91 1766 -91 
Q 1213 -91 952 223 
Q 691 538 691 1209 
L 691 2988 
L 172 2988 
L 172 3322 
L 1269 3322 
L 1269 1388 
Q 1269 781 1417 556 
Q 1566 331 1947 331 
Q 2347 331 2556 625 
Q 2766 919 2766 1478 
L 2766 2988 
L 2266 2988 
L 2266 3322 
z
" transform="scale(0.015625)"/>
       </defs>
       <use xlink:href="#DejaVuSerif-6d"/>
       <use xlink:href="#DejaVuSerif-65" transform="translate(94.824219 0)"/>
       <use xlink:href="#DejaVuSerif-64" transform="translate(154.003906 0)"/>
       <use xlink:href="#DejaVuSerif-69" transform="translate(218.017578 0)"/>
       <use xlink:href="#DejaVuSerif-75" transform="translate(250 0)"/>
       <use xlink:href="#DejaVuSerif-6d" transform="translate(314.404297 0)"/>
       <use xlink:href="#DejaVuSerif-20" transform="translate(409.228516 0)"/>
       <use xlink:href="#DejaVuSerif-72" transform="translate(441.015625 0)"/>
       <use xlink:href="#DejaVuSerif-65" transform="translate(488.818359 0)"/>
       <use xlink:href="#DejaVuSerif-61" transform="translate(547.998047 0)"/>
       <use xlink:href="#DejaVuSerif-73" transform="translate(607.617188 0)"/>
       <use xlink:href="#DejaVuSerif-6f" transform="translate(658.935547 0)"/>
       <use xlink:href="#DejaVuSerif-6e" transform="translate(719.140625 0)"/>
       <use xlink:href="#DejaVuSerif-69" transform="translate(783.544922 0)"/>
       <use xlink:href="#DejaVuSerif-6e" transform="translate(815.527344 0)"/>
       <use xlink:href="#DejaVuSerif-67" transform="translate(879.931641 0)"/>
      </g>
     </g>
    </g>
   </g>
   <g id="matplotlib.axis_2">
    <g id="ytick_1">
     <g id="line2d_3">
      <defs>
       <path id="m87f28ca6a8" d="M 0 0 
L -3.5 0 
" style="stroke: #000000; stroke-width: 0.8"/>
      </defs>
      <g>
       <use xlink:href="#m87f28ca6a8" x="509.371822" y="220.176" style="stroke: #000000; stroke-width: 0.8"/>
      </g>
     </g>
     <g id="text_3">
      <!-- 0 -->
      <g transform="translate(496.009322 223.975219) scale(0.1 -0.1)">
       <defs>
        <path id="DejaVuSerif-30" d="M 2034 219 
Q 2513 219 2750 744 
Q 2988 1269 2988 2328 
Q 2988 3391 2750 3916 
Q 2513 4441 2034 4441 
Q 1556 4441 1318 3916 
Q 1081 3391 1081 2328 
Q 1081 1269 1318 744 
Q 1556 219 2034 219 
z
M 2034 -91 
Q 1275 -91 848 546 
Q 422 1184 422 2328 
Q 422 3475 848 4112 
Q 1275 4750 2034 4750 
Q 2797 4750 3222 4112 
Q 3647 3475 3647 2328 
Q 3647 1184 3222 546 
Q 2797 -91 2034 -91 
z
" transform="scale(0.015625)"/>
       </defs>
       <use xlink:href="#DejaVuSerif-30"/>
      </g>
     </g>
    </g>
    <g id="ytick_2">
     <g id="line2d_4">
      <g>
       <use xlink:href="#m87f28ca6a8" x="509.371822" y="181.458531" style="stroke: #000000; stroke-width: 0.8"/>
      </g>
     </g>
     <g id="text_4">
      <!-- 2 -->
      <g transform="translate(496.009322 185.257749) scale(0.1 -0.1)">
       <defs>
        <path id="DejaVuSerif-32" d="M 819 3553 
L 469 3553 
L 469 4384 
Q 803 4563 1142 4656 
Q 1481 4750 1806 4750 
Q 2534 4750 2956 4397 
Q 3378 4044 3378 3438 
Q 3378 2753 2422 1800 
Q 2347 1728 2309 1691 
L 1131 513 
L 3078 513 
L 3078 1088 
L 3444 1088 
L 3444 0 
L 434 0 
L 434 341 
L 1850 1753 
Q 2319 2222 2519 2614 
Q 2719 3006 2719 3438 
Q 2719 3909 2473 4175 
Q 2228 4441 1797 4441 
Q 1350 4441 1106 4219 
Q 863 3997 819 3553 
z
" transform="scale(0.015625)"/>
       </defs>
       <use xlink:href="#DejaVuSerif-32"/>
      </g>
     </g>
    </g>
    <g id="ytick_3">
     <g id="line2d_5">
      <g>
       <use xlink:href="#m87f28ca6a8" x="509.371822" y="142.741061" style="stroke: #000000; stroke-width: 0.8"/>
      </g>
     </g>
     <g id="text_5">
      <!-- 4 -->
      <g transform="translate(496.009322 146.54028) scale(0.1 -0.1)">
       <defs>
        <path id="DejaVuSerif-34" d="M 2234 1581 
L 2234 4063 
L 641 1581 
L 2234 1581 
z
M 3609 0 
L 1484 0 
L 1484 331 
L 2234 331 
L 2234 1247 
L 197 1247 
L 197 1588 
L 2241 4750 
L 2859 4750 
L 2859 1581 
L 3750 1581 
L 3750 1247 
L 2859 1247 
L 2859 331 
L 3609 331 
L 3609 0 
z
" transform="scale(0.015625)"/>
       </defs>
       <use xlink:href="#DejaVuSerif-34"/>
      </g>
     </g>
    </g>
    <g id="ytick_4">
     <g id="line2d_6">
      <g>
       <use xlink:href="#m87f28ca6a8" x="509.371822" y="104.023592" style="stroke: #000000; stroke-width: 0.8"/>
      </g>
     </g>
     <g id="text_6">
      <!-- 6 -->
      <g transform="translate(496.009322 107.82281) scale(0.1 -0.1)">
       <defs>
        <path id="DejaVuSerif-36" d="M 2094 219 
Q 2534 219 2771 542 
Q 3009 866 3009 1472 
Q 3009 2078 2771 2401 
Q 2534 2725 2094 2725 
Q 1647 2725 1412 2412 
Q 1178 2100 1178 1509 
Q 1178 888 1415 553 
Q 1653 219 2094 219 
z
M 1075 2569 
Q 1288 2803 1556 2918 
Q 1825 3034 2163 3034 
Q 2859 3034 3264 2615 
Q 3669 2197 3669 1472 
Q 3669 763 3233 336 
Q 2797 -91 2069 -91 
Q 1278 -91 853 498 
Q 428 1088 428 2181 
Q 428 3406 931 4078 
Q 1434 4750 2350 4750 
Q 2597 4750 2869 4703 
Q 3141 4656 3425 4563 
L 3425 3794 
L 3072 3794 
Q 3034 4109 2831 4275 
Q 2628 4441 2284 4441 
Q 1678 4441 1381 3981 
Q 1084 3522 1075 2569 
z
" transform="scale(0.015625)"/>
       </defs>
       <use xlink:href="#DejaVuSerif-36"/>
      </g>
     </g>
    </g>
    <g id="ytick_5">
     <g id="line2d_7">
      <g>
       <use xlink:href="#m87f28ca6a8" x="509.371822" y="65.306122" style="stroke: #000000; stroke-width: 0.8"/>
      </g>
     </g>
     <g id="text_7">
      <!-- 8 -->
      <g transform="translate(496.009322 69.105341) scale(0.1 -0.1)">
       <defs>
        <path id="DejaVuSerif-38" d="M 2981 1275 
Q 2981 1775 2732 2051 
Q 2484 2328 2034 2328 
Q 1584 2328 1336 2051 
Q 1088 1775 1088 1275 
Q 1088 772 1336 495 
Q 1584 219 2034 219 
Q 2484 219 2732 495 
Q 2981 772 2981 1275 
z
M 2853 3541 
Q 2853 3966 2637 4203 
Q 2422 4441 2034 4441 
Q 1650 4441 1433 4203 
Q 1216 3966 1216 3541 
Q 1216 3113 1433 2875 
Q 1650 2638 2034 2638 
Q 2422 2638 2637 2875 
Q 2853 3113 2853 3541 
z
M 2516 2484 
Q 3047 2413 3344 2092 
Q 3641 1772 3641 1275 
Q 3641 619 3225 264 
Q 2809 -91 2034 -91 
Q 1263 -91 845 264 
Q 428 619 428 1275 
Q 428 1772 725 2092 
Q 1022 2413 1556 2484 
Q 1084 2569 832 2842 
Q 581 3116 581 3541 
Q 581 4103 968 4426 
Q 1356 4750 2034 4750 
Q 2713 4750 3100 4426 
Q 3488 4103 3488 3541 
Q 3488 3116 3236 2842 
Q 2984 2569 2516 2484 
z
" transform="scale(0.015625)"/>
       </defs>
       <use xlink:href="#DejaVuSerif-38"/>
      </g>
     </g>
    </g>
    <g id="text_8">
     <!-- isolated latency (s/query) -->
     <g style="fill: #0072b2" transform="translate(489.787447 190.172531) rotate(-90) scale(0.1 -0.1)">
      <defs>
       <path id="DejaVuSerif-74" d="M 691 2988 
L 184 2988 
L 184 3322 
L 691 3322 
L 691 4353 
L 1269 4353 
L 1269 3322 
L 2350 3322 
L 2350 2988 
L 1269 2988 
L 1269 878 
Q 1269 456 1350 337 
Q 1431 219 1650 219 
Q 1875 219 1978 351 
Q 2081 484 2088 781 
L 2522 781 
Q 2497 328 2275 118 
Q 2053 -91 1600 -91 
Q 1103 -91 897 129 
Q 691 350 691 878 
L 691 2988 
z
" transform="scale(0.015625)"/>
       <path id="DejaVuSerif-63" d="M 3291 997 
Q 3169 466 2822 187 
Q 2475 -91 1925 -91 
Q 1200 -91 759 389 
Q 319 869 319 1663 
Q 319 2459 759 2936 
Q 1200 3413 1925 3413 
Q 2241 3413 2553 3339 
Q 2866 3266 3181 3116 
L 3181 2266 
L 2847 2266 
Q 2781 2703 2561 2903 
Q 2341 3103 1931 3103 
Q 1466 3103 1228 2742 
Q 991 2381 991 1663 
Q 991 944 1227 581 
Q 1463 219 1931 219 
Q 2303 219 2525 412 
Q 2747 606 2828 997 
L 3291 997 
z
" transform="scale(0.015625)"/>
       <path id="DejaVuSerif-79" d="M 1381 -609 
L 1600 -56 
L 359 2988 
L -19 2988 
L -19 3322 
L 1509 3322 
L 1509 2988 
L 978 2988 
L 1913 703 
L 2847 2988 
L 2350 2988 
L 2350 3322 
L 3597 3322 
L 3597 2988 
L 3225 2988 
L 1703 -750 
Q 1547 -1138 1356 -1280 
Q 1166 -1422 819 -1422 
Q 672 -1422 517 -1397 
Q 363 -1372 206 -1325 
L 206 -691 
L 500 -691 
Q 519 -903 608 -995 
Q 697 -1088 884 -1088 
Q 1056 -1088 1161 -992 
Q 1266 -897 1381 -609 
z
" transform="scale(0.015625)"/>
       <path id="DejaVuSerif-28" d="M 2041 -997 
Q 1281 -656 893 83 
Q 506 822 506 1931 
Q 506 3044 893 3783 
Q 1281 4522 2041 4863 
L 2041 4556 
Q 1559 4225 1350 3623 
Q 1141 3022 1141 1931 
Q 1141 844 1350 242 
Q 1559 -359 2041 -691 
L 2041 -997 
z
" transform="scale(0.015625)"/>
       <path id="DejaVuSerif-2f" d="M 1656 4666 
L 2156 4666 
L 500 -594 
L 0 -594 
L 1656 4666 
z
" transform="scale(0.015625)"/>
       <path id="DejaVuSerif-71" d="M 3359 2988 
L 3359 -997 
L 3909 -997 
L 3909 -1331 
L 2241 -1331 
L 2241 -997 
L 2784 -997 
L 2784 519 
Q 2616 206 2355 57 
Q 2094 -91 1709 -91 
Q 1097 -91 708 395 
Q 319 881 319 1663 
Q 319 2444 706 2928 
Q 1094 3413 1709 3413 
Q 2094 3413 2355 3264 
Q 2616 3116 2784 2803 
L 2784 3322 
L 3909 3322 
L 3909 2988 
L 3359 2988 
z
M 2784 1825 
Q 2784 2422 2554 2737 
Q 2325 3053 1888 3053 
Q 1444 3053 1217 2703 
Q 991 2353 991 1663 
Q 991 975 1217 622 
Q 1444 269 1888 269 
Q 2325 269 2554 583 
Q 2784 897 2784 1497 
L 2784 1825 
z
" transform="scale(0.015625)"/>
       <path id="DejaVuSerif-29" d="M 453 -997 
L 453 -691 
Q 934 -359 1145 242 
Q 1356 844 1356 1931 
Q 1356 3022 1145 3623 
Q 934 4225 453 4556 
L 453 4863 
Q 1216 4522 1603 3783 
Q 1991 3044 1991 1931 
Q 1991 822 1603 83 
Q 1216 -656 453 -997 
z
" transform="scale(0.015625)"/>
      </defs>
      <use xlink:href="#DejaVuSerif-69"/>
      <use xlink:href="#DejaVuSerif-73" transform="translate(31.982422 0)"/>
      <use xlink:href="#DejaVuSerif-6f" transform="translate(83.300781 0)"/>
      <use xlink:href="#DejaVuSerif-6c" transform="translate(143.505859 0)"/>
      <use xlink:href="#DejaVuSerif-61" transform="translate(175.488281 0)"/>
      <use xlink:href="#DejaVuSerif-74" transform="translate(235.107422 0)"/>
      <use xlink:href="#DejaVuSerif-65" transform="translate(275.292969 0)"/>
      <use xlink:href="#DejaVuSerif-64" transform="translate(334.472656 0)"/>
      <use xlink:href="#DejaVuSerif-20" transform="translate(398.486328 0)"/>
      <use xlink:href="#DejaVuSerif-6c" transform="translate(430.273438 0)"/>
      <use xlink:href="#DejaVuSerif-61" transform="translate(462.255859 0)"/>
      <use xlink:href="#DejaVuSerif-74" transform="translate(521.875 0)"/>
      <use xlink:href="#DejaVuSerif-65" transform="translate(562.060547 0)"/>
      <use xlink:href="#DejaVuSerif-6e" transform="translate(621.240234 0)"/>
      <use xlink:href="#DejaVuSerif-63" transform="translate(685.644531 0)"/>
      <use xlink:href="#DejaVuSerif-79" transform="translate(741.650391 0)"/>
      <use xlink:href="#DejaVuSerif-20" transform="translate(798.144531 0)"/>
      <use xlink:href="#DejaVuSerif-28" transform="translate(829.931641 0)"/>
      <use xlink:href="#DejaVuSerif-73" transform="translate(868.945312 0)"/>
      <use xlink:href="#DejaVuSerif-2f" transform="translate(920.263672 0)"/>
      <use xlink:href="#DejaVuSerif-71" transform="translate(953.955078 0)"/>
      <use xlink:href="#DejaVuSerif-75" transform="translate(1017.96875 0)"/>
      <use xlink:href="#DejaVuSerif-65" transform="translate(1082.373047 0)"/>
      <use xlink:href="#DejaVuSerif-72" transform="translate(1141.552734 0)"/>
      <use xlink:href="#DejaVuSerif-79" transform="translate(1189.355469 0)"/>
      <use xlink:href="#DejaVuSerif-29" transform="translate(1245.849609 0)"/>
     </g>
    </g>
   </g>
   <g id="patch_5">
    <path d="M 509.371822 220.176 
L 509.371822 31.68 
" style="fill: none; stroke: #000000; stroke-width: 0.8; stroke-linejoin: miter; stroke-linecap: square"/>
   </g>
   <g id="patch_6">
    <path d="M 509.371822 220.176 
L 844.171822 220.176 
" style="fill: none; stroke: #000000; stroke-width: 0.8; stroke-linejoin: miter; stroke-linecap: square"/>
   </g>
   <g id="text_9">
    <!-- 2.9s -->
    <g style="fill: #0072b2" transform="translate(565.851808 162.525688) scale(0.09 -0.09)">
     <defs>
      <path id="DejaVuSerif-2e" d="M 603 325 
Q 603 500 722 622 
Q 841 744 1019 744 
Q 1191 744 1312 622 
Q 1434 500 1434 325 
Q 1434 153 1312 31 
Q 1191 -91 1019 -91 
Q 841 -91 722 29 
Q 603 150 603 325 
z
" transform="scale(0.015625)"/>
      <path id="DejaVuSerif-39" d="M 2994 2091 
Q 2784 1856 2512 1740 
Q 2241 1625 1900 1625 
Q 1206 1625 804 2044 
Q 403 2463 403 3188 
Q 403 3897 839 4323 
Q 1275 4750 2003 4750 
Q 2794 4750 3217 4161 
Q 3641 3572 3641 2478 
Q 3641 1253 3137 581 
Q 2634 -91 1722 -91 
Q 1475 -91 1203 -44 
Q 931 3 647 97 
L 647 872 
L 997 872 
Q 1038 556 1241 387 
Q 1444 219 1784 219 
Q 2391 219 2687 676 
Q 2984 1134 2994 2091 
z
M 1978 4441 
Q 1534 4441 1298 4117 
Q 1063 3794 1063 3188 
Q 1063 2581 1298 2256 
Q 1534 1931 1978 1931 
Q 2422 1931 2658 2245 
Q 2894 2559 2894 3150 
Q 2894 3772 2656 4106 
Q 2419 4441 1978 4441 
z
" transform="scale(0.015625)"/>
     </defs>
     <use xlink:href="#DejaVuSerif-32"/>
     <use xlink:href="#DejaVuSerif-2e" transform="translate(63.623047 0)"/>
     <use xlink:href="#DejaVuSerif-39" transform="translate(95.410156 0)"/>
     <use xlink:href="#DejaVuSerif-73" transform="translate(159.033203 0)"/>
    </g>
   </g>
   <g id="text_10">
    <!-- 7.0s -->
    <g style="fill: #0072b2" transform="translate(768.760898 83.600127) scale(0.09 -0.09)">
     <defs>
      <path id="DejaVuSerif-37" d="M 3609 4347 
L 1784 0 
L 1319 0 
L 3059 4153 
L 903 4153 
L 903 3578 
L 538 3578 
L 538 4666 
L 3609 4666 
L 3609 4347 
z
" transform="scale(0.015625)"/>
     </defs>
     <use xlink:href="#DejaVuSerif-37"/>
     <use xlink:href="#DejaVuSerif-2e" transform="translate(63.623047 0)"/>
     <use xlink:href="#DejaVuSerif-30" transform="translate(95.410156 0)"/>
     <use xlink:href="#DejaVuSerif-73" transform="translate(159.033203 0)"/>
    </g>
   </g>
  </g>
  <g id="axes_2">
   <g id="matplotlib.axis_3">
    <g id="ytick_6">
     <g id="line2d_8">
      <defs>
       <path id="m7c6f19508e" d="M 0 0 
L 3.5 0 
" style="stroke: #000000; stroke-width: 0.8"/>
      </defs>
      <g>
       <use xlink:href="#m7c6f19508e" x="844.171822" y="220.176" style="stroke: #000000; stroke-width: 0.8"/>
      </g>
     </g>
     <g id="text_11">
      <!-- 0.45 -->
      <g transform="translate(851.171822 223.975219) scale(0.1 -0.1)">
       <defs>
        <path id="DejaVuSerif-35" d="M 3219 4666 
L 3219 4153 
L 1081 4153 
L 1081 2816 
Q 1244 2928 1461 2984 
Q 1678 3041 1947 3041 
Q 2703 3041 3140 2622 
Q 3578 2203 3578 1478 
Q 3578 738 3136 323 
Q 2694 -91 1894 -91 
Q 1572 -91 1234 -12 
Q 897 66 544 225 
L 544 1131 
L 897 1131 
Q 925 688 1179 453 
Q 1434 219 1894 219 
Q 2388 219 2653 544 
Q 2919 869 2919 1478 
Q 2919 2084 2655 2407 
Q 2391 2731 1894 2731 
Q 1613 2731 1398 2631 
Q 1184 2531 1019 2322 
L 750 2322 
L 750 4666 
L 3219 4666 
z
" transform="scale(0.015625)"/>
       </defs>
       <use xlink:href="#DejaVuSerif-30"/>
       <use xlink:href="#DejaVuSerif-2e" transform="translate(63.623047 0)"/>
       <use xlink:href="#DejaVuSerif-34" transform="translate(95.410156 0)"/>
       <use xlink:href="#DejaVuSerif-35" transform="translate(159.033203 0)"/>
      </g>
     </g>
    </g>
    <g id="ytick_7">
     <g id="line2d_9">
      <g>
       <use xlink:href="#m7c6f19508e" x="844.171822" y="191.616" style="stroke: #000000; stroke-width: 0.8"/>
      </g>
     </g>
     <g id="text_12">
      <!-- 0.50 -->
      <g transform="translate(851.171822 195.415219) scale(0.1 -0.1)">
       <use xlink:href="#DejaVuSerif-30"/>
       <use xlink:href="#DejaVuSerif-2e" transform="translate(63.623047 0)"/>
       <use xlink:href="#DejaVuSerif-35" transform="translate(95.410156 0)"/>
       <use xlink:href="#DejaVuSerif-30" transform="translate(159.033203 0)"/>
      </g>
     </g>
    </g>
    <g id="ytick_8">
     <g id="line2d_10">
      <g>
       <use xlink:href="#m7c6f19508e" x="844.171822" y="163.056" style="stroke: #000000; stroke-width: 0.8"/>
      </g>
     </g>
     <g id="text_13">
      <!-- 0.55 -->
      <g transform="translate(851.171822 166.855219) scale(0.1 -0.1)">
       <use xlink:href="#DejaVuSerif-30"/>
       <use xlink:href="#DejaVuSerif-2e" transform="translate(63.623047 0)"/>
       <use xlink:href="#DejaVuSerif-35" transform="translate(95.410156 0)"/>
       <use xlink:href="#DejaVuSerif-35" transform="translate(159.033203 0)"/>
      </g>
     </g>
    </g>
    <g id="ytick_9">
     <g id="line2d_11">
      <g>
       <use xlink:href="#m7c6f19508e" x="844.171822" y="134.496" style="stroke: #000000; stroke-width: 0.8"/>
      </g>
     </g>
     <g id="text_14">
      <!-- 0.60 -->
      <g transform="translate(851.171822 138.295219) scale(0.1 -0.1)">
       <use xlink:href="#DejaVuSerif-30"/>
       <use xlink:href="#DejaVuSerif-2e" transform="translate(63.623047 0)"/>
       <use xlink:href="#DejaVuSerif-36" transform="translate(95.410156 0)"/>
       <use xlink:href="#DejaVuSerif-30" transform="translate(159.033203 0)"/>
      </g>
     </g>
    </g>
    <g id="ytick_10">
     <g id="line2d_12">
      <g>
       <use xlink:href="#m7c6f19508e" x="844.171822" y="105.936" style="stroke: #000000; stroke-width: 0.8"/>
      </g>
     </g>
     <g id="text_15">
      <!-- 0.65 -->
      <g transform="translate(851.171822 109.735219) scale(0.1 -0.1)">
       <use xlink:href="#DejaVuSerif-30"/>
       <use xlink:href="#DejaVuSerif-2e" transform="translate(63.623047 0)"/>
       <use xlink:href="#DejaVuSerif-36" transform="translate(95.410156 0)"/>
       <use xlink:href="#DejaVuSerif-35" transform="translate(159.033203 0)"/>
      </g>
     </g>
    </g>
    <g id="ytick_11">
     <g id="line2d_13">
      <g>
       <use xlink:href="#m7c6f19508e" x="844.171822" y="77.376" style="stroke: #000000; stroke-width: 0.8"/>
      </g>
     </g>
     <g id="text_16">
      <!-- 0.70 -->
      <g transform="translate(851.171822 81.175219) scale(0.1 -0.1)">
       <use xlink:href="#DejaVuSerif-30"/>
       <use xlink:href="#DejaVuSerif-2e" transform="translate(63.623047 0)"/>
       <use xlink:href="#DejaVuSerif-37" transform="translate(95.410156 0)"/>
       <use xlink:href="#DejaVuSerif-30" transform="translate(159.033203 0)"/>
      </g>
     </g>
    </g>
    <g id="ytick_12">
     <g id="line2d_14">
      <g>
       <use xlink:href="#m7c6f19508e" x="844.171822" y="48.816" style="stroke: #000000; stroke-width: 0.8"/>
      </g>
     </g>
     <g id="text_17">
      <!-- 0.75 -->
      <g transform="translate(851.171822 52.615219) scale(0.1 -0.1)">
       <use xlink:href="#DejaVuSerif-30"/>
       <use xlink:href="#DejaVuSerif-2e" transform="translate(63.623047 0)"/>
       <use xlink:href="#DejaVuSerif-37" transform="translate(95.410156 0)"/>
       <use xlink:href="#DejaVuSerif-35" transform="translate(159.033203 0)"/>
      </g>
     </g>
    </g>
    <g id="text_18">
     <!-- MU κ vs oncologists -->
     <g style="fill: #d55e00" transform="translate(885.035884 177.135031) rotate(-90) scale(0.1 -0.1)">
      <defs>
       <path id="DejaVuSerif-4d" d="M 353 0 
L 353 331 
L 947 331 
L 947 4331 
L 319 4331 
L 319 4666 
L 1678 4666 
L 3316 1344 
L 4953 4666 
L 6228 4666 
L 6228 4331 
L 5606 4331 
L 5606 331 
L 6203 331 
L 6203 0 
L 4378 0 
L 4378 331 
L 4972 331 
L 4972 3938 
L 3372 684 
L 2931 684 
L 1331 3938 
L 1331 331 
L 1925 331 
L 1925 0 
L 353 0 
z
" transform="scale(0.015625)"/>
       <path id="DejaVuSerif-55" d="M 897 4331 
L 300 4331 
L 300 4666 
L 2125 4666 
L 2125 4331 
L 1528 4331 
L 1528 1919 
Q 1528 1025 1820 672 
Q 2113 319 2828 319 
Q 3544 319 3836 672 
Q 4128 1025 4128 1919 
L 4128 4331 
L 3531 4331 
L 3531 4666 
L 5106 4666 
L 5106 4331 
L 4513 4331 
L 4513 1856 
Q 4513 791 4103 350 
Q 3694 -91 2713 -91 
Q 1731 -91 1314 353 
Q 897 797 897 1856 
L 897 4331 
z
" transform="scale(0.015625)"/>
       <path id="DejaVuSerif-3ba" d="M 1831 3322 
L 1831 2991 
L 1313 2991 
L 1313 1697 
L 2713 2991 
L 2234 2991 
L 2234 3322 
L 3738 3322 
L 3738 2991 
L 3169 2991 
L 2181 2075 
L 3444 331 
L 3922 331 
L 3922 0 
L 2284 0 
L 2284 331 
L 2759 331 
L 1766 1697 
L 1313 1275 
L 1313 331 
L 1831 331 
L 1831 0 
L 219 0 
L 219 331 
L 738 331 
L 738 2991 
L 219 2991 
L 219 3322 
L 1831 3322 
z
" transform="scale(0.015625)"/>
       <path id="DejaVuSerif-76" d="M 1581 0 
L 359 2988 
L -19 2988 
L -19 3322 
L 1509 3322 
L 1509 2988 
L 978 2988 
L 1913 703 
L 2847 2988 
L 2350 2988 
L 2350 3322 
L 3597 3322 
L 3597 2988 
L 3225 2988 
L 2003 0 
L 1581 0 
z
" transform="scale(0.015625)"/>
      </defs>
      <use xlink:href="#DejaVuSerif-4d"/>
      <use xlink:href="#DejaVuSerif-55" transform="translate(102.392578 0)"/>
      <use xlink:href="#DejaVuSerif-20" transform="translate(186.669922 0)"/>
      <use xlink:href="#DejaVuSerif-3ba" transform="translate(218.457031 0)"/>
      <use xlink:href="#DejaVuSerif-20" transform="translate(280.957031 0)"/>
      <use xlink:href="#DejaVuSerif-76" transform="translate(312.744141 0)"/>
      <use xlink:href="#DejaVuSerif-73" transform="translate(369.238281 0)"/>
      <use xlink:href="#DejaVuSerif-20" transform="translate(420.556641 0)"/>
      <use xlink:href="#DejaVuSerif-6f" transform="translate(452.34375 0)"/>
      <use xlink:href="#DejaVuSerif-6e" transform="translate(512.548828 0)"/>
      <use xlink:href="#DejaVuSerif-63" transform="translate(576.953125 0)"/>
      <use xlink:href="#DejaVuSerif-6f" transform="translate(632.958984 0)"/>
      <use xlink:href="#DejaVuSerif-6c" transform="translate(693.164062 0)"/>
      <use xlink:href="#DejaVuSerif-6f" transform="translate(725.146484 0)"/>
      <use xlink:href="#DejaVuSerif-67" transform="translate(785.351562 0)"/>
      <use xlink:href="#DejaVuSerif-69" transform="translate(849.365234 0)"/>
      <use xlink:href="#DejaVuSerif-73" transform="translate(881.347656 0)"/>
      <use xlink:href="#DejaVuSerif-74" transform="translate(932.666016 0)"/>
      <use xlink:href="#DejaVuSerif-73" transform="translate(972.851562 0)"/>
     </g>
    </g>
   </g>
   <g id="line2d_15">
    <path d="M 575.317276 112.163368 
L 778.226367 162.381354 
" clip-path="url(#p29d3c40f67)" style="fill: none; stroke: #d55e00; stroke-width: 2; stroke-linecap: square"/>
    <defs>
     <path id="m9c9b8eb27e" d="M 0 3 
C 0.795609 3 1.55874 2.683901 2.12132 2.12132 
C 2.683901 1.55874 3 0.795609 3 0 
C 3 -0.795609 2.683901 -1.55874 2.12132 -2.12132 
C 1.55874 -2.683901 0.795609 -3 0 -3 
C -0.795609 -3 -1.55874 -2.683901 -2.12132 -2.12132 
C -2.683901 -1.55874 -3 -0.795609 -3 0 
C -3 0.795609 -2.683901 1.55874 -2.12132 2.12132 
C -1.55874 2.683901 -0.795609 3 0 3 
z
" style="stroke: #d55e00"/>
    </defs>
    <g clip-path="url(#p29d3c40f67)">
     <use xlink:href="#m9c9b8eb27e" x="575.317276" y="112.163368" style="fill: #d55e00; stroke: #d55e00"/>
     <use xlink:href="#m9c9b8eb27e" x="778.226367" y="162.381354" style="fill: #d55e00; stroke: #d55e00"/>
    </g>
   </g>
   <g id="patch_7">
    <path d="M 509.371822 220.176 
L 509.371822 31.68 
" style="fill: none; stroke: #000000; stroke-width: 0.8; stroke-linejoin: miter; stroke-linecap: square"/>
   </g>
   <g id="patch_8">
    <path d="M 509.371822 220.176 
L 844.171822 220.176 
" style="fill: none; stroke: #000000; stroke-width: 0.8; stroke-linejoin: miter; stroke-linecap: square"/>
   </g>
   <g id="text_19">
    <!-- MU κ 0.64 -->
    <g style="fill: #d55e00" transform="translate(552.563175 93.542353) scale(0.085 -0.085)">
     <use xlink:href="#DejaVuSerif-4d"/>
     <use xlink:href="#DejaVuSerif-55" transform="translate(102.392578 0)"/>
     <use xlink:href="#DejaVuSerif-20" transform="translate(186.669922 0)"/>
     <use xlink:href="#DejaVuSerif-3ba" transform="translate(218.457031 0)"/>
     <use xlink:href="#DejaVuSerif-20" transform="translate(280.957031 0)"/>
     <use xlink:href="#DejaVuSerif-30" transform="translate(312.744141 0)"/>
     <use xlink:href="#DejaVuSerif-2e" transform="translate(376.367188 0)"/>
     <use xlink:href="#DejaVuSerif-36" transform="translate(408.154297 0)"/>
     <use xlink:href="#DejaVuSerif-34" transform="translate(471.777344 0)"/>
    </g>
    <!-- {'otok hrtanu', 'zolpinox předávkování', 'vykašliavanie krvi rakovina', 'Může být příčina ozáření mozku nehybnost pravé ruky', 'ochrnutí dolních končetin', 'vracanie krvi pri rakovine', 'ochrnutí celého těla', 'akutní ischemie dolních končetin'}/28 emerg. missed -->
    <g style="fill: #d55e00" transform="translate(17.259737 104.163368) scale(0.085 -0.085)">
     <defs>
      <path id="DejaVuSerif-7b" d="M 3272 -716 
L 3272 -1044 
L 3078 -1044 
Q 2300 -1044 2036 -812 
Q 1772 -581 1772 109 
L 1772 916 
Q 1772 1384 1603 1565 
Q 1434 1747 991 1747 
L 800 1747 
L 800 2075 
L 991 2075 
Q 1434 2075 1603 2256 
Q 1772 2438 1772 2906 
L 1772 3713 
Q 1772 4403 2036 4633 
Q 2300 4863 3078 4863 
L 3272 4863 
L 3272 4538 
L 3059 4538 
Q 2619 4538 2484 4400 
Q 2350 4263 2350 3822 
L 2350 2925 
Q 2350 2431 2194 2218 
Q 2038 2006 1631 1913 
Q 2044 1806 2197 1597 
Q 2350 1388 2350 897 
L 2350 0 
Q 2350 -441 2484 -578 
Q 2619 -716 3059 -716 
L 3272 -716 
z
" transform="scale(0.015625)"/>
      <path id="DejaVuSerif-27" d="M 1125 4666 
L 1125 2931 
L 628 2931 
L 628 4666 
L 1125 4666 
z
" transform="scale(0.015625)"/>
      <path id="DejaVuSerif-6b" d="M 1831 0 
L 219 0 
L 219 331 
L 738 331 
L 738 4531 
L 184 4531 
L 184 4863 
L 1313 4863 
L 1313 1697 
L 2713 2988 
L 2234 2988 
L 2234 3322 
L 3738 3322 
L 3738 2988 
L 3169 2988 
L 2181 2075 
L 3444 331 
L 3922 331 
L 3922 0 
L 2284 0 
L 2284 331 
L 2759 331 
L 1766 1697 
L 1313 1275 
L 1313 331 
L 1831 331 
L 1831 0 
z
" transform="scale(0.015625)"/>
      <path id="DejaVuSerif-68" d="M 263 0 
L 263 331 
L 781 331 
L 781 4531 
L 231 4531 
L 231 4863 
L 1356 4863 
L 1356 2731 
Q 1516 3069 1770 3241 
Q 2025 3413 2363 3413 
Q 2913 3413 3172 3097 
Q 3431 2781 3431 2113 
L 3431 331 
L 3944 331 
L 3944 0 
L 2356 0 
L 2356 331 
L 2853 331 
L 2853 1931 
Q 2853 2541 2704 2764 
Q 2556 2988 2175 2988 
Q 1775 2988 1565 2697 
Q 1356 2406 1356 1850 
L 1356 331 
L 1856 331 
L 1856 0 
L 263 0 
z
" transform="scale(0.015625)"/>
      <path id="DejaVuSerif-2c" d="M 231 -622 
Q 525 -406 662 -114 
Q 800 178 800 594 
L 800 709 
L 1416 709 
Q 1391 175 1164 -208 
Q 938 -591 481 -872 
L 231 -622 
z
" transform="scale(0.015625)"/>
      <path id="DejaVuSerif-7a" d="M 256 0 
L 256 269 
L 2338 2988 
L 691 2988 
L 691 2413 
L 359 2413 
L 359 3322 
L 3078 3322 
L 3078 3053 
L 997 331 
L 2803 331 
L 2803 934 
L 3138 934 
L 3138 0 
L 256 0 
z
" transform="scale(0.015625)"/>
      <path id="DejaVuSerif-70" d="M 1313 1825 
L 1313 1497 
Q 1313 897 1542 583 
Q 1772 269 2209 269 
Q 2650 269 2876 622 
Q 3103 975 3103 1663 
Q 3103 2353 2876 2703 
Q 2650 3053 2209 3053 
Q 1772 3053 1542 2737 
Q 1313 2422 1313 1825 
z
M 738 2988 
L 184 2988 
L 184 3322 
L 1313 3322 
L 1313 2803 
Q 1481 3116 1742 3264 
Q 2003 3413 2388 3413 
Q 3000 3413 3387 2928 
Q 3775 2444 3775 1663 
Q 3775 881 3387 395 
Q 3000 -91 2388 -91 
Q 2003 -91 1742 57 
Q 1481 206 1313 519 
L 1313 -997 
L 1856 -997 
L 1856 -1331 
L 184 -1331 
L 184 -997 
L 738 -997 
L 738 2988 
z
" transform="scale(0.015625)"/>
      <path id="DejaVuSerif-78" d="M 1863 2028 
L 2559 2988 
L 2113 2988 
L 2113 3322 
L 3391 3322 
L 3391 2988 
L 2950 2988 
L 2059 1759 
L 3097 331 
L 3531 331 
L 3531 0 
L 1997 0 
L 1997 331 
L 2419 331 
L 1697 1325 
L 972 331 
L 1403 331 
L 1403 0 
L 141 0 
L 141 331 
L 581 331 
L 1497 1594 
L 488 2988 
L 78 2988 
L 78 3322 
L 1563 3322 
L 1563 2988 
L 1166 2988 
L 1863 2028 
z
" transform="scale(0.015625)"/>
      <path id="DejaVuSerif-159" d="M 3059 3328 
L 3059 2497 
L 2728 2497 
Q 2713 2744 2591 2866 
Q 2469 2988 2234 2988 
Q 1809 2988 1582 2694 
Q 1356 2400 1356 1850 
L 1356 331 
L 2022 331 
L 2022 0 
L 263 0 
L 263 331 
L 781 331 
L 781 2994 
L 231 2994 
L 231 3322 
L 1356 3322 
L 1356 2731 
Q 1525 3078 1790 3245 
Q 2056 3413 2438 3413 
Q 2578 3413 2733 3391 
Q 2888 3369 3059 3328 
z
M 1498 3944 
L 763 5119 
L 1126 5119 
L 1760 4306 
L 2394 5119 
L 2757 5119 
L 2023 3944 
L 1498 3944 
z
" transform="scale(0.015625)"/>
      <path id="DejaVuSerif-e1" d="M 2547 1044 
L 2547 1747 
L 1806 1747 
Q 1378 1747 1168 1562 
Q 959 1378 959 997 
Q 959 650 1171 447 
Q 1384 244 1747 244 
Q 2106 244 2326 466 
Q 2547 688 2547 1044 
z
M 3122 2075 
L 3122 331 
L 3634 331 
L 3634 0 
L 2547 0 
L 2547 359 
Q 2356 128 2106 18 
Q 1856 -91 1522 -91 
Q 969 -91 644 203 
Q 319 497 319 997 
Q 319 1513 691 1797 
Q 1063 2081 1741 2081 
L 2547 2081 
L 2547 2309 
Q 2547 2688 2317 2895 
Q 2088 3103 1672 3103 
Q 1328 3103 1125 2947 
Q 922 2791 872 2484 
L 575 2484 
L 575 3156 
Q 875 3284 1158 3348 
Q 1441 3413 1709 3413 
Q 2400 3413 2761 3070 
Q 3122 2728 3122 2075 
z
M 2210 5119 
L 2832 5119 
L 1770 3944 
L 1404 3944 
L 2210 5119 
z
" transform="scale(0.015625)"/>
      <path id="DejaVuSerif-ed" d="M 1356 331 
L 1900 331 
L 1900 0 
L 231 0 
L 231 331 
L 781 331 
L 781 2988 
L 231 2988 
L 231 3322 
L 1356 3322 
L 1356 331 
z
M 1458 5119 
L 2080 5119 
L 1018 3944 
L 652 3944 
L 1458 5119 
z
" transform="scale(0.015625)"/>
      <path id="DejaVuSerif-161" d="M 359 184 
L 359 959 
L 691 959 
Q 703 588 923 403 
Q 1144 219 1575 219 
Q 1963 219 2166 364 
Q 2369 509 2369 788 
Q 2369 1006 2220 1140 
Q 2072 1275 1594 1428 
L 1178 1569 
Q 750 1706 558 1912 
Q 366 2119 366 2438 
Q 366 2894 700 3153 
Q 1034 3413 1625 3413 
Q 1888 3413 2178 3344 
Q 2469 3275 2778 3144 
L 2778 2419 
L 2447 2419 
Q 2434 2741 2221 2922 
Q 2009 3103 1644 3103 
Q 1281 3103 1095 2975 
Q 909 2847 909 2591 
Q 909 2381 1050 2254 
Q 1191 2128 1613 1997 
L 2069 1856 
Q 2541 1709 2748 1489 
Q 2956 1269 2956 922 
Q 2956 450 2595 179 
Q 2234 -91 1600 -91 
Q 1278 -91 972 -22 
Q 666 47 359 184 
z
M 1378 3944 
L 643 5119 
L 1006 5119 
L 1640 4306 
L 2274 5119 
L 2637 5119 
L 1903 3944 
L 1378 3944 
z
" transform="scale(0.015625)"/>
      <path id="DejaVuSerif-16f" d="M 2266 3322 
L 3341 3322 
L 3341 331 
L 3884 331 
L 3884 0 
L 2766 0 
L 2766 588 
Q 2606 256 2353 82 
Q 2100 -91 1766 -91 
Q 1213 -91 952 223 
Q 691 538 691 1209 
L 691 2988 
L 172 2988 
L 172 3322 
L 1269 3322 
L 1269 1388 
Q 1269 781 1417 556 
Q 1566 331 1947 331 
Q 2347 331 2556 625 
Q 2766 919 2766 1478 
L 2766 2988 
L 2266 2988 
L 2266 3322 
z
M 2720 4699 
Q 2720 4339 2471 4089 
Q 2223 3839 1864 3839 
Q 1505 3839 1256 4089 
Q 1008 4339 1008 4699 
Q 1008 5058 1256 5306 
Q 1505 5555 1864 5555 
Q 2223 5555 2471 5306 
Q 2720 5058 2720 4699 
z
M 2339 4699 
Q 2339 4895 2201 5032 
Q 2064 5170 1864 5170 
Q 1661 5170 1525 5034 
Q 1389 4899 1389 4699 
Q 1389 4495 1525 4359 
Q 1661 4224 1864 4224 
Q 2064 4224 2201 4361 
Q 2339 4499 2339 4699 
z
" transform="scale(0.015625)"/>
      <path id="DejaVuSerif-17e" d="M 256 0 
L 256 269 
L 2338 2988 
L 691 2988 
L 691 2413 
L 359 2413 
L 359 3322 
L 3078 3322 
L 3078 3053 
L 997 331 
L 2803 331 
L 2803 934 
L 3138 934 
L 3138 0 
L 256 0 
z
M 1426 3944 
L 691 5119 
L 1054 5119 
L 1688 4306 
L 2322 5119 
L 2685 5119 
L 1951 3944 
L 1426 3944 
z
" transform="scale(0.015625)"/>
      <path id="DejaVuSerif-62" d="M 738 331 
L 738 4531 
L 184 4531 
L 184 4863 
L 1313 4863 
L 1313 2803 
Q 1481 3116 1742 3264 
Q 2003 3413 2388 3413 
Q 3000 3413 3387 2928 
Q 3775 2444 3775 1663 
Q 3775 881 3387 395 
Q 3000 -91 2388 -91 
Q 2003 -91 1742 57 
Q 1481 206 1313 519 
L 1313 0 
L 184 0 
L 184 331 
L 738 331 
z
M 1313 1497 
Q 1313 897 1542 583 
Q 1772 269 2209 269 
Q 2650 269 2876 622 
Q 3103 975 3103 1663 
Q 3103 2353 2876 2703 
Q 2650 3053 2209 3053 
Q 1772 3053 1542 2737 
Q 1313 2422 1313 1825 
L 1313 1497 
z
" transform="scale(0.015625)"/>
      <path id="DejaVuSerif-fd" d="M 1381 -609 
L 1600 -56 
L 359 2988 
L -19 2988 
L -19 3322 
L 1509 3322 
L 1509 2988 
L 978 2988 
L 1913 703 
L 2847 2988 
L 2350 2988 
L 2350 3322 
L 3597 3322 
L 3597 2988 
L 3225 2988 
L 1703 -750 
Q 1547 -1138 1356 -1280 
Q 1166 -1422 819 -1422 
Q 672 -1422 517 -1397 
Q 363 -1372 206 -1325 
L 206 -691 
L 500 -691 
Q 519 -903 608 -995 
Q 697 -1088 884 -1088 
Q 1056 -1088 1161 -992 
Q 1266 -897 1381 -609 
z
M 2250 5119 
L 2872 5119 
L 1810 3944 
L 1444 3944 
L 2250 5119 
z
" transform="scale(0.015625)"/>
      <path id="DejaVuSerif-10d" d="M 3291 997 
Q 3169 466 2822 187 
Q 2475 -91 1925 -91 
Q 1200 -91 759 389 
Q 319 869 319 1663 
Q 319 2459 759 2936 
Q 1200 3413 1925 3413 
Q 2241 3413 2553 3339 
Q 2866 3266 3181 3116 
L 3181 2266 
L 2847 2266 
Q 2781 2703 2561 2903 
Q 2341 3103 1931 3103 
Q 1466 3103 1228 2742 
Q 991 2381 991 1663 
Q 991 944 1227 581 
Q 1463 219 1931 219 
Q 2303 219 2525 412 
Q 2747 606 2828 997 
L 3291 997 
z
M 1634 3944 
L 899 5119 
L 1262 5119 
L 1896 4306 
L 2530 5119 
L 2893 5119 
L 2159 3944 
L 1634 3944 
z
" transform="scale(0.015625)"/>
      <path id="DejaVuSerif-e9" d="M 3469 1600 
L 991 1600 
L 991 1575 
Q 991 903 1244 561 
Q 1497 219 1991 219 
Q 2369 219 2611 417 
Q 2853 616 2950 1006 
L 3413 1006 
Q 3275 459 2904 184 
Q 2534 -91 1931 -91 
Q 1203 -91 761 389 
Q 319 869 319 1663 
Q 319 2450 753 2931 
Q 1188 3413 1894 3413 
Q 2647 3413 3050 2948 
Q 3453 2484 3469 1600 
z
M 2791 1931 
Q 2772 2513 2545 2808 
Q 2319 3103 1894 3103 
Q 1497 3103 1269 2806 
Q 1041 2509 991 1931 
L 2791 1931 
z
M 2330 5119 
L 2952 5119 
L 1890 3944 
L 1524 3944 
L 2330 5119 
z
" transform="scale(0.015625)"/>
      <path id="DejaVuSerif-11b" d="M 3469 1600 
L 991 1600 
L 991 1575 
Q 991 903 1244 561 
Q 1497 219 1991 219 
Q 2369 219 2611 417 
Q 2853 616 2950 1006 
L 3413 1006 
Q 3275 459 2904 184 
Q 2534 -91 1931 -91 
Q 1203 -91 761 389 
Q 319 869 319 1663 
Q 319 2450 753 2931 
Q 1188 3413 1894 3413 
Q 2647 3413 3050 2948 
Q 3453 2484 3469 1600 
z
M 2791 1931 
Q 2772 2513 2545 2808 
Q 2319 3103 1894 3103 
Q 1497 3103 1269 2806 
Q 1041 2509 991 1931 
L 2791 1931 
z
M 1634 3944 
L 899 5119 
L 1262 5119 
L 1896 4306 
L 2530 5119 
L 2893 5119 
L 2159 3944 
L 1634 3944 
z
" transform="scale(0.015625)"/>
      <path id="DejaVuSerif-7d" d="M 800 -716 
L 1019 -716 
Q 1456 -716 1589 -580 
Q 1722 -444 1722 0 
L 1722 897 
Q 1722 1388 1875 1597 
Q 2028 1806 2438 1913 
Q 2031 2006 1876 2218 
Q 1722 2431 1722 2925 
L 1722 3822 
Q 1722 4266 1589 4402 
Q 1456 4538 1019 4538 
L 800 4538 
L 800 4863 
L 997 4863 
Q 1775 4863 2036 4633 
Q 2297 4403 2297 3713 
L 2297 2906 
Q 2297 2438 2465 2256 
Q 2634 2075 3078 2075 
L 3272 2075 
L 3272 1747 
L 3078 1747 
Q 2634 1747 2465 1565 
Q 2297 1384 2297 916 
L 2297 109 
Q 2297 -581 2036 -812 
Q 1775 -1044 997 -1044 
L 800 -1044 
L 800 -716 
z
" transform="scale(0.015625)"/>
     </defs>
     <use xlink:href="#DejaVuSerif-7b"/>
     <use xlink:href="#DejaVuSerif-27" transform="translate(63.623047 0)"/>
     <use xlink:href="#DejaVuSerif-6f" transform="translate(91.113281 0)"/>
     <use xlink:href="#DejaVuSerif-74" transform="translate(151.318359 0)"/>
     <use xlink:href="#DejaVuSerif-6f" transform="translate(191.503906 0)"/>
     <use xlink:href="#DejaVuSerif-6b" transform="translate(251.708984 0)"/>
     <use xlink:href="#DejaVuSerif-20" transform="translate(312.304688 0)"/>
     <use xlink:href="#DejaVuSerif-68" transform="translate(344.091797 0)"/>
     <use xlink:href="#DejaVuSerif-72" transform="translate(408.496094 0)"/>
     <use xlink:href="#DejaVuSerif-74" transform="translate(456.298828 0)"/>
     <use xlink:href="#DejaVuSerif-61" transform="translate(496.484375 0)"/>
     <use xlink:href="#DejaVuSerif-6e" transform="translate(556.103516 0)"/>
     <use xlink:href="#DejaVuSerif-75" transform="translate(620.507812 0)"/>
     <use xlink:href="#DejaVuSerif-27" transform="translate(684.912109 0)"/>
     <use xlink:href="#DejaVuSerif-2c" transform="translate(712.402344 0)"/>
     <use xlink:href="#DejaVuSerif-20" transform="translate(744.189453 0)"/>
     <use xlink:href="#DejaVuSerif-27" transform="translate(775.976562 0)"/>
     <use xlink:href="#DejaVuSerif-7a" transform="translate(803.466797 0)"/>
     <use xlink:href="#DejaVuSerif-6f" transform="translate(856.152344 0)"/>
     <use xlink:href="#DejaVuSerif-6c" transform="translate(916.357422 0)"/>
     <use xlink:href="#DejaVuSerif-70" transform="translate(948.339844 0)"/>
     <use xlink:href="#DejaVuSerif-69" transform="translate(1012.353516 0)"/>
     <use xlink:href="#DejaVuSerif-6e" transform="translate(1044.335938 0)"/>
     <use xlink:href="#DejaVuSerif-6f" transform="translate(1108.740234 0)"/>
     <use xlink:href="#DejaVuSerif-78" transform="translate(1168.945312 0)"/>
     <use xlink:href="#DejaVuSerif-20" transform="translate(1225.341797 0)"/>
     <use xlink:href="#DejaVuSerif-70" transform="translate(1257.128906 0)"/>
     <use xlink:href="#DejaVuSerif-159" transform="translate(1321.142578 0)"/>
     <use xlink:href="#DejaVuSerif-65" transform="translate(1368.945312 0)"/>
     <use xlink:href="#DejaVuSerif-64" transform="translate(1428.125 0)"/>
     <use xlink:href="#DejaVuSerif-e1" transform="translate(1492.138672 0)"/>
     <use xlink:href="#DejaVuSerif-76" transform="translate(1551.757812 0)"/>
     <use xlink:href="#DejaVuSerif-6b" transform="translate(1608.251953 0)"/>
     <use xlink:href="#DejaVuSerif-6f" transform="translate(1668.847656 0)"/>
     <use xlink:href="#DejaVuSerif-76" transform="translate(1729.052734 0)"/>
     <use xlink:href="#DejaVuSerif-e1" transform="translate(1785.546875 0)"/>
     <use xlink:href="#DejaVuSerif-6e" transform="translate(1845.166016 0)"/>
     <use xlink:href="#DejaVuSerif-ed" transform="translate(1909.570312 0)"/>
     <use xlink:href="#DejaVuSerif-27" transform="translate(1941.552734 0)"/>
     <use xlink:href="#DejaVuSerif-2c" transform="translate(1969.042969 0)"/>
     <use xlink:href="#DejaVuSerif-20" transform="translate(2000.830078 0)"/>
     <use xlink:href="#DejaVuSerif-27" transform="translate(2032.617188 0)"/>
     <use xlink:href="#DejaVuSerif-76" transform="translate(2060.107422 0)"/>
     <use xlink:href="#DejaVuSerif-79" transform="translate(2116.601562 0)"/>
     <use xlink:href="#DejaVuSerif-6b" transform="translate(2173.095703 0)"/>
     <use xlink:href="#DejaVuSerif-61" transform="translate(2233.691406 0)"/>
     <use xlink:href="#DejaVuSerif-161" transform="translate(2293.310547 0)"/>
     <use xlink:href="#DejaVuSerif-6c" transform="translate(2344.628906 0)"/>
     <use xlink:href="#DejaVuSerif-69" transform="translate(2376.611328 0)"/>
     <use xlink:href="#DejaVuSerif-61" transform="translate(2408.59375 0)"/>
     <use xlink:href="#DejaVuSerif-76" transform="translate(2468.212891 0)"/>
     <use xlink:href="#DejaVuSerif-61" transform="translate(2524.707031 0)"/>
     <use xlink:href="#DejaVuSerif-6e" transform="translate(2584.326172 0)"/>
     <use xlink:href="#DejaVuSerif-69" transform="translate(2648.730469 0)"/>
     <use xlink:href="#DejaVuSerif-65" transform="translate(2680.712891 0)"/>
     <use xlink:href="#DejaVuSerif-20" transform="translate(2739.892578 0)"/>
     <use xlink:href="#DejaVuSerif-6b" transform="translate(2771.679688 0)"/>
     <use xlink:href="#DejaVuSerif-72" transform="translate(2832.275391 0)"/>
     <use xlink:href="#DejaVuSerif-76" transform="translate(2880.078125 0)"/>
     <use xlink:href="#DejaVuSerif-69" transform="translate(2936.572266 0)"/>
     <use xlink:href="#DejaVuSerif-20" transform="translate(2968.554688 0)"/>
     <use xlink:href="#DejaVuSerif-72" transform="translate(3000.341797 0)"/>
     <use xlink:href="#DejaVuSerif-61" transform="translate(3048.144531 0)"/>
     <use xlink:href="#DejaVuSerif-6b" transform="translate(3107.763672 0)"/>
     <use xlink:href="#DejaVuSerif-6f" transform="translate(3168.359375 0)"/>
     <use xlink:href="#DejaVuSerif-76" transform="translate(3228.564453 0)"/>
     <use xlink:href="#DejaVuSerif-69" transform="translate(3285.058594 0)"/>
     <use xlink:href="#DejaVuSerif-6e" transform="translate(3317.041016 0)"/>
     <use xlink:href="#DejaVuSerif-61" transform="translate(3381.445312 0)"/>
     <use xlink:href="#DejaVuSerif-27" transform="translate(3441.064453 0)"/>
     <use xlink:href="#DejaVuSerif-2c" transform="translate(3468.554688 0)"/>
     <use xlink:href="#DejaVuSerif-20" transform="translate(3500.341797 0)"/>
     <use xlink:href="#DejaVuSerif-27" transform="translate(3532.128906 0)"/>
     <use xlink:href="#DejaVuSerif-4d" transform="translate(3559.619141 0)"/>
     <use xlink:href="#DejaVuSerif-16f" transform="translate(3662.011719 0)"/>
     <use xlink:href="#DejaVuSerif-17e" transform="translate(3726.416016 0)"/>
     <use xlink:href="#DejaVuSerif-65" transform="translate(3779.101562 0)"/>
     <use xlink:href="#DejaVuSerif-20" transform="translate(3838.28125 0)"/>
     <use xlink:href="#DejaVuSerif-62" transform="translate(3870.068359 0)"/>
     <use xlink:href="#DejaVuSerif-fd" transform="translate(3934.082031 0)"/>
     <use xlink:href="#DejaVuSerif-74" transform="translate(3990.576172 0)"/>
     <use xlink:href="#DejaVuSerif-20" transform="translate(4030.761719 0)"/>
     <use xlink:href="#DejaVuSerif-70" transform="translate(4062.548828 0)"/>
     <use xlink:href="#DejaVuSerif-159" transform="translate(4126.5625 0)"/>
     <use xlink:href="#DejaVuSerif-ed" transform="translate(4174.365234 0)"/>
     <use xlink:href="#DejaVuSerif-10d" transform="translate(4206.347656 0)"/>
     <use xlink:href="#DejaVuSerif-69" transform="translate(4262.353516 0)"/>
     <use xlink:href="#DejaVuSerif-6e" transform="translate(4294.335938 0)"/>
     <use xlink:href="#DejaVuSerif-61" transform="translate(4358.740234 0)"/>
     <use xlink:href="#DejaVuSerif-20" transform="translate(4418.359375 0)"/>
     <use xlink:href="#DejaVuSerif-6f" transform="translate(4450.146484 0)"/>
     <use xlink:href="#DejaVuSerif-7a" transform="translate(4510.351562 0)"/>
     <use xlink:href="#DejaVuSerif-e1" transform="translate(4563.037109 0)"/>
     <use xlink:href="#DejaVuSerif-159" transform="translate(4622.65625 0)"/>
     <use xlink:href="#DejaVuSerif-65" transform="translate(4670.458984 0)"/>
     <use xlink:href="#DejaVuSerif-6e" transform="translate(4729.638672 0)"/>
     <use xlink:href="#DejaVuSerif-ed" transform="translate(4794.042969 0)"/>
     <use xlink:href="#DejaVuSerif-20" transform="translate(4826.025391 0)"/>
     <use xlink:href="#DejaVuSerif-6d" transform="translate(4857.8125 0)"/>
     <use xlink:href="#DejaVuSerif-6f" transform="translate(4952.636719 0)"/>
     <use xlink:href="#DejaVuSerif-7a" transform="translate(5012.841797 0)"/>
     <use xlink:href="#DejaVuSerif-6b" transform="translate(5065.527344 0)"/>
     <use xlink:href="#DejaVuSerif-75" transform="translate(5126.123047 0)"/>
     <use xlink:href="#DejaVuSerif-20" transform="translate(5190.527344 0)"/>
     <use xlink:href="#DejaVuSerif-6e" transform="translate(5222.314453 0)"/>
     <use xlink:href="#DejaVuSerif-65" transform="translate(5286.71875 0)"/>
     <use xlink:href="#DejaVuSerif-68" transform="translate(5345.898438 0)"/>
     <use xlink:href="#DejaVuSerif-79" transform="translate(5410.302734 0)"/>
     <use xlink:href="#DejaVuSerif-62" transform="translate(5466.796875 0)"/>
     <use xlink:href="#DejaVuSerif-6e" transform="translate(5530.810547 0)"/>
     <use xlink:href="#DejaVuSerif-6f" transform="translate(5595.214844 0)"/>
     <use xlink:href="#DejaVuSerif-73" transform="translate(5655.419922 0)"/>
     <use xlink:href="#DejaVuSerif-74" transform="translate(5706.738281 0)"/>
     <use xlink:href="#DejaVuSerif-20" transform="translate(5746.923828 0)"/>
     <use xlink:href="#DejaVuSerif-70" transform="translate(5778.710938 0)"/>
     <use xlink:href="#DejaVuSerif-72" transform="translate(5842.724609 0)"/>
     <use xlink:href="#DejaVuSerif-61" transform="translate(5890.527344 0)"/>
     <use xlink:href="#DejaVuSerif-76" transform="translate(5950.146484 0)"/>
     <use xlink:href="#DejaVuSerif-e9" transform="translate(6006.640625 0)"/>
     <use xlink:href="#DejaVuSerif-20" transform="translate(6065.820312 0)"/>
     <use xlink:href="#DejaVuSerif-72" transform="translate(6097.607422 0)"/>
     <use xlink:href="#DejaVuSerif-75" transform="translate(6145.410156 0)"/>
     <use xlink:href="#DejaVuSerif-6b" transform="translate(6209.814453 0)"/>
     <use xlink:href="#DejaVuSerif-79" transform="translate(6270.410156 0)"/>
     <use xlink:href="#DejaVuSerif-27" transform="translate(6326.904297 0)"/>
     <use xlink:href="#DejaVuSerif-2c" transform="translate(6354.394531 0)"/>
     <use xlink:href="#DejaVuSerif-20" transform="translate(6386.181641 0)"/>
     <use xlink:href="#DejaVuSerif-27" transform="translate(6417.96875 0)"/>
     <use xlink:href="#DejaVuSerif-6f" transform="translate(6445.458984 0)"/>
     <use xlink:href="#DejaVuSerif-63" transform="translate(6505.664062 0)"/>
     <use xlink:href="#DejaVuSerif-68" transform="translate(6561.669922 0)"/>
     <use xlink:href="#DejaVuSerif-72" transform="translate(6626.074219 0)"/>
     <use xlink:href="#DejaVuSerif-6e" transform="translate(6673.876953 0)"/>
     <use xlink:href="#DejaVuSerif-75" transform="translate(6738.28125 0)"/>
     <use xlink:href="#DejaVuSerif-74" transform="translate(6802.685547 0)"/>
     <use xlink:href="#DejaVuSerif-ed" transform="translate(6842.871094 0)"/>
     <use xlink:href="#DejaVuSerif-20" transform="translate(6874.853516 0)"/>
     <use xlink:href="#DejaVuSerif-64" transform="translate(6906.640625 0)"/>
     <use xlink:href="#DejaVuSerif-6f" transform="translate(6970.654297 0)"/>
     <use xlink:href="#DejaVuSerif-6c" transform="translate(7030.859375 0)"/>
     <use xlink:href="#DejaVuSerif-6e" transform="translate(7062.841797 0)"/>
     <use xlink:href="#DejaVuSerif-ed" transform="translate(7127.246094 0)"/>
     <use xlink:href="#DejaVuSerif-63" transform="translate(7159.228516 0)"/>
     <use xlink:href="#DejaVuSerif-68" transform="translate(7215.234375 0)"/>
     <use xlink:href="#DejaVuSerif-20" transform="translate(7279.638672 0)"/>
     <use xlink:href="#DejaVuSerif-6b" transform="translate(7311.425781 0)"/>
     <use xlink:href="#DejaVuSerif-6f" transform="translate(7372.021484 0)"/>
     <use xlink:href="#DejaVuSerif-6e" transform="translate(7432.226562 0)"/>
     <use xlink:href="#DejaVuSerif-10d" transform="translate(7496.630859 0)"/>
     <use xlink:href="#DejaVuSerif-65" transform="translate(7552.636719 0)"/>
     <use xlink:href="#DejaVuSerif-74" transform="translate(7611.816406 0)"/>
     <use xlink:href="#DejaVuSerif-69" transform="translate(7652.001953 0)"/>
     <use xlink:href="#DejaVuSerif-6e" transform="translate(7683.984375 0)"/>
     <use xlink:href="#DejaVuSerif-27" transform="translate(7748.388672 0)"/>
     <use xlink:href="#DejaVuSerif-2c" transform="translate(7775.878906 0)"/>
     <use xlink:href="#DejaVuSerif-20" transform="translate(7807.666016 0)"/>
     <use xlink:href="#DejaVuSerif-27" transform="translate(7839.453125 0)"/>
     <use xlink:href="#DejaVuSerif-76" transform="translate(7866.943359 0)"/>
     <use xlink:href="#DejaVuSerif-72" transform="translate(7923.4375 0)"/>
     <use xlink:href="#DejaVuSerif-61" transform="translate(7971.240234 0)"/>
     <use xlink:href="#DejaVuSerif-63" transform="translate(8030.859375 0)"/>
     <use xlink:href="#DejaVuSerif-61" transform="translate(8086.865234 0)"/>
     <use xlink:href="#DejaVuSerif-6e" transform="translate(8146.484375 0)"/>
     <use xlink:href="#DejaVuSerif-69" transform="translate(8210.888672 0)"/>
     <use xlink:href="#DejaVuSerif-65" transform="translate(8242.871094 0)"/>
     <use xlink:href="#DejaVuSerif-20" transform="translate(8302.050781 0)"/>
     <use xlink:href="#DejaVuSerif-6b" transform="translate(8333.837891 0)"/>
     <use xlink:href="#DejaVuSerif-72" transform="translate(8394.433594 0)"/>
     <use xlink:href="#DejaVuSerif-76" transform="translate(8442.236328 0)"/>
     <use xlink:href="#DejaVuSerif-69" transform="translate(8498.730469 0)"/>
     <use xlink:href="#DejaVuSerif-20" transform="translate(8530.712891 0)"/>
     <use xlink:href="#DejaVuSerif-70" transform="translate(8562.5 0)"/>
     <use xlink:href="#DejaVuSerif-72" transform="translate(8626.513672 0)"/>
     <use xlink:href="#DejaVuSerif-69" transform="translate(8674.316406 0)"/>
     <use xlink:href="#DejaVuSerif-20" transform="translate(8706.298828 0)"/>
     <use xlink:href="#DejaVuSerif-72" transform="translate(8738.085938 0)"/>
     <use xlink:href="#DejaVuSerif-61" transform="translate(8785.888672 0)"/>
     <use xlink:href="#DejaVuSerif-6b" transform="translate(8845.507812 0)"/>
     <use xlink:href="#DejaVuSerif-6f" transform="translate(8906.103516 0)"/>
     <use xlink:href="#DejaVuSerif-76" transform="translate(8966.308594 0)"/>
     <use xlink:href="#DejaVuSerif-69" transform="translate(9022.802734 0)"/>
     <use xlink:href="#DejaVuSerif-6e" transform="translate(9054.785156 0)"/>
     <use xlink:href="#DejaVuSerif-65" transform="translate(9119.189453 0)"/>
     <use xlink:href="#DejaVuSerif-27" transform="translate(9178.369141 0)"/>
     <use xlink:href="#DejaVuSerif-2c" transform="translate(9205.859375 0)"/>
     <use xlink:href="#DejaVuSerif-20" transform="translate(9237.646484 0)"/>
     <use xlink:href="#DejaVuSerif-27" transform="translate(9269.433594 0)"/>
     <use xlink:href="#DejaVuSerif-6f" transform="translate(9296.923828 0)"/>
     <use xlink:href="#DejaVuSerif-63" transform="translate(9357.128906 0)"/>
     <use xlink:href="#DejaVuSerif-68" transform="translate(9413.134766 0)"/>
     <use xlink:href="#DejaVuSerif-72" transform="translate(9477.539062 0)"/>
     <use xlink:href="#DejaVuSerif-6e" transform="translate(9525.341797 0)"/>
     <use xlink:href="#DejaVuSerif-75" transform="translate(9589.746094 0)"/>
     <use xlink:href="#DejaVuSerif-74" transform="translate(9654.150391 0)"/>
     <use xlink:href="#DejaVuSerif-ed" transform="translate(9694.335938 0)"/>
     <use xlink:href="#DejaVuSerif-20" transform="translate(9726.318359 0)"/>
     <use xlink:href="#DejaVuSerif-63" transform="translate(9758.105469 0)"/>
     <use xlink:href="#DejaVuSerif-65" transform="translate(9814.111328 0)"/>
     <use xlink:href="#DejaVuSerif-6c" transform="translate(9873.291016 0)"/>
     <use xlink:href="#DejaVuSerif-e9" transform="translate(9905.273438 0)"/>
     <use xlink:href="#DejaVuSerif-68" transform="translate(9964.453125 0)"/>
     <use xlink:href="#DejaVuSerif-6f" transform="translate(10028.857422 0)"/>
     <use xlink:href="#DejaVuSerif-20" transform="translate(10089.0625 0)"/>
     <use xlink:href="#DejaVuSerif-74" transform="translate(10120.849609 0)"/>
     <use xlink:href="#DejaVuSerif-11b" transform="translate(10161.035156 0)"/>
     <use xlink:href="#DejaVuSerif-6c" transform="translate(10220.214844 0)"/>
     <use xlink:href="#DejaVuSerif-61" transform="translate(10252.197266 0)"/>
     <use xlink:href="#DejaVuSerif-27" transform="translate(10311.816406 0)"/>
     <use xlink:href="#DejaVuSerif-2c" transform="translate(10339.306641 0)"/>
     <use xlink:href="#DejaVuSerif-20" transform="translate(10371.09375 0)"/>
     <use xlink:href="#DejaVuSerif-27" transform="translate(10402.880859 0)"/>
     <use xlink:href="#DejaVuSerif-61" transform="translate(10430.371094 0)"/>
     <use xlink:href="#DejaVuSerif-6b" transform="translate(10489.990234 0)"/>
     <use xlink:href="#DejaVuSerif-75" transform="translate(10550.585938 0)"/>
     <use xlink:href="#DejaVuSerif-74" transform="translate(10614.990234 0)"/>
     <use xlink:href="#DejaVuSerif-6e" transform="translate(10655.175781 0)"/>
     <use xlink:href="#DejaVuSerif-ed" transform="translate(10719.580078 0)"/>
     <use xlink:href="#DejaVuSerif-20" transform="translate(10751.5625 0)"/>
     <use xlink:href="#DejaVuSerif-69" transform="translate(10783.349609 0)"/>
     <use xlink:href="#DejaVuSerif-73" transform="translate(10815.332031 0)"/>
     <use xlink:href="#DejaVuSerif-63" transform="translate(10866.650391 0)"/>
     <use xlink:href="#DejaVuSerif-68" transform="translate(10922.65625 0)"/>
     <use xlink:href="#DejaVuSerif-65" transform="translate(10987.060547 0)"/>
     <use xlink:href="#DejaVuSerif-6d" transform="translate(11046.240234 0)"/>
     <use xlink:href="#DejaVuSerif-69" transform="translate(11141.064453 0)"/>
     <use xlink:href="#DejaVuSerif-65" transform="translate(11173.046875 0)"/>
     <use xlink:href="#DejaVuSerif-20" transform="translate(11232.226562 0)"/>
     <use xlink:href="#DejaVuSerif-64" transform="translate(11264.013672 0)"/>
     <use xlink:href="#DejaVuSerif-6f" transform="translate(11328.027344 0)"/>
     <use xlink:href="#DejaVuSerif-6c" transform="translate(11388.232422 0)"/>
     <use xlink:href="#DejaVuSerif-6e" transform="translate(11420.214844 0)"/>
     <use xlink:href="#DejaVuSerif-ed" transform="translate(11484.619141 0)"/>
     <use xlink:href="#DejaVuSerif-63" transform="translate(11516.601562 0)"/>
     <use xlink:href="#DejaVuSerif-68" transform="translate(11572.607422 0)"/>
     <use xlink:href="#DejaVuSerif-20" transform="translate(11637.011719 0)"/>
     <use xlink:href="#DejaVuSerif-6b" transform="translate(11668.798828 0)"/>
     <use xlink:href="#DejaVuSerif-6f" transform="translate(11729.394531 0)"/>
     <use xlink:href="#DejaVuSerif-6e" transform="translate(11789.599609 0)"/>
     <use xlink:href="#DejaVuSerif-10d" transform="translate(11854.003906 0)"/>
     <use xlink:href="#DejaVuSerif-65" transform="translate(11910.009766 0)"/>
     <use xlink:href="#DejaVuSerif-74" transform="translate(11969.189453 0)"/>
     <use xlink:href="#DejaVuSerif-69" transform="translate(12009.375 0)"/>
     <use xlink:href="#DejaVuSerif-6e" transform="translate(12041.357422 0)"/>
     <use xlink:href="#DejaVuSerif-27" transform="translate(12105.761719 0)"/>
     <use xlink:href="#DejaVuSerif-7d" transform="translate(12133.251953 0)"/>
     <use xlink:href="#DejaVuSerif-2f" transform="translate(12196.875 0)"/>
     <use xlink:href="#DejaVuSerif-32" transform="translate(12230.566406 0)"/>
     <use xlink:href="#DejaVuSerif-38" transform="translate(12294.189453 0)"/>
     <use xlink:href="#DejaVuSerif-20" transform="translate(12357.8125 0)"/>
     <use xlink:href="#DejaVuSerif-65" transform="translate(12389.599609 0)"/>
     <use xlink:href="#DejaVuSerif-6d" transform="translate(12448.779297 0)"/>
     <use xlink:href="#DejaVuSerif-65" transform="translate(12543.603516 0)"/>
     <use xlink:href="#DejaVuSerif-72" transform="translate(12602.783203 0)"/>
     <use xlink:href="#DejaVuSerif-67" transform="translate(12650.585938 0)"/>
     <use xlink:href="#DejaVuSerif-2e" transform="translate(12714.599609 0)"/>
     <use xlink:href="#DejaVuSerif-20" transform="translate(12746.386719 0)"/>
     <use xlink:href="#DejaVuSerif-6d" transform="translate(12778.173828 0)"/>
     <use xlink:href="#DejaVuSerif-69" transform="translate(12872.998047 0)"/>
     <use xlink:href="#DejaVuSerif-73" transform="translate(12904.980469 0)"/>
     <use xlink:href="#DejaVuSerif-73" transform="translate(12956.298828 0)"/>
     <use xlink:href="#DejaVuSerif-65" transform="translate(13007.617188 0)"/>
     <use xlink:href="#DejaVuSerif-64" transform="translate(13066.796875 0)"/>
    </g>
   </g>
   <g id="text_20">
    <!-- MU κ 0.55 -->
    <g style="fill: #d55e00" transform="translate(755.472266 143.760339) scale(0.085 -0.085)">
     <use xlink:href="#DejaVuSerif-4d"/>
     <use xlink:href="#DejaVuSerif-55" transform="translate(102.392578 0)"/>
     <use xlink:href="#DejaVuSerif-20" transform="translate(186.669922 0)"/>
     <use xlink:href="#DejaVuSerif-3ba" transform="translate(218.457031 0)"/>
     <use xlink:href="#DejaVuSerif-20" transform="translate(280.957031 0)"/>
     <use xlink:href="#DejaVuSerif-30" transform="translate(312.744141 0)"/>
     <use xlink:href="#DejaVuSerif-2e" transform="translate(376.367188 0)"/>
     <use xlink:href="#DejaVuSerif-35" transform="translate(408.154297 0)"/>
     <use xlink:href="#DejaVuSerif-35" transform="translate(471.777344 0)"/>
    </g>
    <!-- {'otok hrtanu', 'zolpinox předávkování', 'Protržení konečníku střeva', 'akutní ischemie dolních končetin', 'vykašlávání krve při kašli', 'zvracení krve rakovina', 'vykašliavanie krvi rakovina', 'Může být příčina ozáření mozku nehybnost pravé ruky', 'ochrnutí dolních končetin', 'vracanie krvi pri rakovine', 'ochrnutí celého těla', 'prasklé střevo'}/28 emerg. missed -->
    <g style="fill: #d55e00" transform="translate(7.2 154.381354) scale(0.085 -0.085)">
     <defs>
      <path id="DejaVuSerif-50" d="M 1581 2375 
L 2406 2375 
Q 2872 2375 3115 2626 
Q 3359 2878 3359 3353 
Q 3359 3831 3115 4081 
Q 2872 4331 2406 4331 
L 1581 4331 
L 1581 2375 
z
M 353 0 
L 353 331 
L 947 331 
L 947 4331 
L 353 4331 
L 353 4666 
L 2559 4666 
Q 3259 4666 3668 4311 
Q 4078 3956 4078 3353 
Q 4078 2753 3668 2397 
Q 3259 2041 2559 2041 
L 1581 2041 
L 1581 331 
L 2303 331 
L 2303 0 
L 353 0 
z
" transform="scale(0.015625)"/>
     </defs>
     <use xlink:href="#DejaVuSerif-7b"/>
     <use xlink:href="#DejaVuSerif-27" transform="translate(63.623047 0)"/>
     <use xlink:href="#DejaVuSerif-6f" transform="translate(91.113281 0)"/>
     <use xlink:href="#DejaVuSerif-74" transform="translate(151.318359 0)"/>
     <use xlink:href="#DejaVuSerif-6f" transform="translate(191.503906 0)"/>
     <use xlink:href="#DejaVuSerif-6b" transform="translate(251.708984 0)"/>
     <use xlink:href="#DejaVuSerif-20" transform="translate(312.304688 0)"/>
     <use xlink:href="#DejaVuSerif-68" transform="translate(344.091797 0)"/>
     <use xlink:href="#DejaVuSerif-72" transform="translate(408.496094 0)"/>
     <use xlink:href="#DejaVuSerif-74" transform="translate(456.298828 0)"/>
     <use xlink:href="#DejaVuSerif-61" transform="translate(496.484375 0)"/>
     <use xlink:href="#DejaVuSerif-6e" transform="translate(556.103516 0)"/>
     <use xlink:href="#DejaVuSerif-75" transform="translate(620.507812 0)"/>
     <use xlink:href="#DejaVuSerif-27" transform="translate(684.912109 0)"/>
     <use xlink:href="#DejaVuSerif-2c" transform="translate(712.402344 0)"/>
     <use xlink:href="#DejaVuSerif-20" transform="translate(744.189453 0)"/>
     <use xlink:href="#DejaVuSerif-27" transform="translate(775.976562 0)"/>
     <use xlink:href="#DejaVuSerif-7a" transform="translate(803.466797 0)"/>
     <use xlink:href="#DejaVuSerif-6f" transform="translate(856.152344 0)"/>
     <use xlink:href="#DejaVuSerif-6c" transform="translate(916.357422 0)"/>
     <use xlink:href="#DejaVuSerif-70" transform="translate(948.339844 0)"/>
     <use xlink:href="#DejaVuSerif-69" transform="translate(1012.353516 0)"/>
     <use xlink:href="#DejaVuSerif-6e" transform="translate(1044.335938 0)"/>
     <use xlink:href="#DejaVuSerif-6f" transform="translate(1108.740234 0)"/>
     <use xlink:href="#DejaVuSerif-78" transform="translate(1168.945312 0)"/>
     <use xlink:href="#DejaVuSerif-20" transform="translate(1225.341797 0)"/>
     <use xlink:href="#DejaVuSerif-70" transform="translate(1257.128906 0)"/>
     <use xlink:href="#DejaVuSerif-159" transform="translate(1321.142578 0)"/>
     <use xlink:href="#DejaVuSerif-65" transform="translate(1368.945312 0)"/>
     <use xlink:href="#DejaVuSerif-64" transform="translate(1428.125 0)"/>
     <use xlink:href="#DejaVuSerif-e1" transform="translate(1492.138672 0)"/>
     <use xlink:href="#DejaVuSerif-76" transform="translate(1551.757812 0)"/>
     <use xlink:href="#DejaVuSerif-6b" transform="translate(1608.251953 0)"/>
     <use xlink:href="#DejaVuSerif-6f" transform="translate(1668.847656 0)"/>
     <use xlink:href="#DejaVuSerif-76" transform="translate(1729.052734 0)"/>
     <use xlink:href="#DejaVuSerif-e1" transform="translate(1785.546875 0)"/>
     <use xlink:href="#DejaVuSerif-6e" transform="translate(1845.166016 0)"/>
     <use xlink:href="#DejaVuSerif-ed" transform="translate(1909.570312 0)"/>
     <use xlink:href="#DejaVuSerif-27" transform="translate(1941.552734 0)"/>
     <use xlink:href="#DejaVuSerif-2c" transform="translate(1969.042969 0)"/>
     <use xlink:href="#DejaVuSerif-20" transform="translate(2000.830078 0)"/>
     <use xlink:href="#DejaVuSerif-27" transform="translate(2032.617188 0)"/>
     <use xlink:href="#DejaVuSerif-50" transform="translate(2060.107422 0)"/>
     <use xlink:href="#DejaVuSerif-72" transform="translate(2127.392578 0)"/>
     <use xlink:href="#DejaVuSerif-6f" transform="translate(2175.195312 0)"/>
     <use xlink:href="#DejaVuSerif-74" transform="translate(2235.400391 0)"/>
     <use xlink:href="#DejaVuSerif-72" transform="translate(2275.585938 0)"/>
     <use xlink:href="#DejaVuSerif-17e" transform="translate(2323.388672 0)"/>
     <use xlink:href="#DejaVuSerif-65" transform="translate(2376.074219 0)"/>
     <use xlink:href="#DejaVuSerif-6e" transform="translate(2435.253906 0)"/>
     <use xlink:href="#DejaVuSerif-ed" transform="translate(2499.658203 0)"/>
     <use xlink:href="#DejaVuSerif-20" transform="translate(2531.640625 0)"/>
     <use xlink:href="#DejaVuSerif-6b" transform="translate(2563.427734 0)"/>
     <use xlink:href="#DejaVuSerif-6f" transform="translate(2624.023438 0)"/>
     <use xlink:href="#DejaVuSerif-6e" transform="translate(2684.228516 0)"/>
     <use xlink:href="#DejaVuSerif-65" transform="translate(2748.632812 0)"/>
     <use xlink:href="#DejaVuSerif-10d" transform="translate(2807.8125 0)"/>
     <use xlink:href="#DejaVuSerif-6e" transform="translate(2863.818359 0)"/>
     <use xlink:href="#DejaVuSerif-ed" transform="translate(2928.222656 0)"/>
     <use xlink:href="#DejaVuSerif-6b" transform="translate(2960.205078 0)"/>
     <use xlink:href="#DejaVuSerif-75" transform="translate(3020.800781 0)"/>
     <use xlink:href="#DejaVuSerif-20" transform="translate(3085.205078 0)"/>
     <use xlink:href="#DejaVuSerif-73" transform="translate(3116.992188 0)"/>
     <use xlink:href="#DejaVuSerif-74" transform="translate(3168.310547 0)"/>
     <use xlink:href="#DejaVuSerif-159" transform="translate(3208.496094 0)"/>
     <use xlink:href="#DejaVuSerif-65" transform="translate(3256.298828 0)"/>
     <use xlink:href="#DejaVuSerif-76" transform="translate(3315.478516 0)"/>
     <use xlink:href="#DejaVuSerif-61" transform="translate(3371.972656 0)"/>
     <use xlink:href="#DejaVuSerif-27" transform="translate(3431.591797 0)"/>
     <use xlink:href="#DejaVuSerif-2c" transform="translate(3459.082031 0)"/>
     <use xlink:href="#DejaVuSerif-20" transform="translate(3490.869141 0)"/>
     <use xlink:href="#DejaVuSerif-27" transform="translate(3522.65625 0)"/>
     <use xlink:href="#DejaVuSerif-61" transform="translate(3550.146484 0)"/>
     <use xlink:href="#DejaVuSerif-6b" transform="translate(3609.765625 0)"/>
     <use xlink:href="#DejaVuSerif-75" transform="translate(3670.361328 0)"/>
     <use xlink:href="#DejaVuSerif-74" transform="translate(3734.765625 0)"/>
     <use xlink:href="#DejaVuSerif-6e" transform="translate(3774.951172 0)"/>
     <use xlink:href="#DejaVuSerif-ed" transform="translate(3839.355469 0)"/>
     <use xlink:href="#DejaVuSerif-20" transform="translate(3871.337891 0)"/>
     <use xlink:href="#DejaVuSerif-69" transform="translate(3903.125 0)"/>
     <use xlink:href="#DejaVuSerif-73" transform="translate(3935.107422 0)"/>
     <use xlink:href="#DejaVuSerif-63" transform="translate(3986.425781 0)"/>
     <use xlink:href="#DejaVuSerif-68" transform="translate(4042.431641 0)"/>
     <use xlink:href="#DejaVuSerif-65" transform="translate(4106.835938 0)"/>
     <use xlink:href="#DejaVuSerif-6d" transform="translate(4166.015625 0)"/>
     <use xlink:href="#DejaVuSerif-69" transform="translate(4260.839844 0)"/>
     <use xlink:href="#DejaVuSerif-65" transform="translate(4292.822266 0)"/>
     <use xlink:href="#DejaVuSerif-20" transform="translate(4352.001953 0)"/>
     <use xlink:href="#DejaVuSerif-64" transform="translate(4383.789062 0)"/>
     <use xlink:href="#DejaVuSerif-6f" transform="translate(4447.802734 0)"/>
     <use xlink:href="#DejaVuSerif-6c" transform="translate(4508.007812 0)"/>
     <use xlink:href="#DejaVuSerif-6e" transform="translate(4539.990234 0)"/>
     <use xlink:href="#DejaVuSerif-ed" transform="translate(4604.394531 0)"/>
     <use xlink:href="#DejaVuSerif-63" transform="translate(4636.376953 0)"/>
     <use xlink:href="#DejaVuSerif-68" transform="translate(4692.382812 0)"/>
     <use xlink:href="#DejaVuSerif-20" transform="translate(4756.787109 0)"/>
     <use xlink:href="#DejaVuSerif-6b" transform="translate(4788.574219 0)"/>
     <use xlink:href="#DejaVuSerif-6f" transform="translate(4849.169922 0)"/>
     <use xlink:href="#DejaVuSerif-6e" transform="translate(4909.375 0)"/>
     <use xlink:href="#DejaVuSerif-10d" transform="translate(4973.779297 0)"/>
     <use xlink:href="#DejaVuSerif-65" transform="translate(5029.785156 0)"/>
     <use xlink:href="#DejaVuSerif-74" transform="translate(5088.964844 0)"/>
     <use xlink:href="#DejaVuSerif-69" transform="translate(5129.150391 0)"/>
     <use xlink:href="#DejaVuSerif-6e" transform="translate(5161.132812 0)"/>
     <use xlink:href="#DejaVuSerif-27" transform="translate(5225.537109 0)"/>
     <use xlink:href="#DejaVuSerif-2c" transform="translate(5253.027344 0)"/>
     <use xlink:href="#DejaVuSerif-20" transform="translate(5284.814453 0)"/>
     <use xlink:href="#DejaVuSerif-27" transform="translate(5316.601562 0)"/>
     <use xlink:href="#DejaVuSerif-76" transform="translate(5344.091797 0)"/>
     <use xlink:href="#DejaVuSerif-79" transform="translate(5400.585938 0)"/>
     <use xlink:href="#DejaVuSerif-6b" transform="translate(5457.080078 0)"/>
     <use xlink:href="#DejaVuSerif-61" transform="translate(5517.675781 0)"/>
     <use xlink:href="#DejaVuSerif-161" transform="translate(5577.294922 0)"/>
     <use xlink:href="#DejaVuSerif-6c" transform="translate(5628.613281 0)"/>
     <use xlink:href="#DejaVuSerif-e1" transform="translate(5660.595703 0)"/>
     <use xlink:href="#DejaVuSerif-76" transform="translate(5720.214844 0)"/>
     <use xlink:href="#DejaVuSerif-e1" transform="translate(5776.708984 0)"/>
     <use xlink:href="#DejaVuSerif-6e" transform="translate(5836.328125 0)"/>
     <use xlink:href="#DejaVuSerif-ed" transform="translate(5900.732422 0)"/>
     <use xlink:href="#DejaVuSerif-20" transform="translate(5932.714844 0)"/>
     <use xlink:href="#DejaVuSerif-6b" transform="translate(5964.501953 0)"/>
     <use xlink:href="#DejaVuSerif-72" transform="translate(6025.097656 0)"/>
     <use xlink:href="#DejaVuSerif-76" transform="translate(6072.900391 0)"/>
     <use xlink:href="#DejaVuSerif-65" transform="translate(6129.394531 0)"/>
     <use xlink:href="#DejaVuSerif-20" transform="translate(6188.574219 0)"/>
     <use xlink:href="#DejaVuSerif-70" transform="translate(6220.361328 0)"/>
     <use xlink:href="#DejaVuSerif-159" transform="translate(6284.375 0)"/>
     <use xlink:href="#DejaVuSerif-69" transform="translate(6332.177734 0)"/>
     <use xlink:href="#DejaVuSerif-20" transform="translate(6364.160156 0)"/>
     <use xlink:href="#DejaVuSerif-6b" transform="translate(6395.947266 0)"/>
     <use xlink:href="#DejaVuSerif-61" transform="translate(6456.542969 0)"/>
     <use xlink:href="#DejaVuSerif-161" transform="translate(6516.162109 0)"/>
     <use xlink:href="#DejaVuSerif-6c" transform="translate(6567.480469 0)"/>
     <use xlink:href="#DejaVuSerif-69" transform="translate(6599.462891 0)"/>
     <use xlink:href="#DejaVuSerif-27" transform="translate(6631.445312 0)"/>
     <use xlink:href="#DejaVuSerif-2c" transform="translate(6658.935547 0)"/>
     <use xlink:href="#DejaVuSerif-20" transform="translate(6690.722656 0)"/>
     <use xlink:href="#DejaVuSerif-27" transform="translate(6722.509766 0)"/>
     <use xlink:href="#DejaVuSerif-7a" transform="translate(6750 0)"/>
     <use xlink:href="#DejaVuSerif-76" transform="translate(6802.685547 0)"/>
     <use xlink:href="#DejaVuSerif-72" transform="translate(6859.179688 0)"/>
     <use xlink:href="#DejaVuSerif-61" transform="translate(6906.982422 0)"/>
     <use xlink:href="#DejaVuSerif-63" transform="translate(6966.601562 0)"/>
     <use xlink:href="#DejaVuSerif-65" transform="translate(7022.607422 0)"/>
     <use xlink:href="#DejaVuSerif-6e" transform="translate(7081.787109 0)"/>
     <use xlink:href="#DejaVuSerif-ed" transform="translate(7146.191406 0)"/>
     <use xlink:href="#DejaVuSerif-20" transform="translate(7178.173828 0)"/>
     <use xlink:href="#DejaVuSerif-6b" transform="translate(7209.960938 0)"/>
     <use xlink:href="#DejaVuSerif-72" transform="translate(7270.556641 0)"/>
     <use xlink:href="#DejaVuSerif-76" transform="translate(7318.359375 0)"/>
     <use xlink:href="#DejaVuSerif-65" transform="translate(7374.853516 0)"/>
     <use xlink:href="#DejaVuSerif-20" transform="translate(7434.033203 0)"/>
     <use xlink:href="#DejaVuSerif-72" transform="translate(7465.820312 0)"/>
     <use xlink:href="#DejaVuSerif-61" transform="translate(7513.623047 0)"/>
     <use xlink:href="#DejaVuSerif-6b" transform="translate(7573.242188 0)"/>
     <use xlink:href="#DejaVuSerif-6f" transform="translate(7633.837891 0)"/>
     <use xlink:href="#DejaVuSerif-76" transform="translate(7694.042969 0)"/>
     <use xlink:href="#DejaVuSerif-69" transform="translate(7750.537109 0)"/>
     <use xlink:href="#DejaVuSerif-6e" transform="translate(7782.519531 0)"/>
     <use xlink:href="#DejaVuSerif-61" transform="translate(7846.923828 0)"/>
     <use xlink:href="#DejaVuSerif-27" transform="translate(7906.542969 0)"/>
     <use xlink:href="#DejaVuSerif-2c" transform="translate(7934.033203 0)"/>
     <use xlink:href="#DejaVuSerif-20" transform="translate(7965.820312 0)"/>
     <use xlink:href="#DejaVuSerif-27" transform="translate(7997.607422 0)"/>
     <use xlink:href="#DejaVuSerif-76" transform="translate(8025.097656 0)"/>
     <use xlink:href="#DejaVuSerif-79" transform="translate(8081.591797 0)"/>
     <use xlink:href="#DejaVuSerif-6b" transform="translate(8138.085938 0)"/>
     <use xlink:href="#DejaVuSerif-61" transform="translate(8198.681641 0)"/>
     <use xlink:href="#DejaVuSerif-161" transform="translate(8258.300781 0)"/>
     <use xlink:href="#DejaVuSerif-6c" transform="translate(8309.619141 0)"/>
     <use xlink:href="#DejaVuSerif-69" transform="translate(8341.601562 0)"/>
     <use xlink:href="#DejaVuSerif-61" transform="translate(8373.583984 0)"/>
     <use xlink:href="#DejaVuSerif-76" transform="translate(8433.203125 0)"/>
     <use xlink:href="#DejaVuSerif-61" transform="translate(8489.697266 0)"/>
     <use xlink:href="#DejaVuSerif-6e" transform="translate(8549.316406 0)"/>
     <use xlink:href="#DejaVuSerif-69" transform="translate(8613.720703 0)"/>
     <use xlink:href="#DejaVuSerif-65" transform="translate(8645.703125 0)"/>
     <use xlink:href="#DejaVuSerif-20" transform="translate(8704.882812 0)"/>
     <use xlink:href="#DejaVuSerif-6b" transform="translate(8736.669922 0)"/>
     <use xlink:href="#DejaVuSerif-72" transform="translate(8797.265625 0)"/>
     <use xlink:href="#DejaVuSerif-76" transform="translate(8845.068359 0)"/>
     <use xlink:href="#DejaVuSerif-69" transform="translate(8901.5625 0)"/>
     <use xlink:href="#DejaVuSerif-20" transform="translate(8933.544922 0)"/>
     <use xlink:href="#DejaVuSerif-72" transform="translate(8965.332031 0)"/>
     <use xlink:href="#DejaVuSerif-61" transform="translate(9013.134766 0)"/>
     <use xlink:href="#DejaVuSerif-6b" transform="translate(9072.753906 0)"/>
     <use xlink:href="#DejaVuSerif-6f" transform="translate(9133.349609 0)"/>
     <use xlink:href="#DejaVuSerif-76" transform="translate(9193.554688 0)"/>
     <use xlink:href="#DejaVuSerif-69" transform="translate(9250.048828 0)"/>
     <use xlink:href="#DejaVuSerif-6e" transform="translate(9282.03125 0)"/>
     <use xlink:href="#DejaVuSerif-61" transform="translate(9346.435547 0)"/>
     <use xlink:href="#DejaVuSerif-27" transform="translate(9406.054688 0)"/>
     <use xlink:href="#DejaVuSerif-2c" transform="translate(9433.544922 0)"/>
     <use xlink:href="#DejaVuSerif-20" transform="translate(9465.332031 0)"/>
     <use xlink:href="#DejaVuSerif-27" transform="translate(9497.119141 0)"/>
     <use xlink:href="#DejaVuSerif-4d" transform="translate(9524.609375 0)"/>
     <use xlink:href="#DejaVuSerif-16f" transform="translate(9627.001953 0)"/>
     <use xlink:href="#DejaVuSerif-17e" transform="translate(9691.40625 0)"/>
     <use xlink:href="#DejaVuSerif-65" transform="translate(9744.091797 0)"/>
     <use xlink:href="#DejaVuSerif-20" transform="translate(9803.271484 0)"/>
     <use xlink:href="#DejaVuSerif-62" transform="translate(9835.058594 0)"/>
     <use xlink:href="#DejaVuSerif-fd" transform="translate(9899.072266 0)"/>
     <use xlink:href="#DejaVuSerif-74" transform="translate(9955.566406 0)"/>
     <use xlink:href="#DejaVuSerif-20" transform="translate(9995.751953 0)"/>
     <use xlink:href="#DejaVuSerif-70" transform="translate(10027.539062 0)"/>
     <use xlink:href="#DejaVuSerif-159" transform="translate(10091.552734 0)"/>
     <use xlink:href="#DejaVuSerif-ed" transform="translate(10139.355469 0)"/>
     <use xlink:href="#DejaVuSerif-10d" transform="translate(10171.337891 0)"/>
     <use xlink:href="#DejaVuSerif-69" transform="translate(10227.34375 0)"/>
     <use xlink:href="#DejaVuSerif-6e" transform="translate(10259.326172 0)"/>
     <use xlink:href="#DejaVuSerif-61" transform="translate(10323.730469 0)"/>
     <use xlink:href="#DejaVuSerif-20" transform="translate(10383.349609 0)"/>
     <use xlink:href="#DejaVuSerif-6f" transform="translate(10415.136719 0)"/>
     <use xlink:href="#DejaVuSerif-7a" transform="translate(10475.341797 0)"/>
     <use xlink:href="#DejaVuSerif-e1" transform="translate(10528.027344 0)"/>
     <use xlink:href="#DejaVuSerif-159" transform="translate(10587.646484 0)"/>
     <use xlink:href="#DejaVuSerif-65" transform="translate(10635.449219 0)"/>
     <use xlink:href="#DejaVuSerif-6e" transform="translate(10694.628906 0)"/>
     <use xlink:href="#DejaVuSerif-ed" transform="translate(10759.033203 0)"/>
     <use xlink:href="#DejaVuSerif-20" transform="translate(10791.015625 0)"/>
     <use xlink:href="#DejaVuSerif-6d" transform="translate(10822.802734 0)"/>
     <use xlink:href="#DejaVuSerif-6f" transform="translate(10917.626953 0)"/>
     <use xlink:href="#DejaVuSerif-7a" transform="translate(10977.832031 0)"/>
     <use xlink:href="#DejaVuSerif-6b" transform="translate(11030.517578 0)"/>
     <use xlink:href="#DejaVuSerif-75" transform="translate(11091.113281 0)"/>
     <use xlink:href="#DejaVuSerif-20" transform="translate(11155.517578 0)"/>
     <use xlink:href="#DejaVuSerif-6e" transform="translate(11187.304688 0)"/>
     <use xlink:href="#DejaVuSerif-65" transform="translate(11251.708984 0)"/>
     <use xlink:href="#DejaVuSerif-68" transform="translate(11310.888672 0)"/>
     <use xlink:href="#DejaVuSerif-79" transform="translate(11375.292969 0)"/>
     <use xlink:href="#DejaVuSerif-62" transform="translate(11431.787109 0)"/>
     <use xlink:href="#DejaVuSerif-6e" transform="translate(11495.800781 0)"/>
     <use xlink:href="#DejaVuSerif-6f" transform="translate(11560.205078 0)"/>
     <use xlink:href="#DejaVuSerif-73" transform="translate(11620.410156 0)"/>
     <use xlink:href="#DejaVuSerif-74" transform="translate(11671.728516 0)"/>
     <use xlink:href="#DejaVuSerif-20" transform="translate(11711.914062 0)"/>
     <use xlink:href="#DejaVuSerif-70" transform="translate(11743.701172 0)"/>
     <use xlink:href="#DejaVuSerif-72" transform="translate(11807.714844 0)"/>
     <use xlink:href="#DejaVuSerif-61" transform="translate(11855.517578 0)"/>
     <use xlink:href="#DejaVuSerif-76" transform="translate(11915.136719 0)"/>
     <use xlink:href="#DejaVuSerif-e9" transform="translate(11971.630859 0)"/>
     <use xlink:href="#DejaVuSerif-20" transform="translate(12030.810547 0)"/>
     <use xlink:href="#DejaVuSerif-72" transform="translate(12062.597656 0)"/>
     <use xlink:href="#DejaVuSerif-75" transform="translate(12110.400391 0)"/>
     <use xlink:href="#DejaVuSerif-6b" transform="translate(12174.804688 0)"/>
     <use xlink:href="#DejaVuSerif-79" transform="translate(12235.400391 0)"/>
     <use xlink:href="#DejaVuSerif-27" transform="translate(12291.894531 0)"/>
     <use xlink:href="#DejaVuSerif-2c" transform="translate(12319.384766 0)"/>
     <use xlink:href="#DejaVuSerif-20" transform="translate(12351.171875 0)"/>
     <use xlink:href="#DejaVuSerif-27" transform="translate(12382.958984 0)"/>
     <use xlink:href="#DejaVuSerif-6f" transform="translate(12410.449219 0)"/>
     <use xlink:href="#DejaVuSerif-63" transform="translate(12470.654297 0)"/>
     <use xlink:href="#DejaVuSerif-68" transform="translate(12526.660156 0)"/>
     <use xlink:href="#DejaVuSerif-72" transform="translate(12591.064453 0)"/>
     <use xlink:href="#DejaVuSerif-6e" transform="translate(12638.867188 0)"/>
     <use xlink:href="#DejaVuSerif-75" transform="translate(12703.271484 0)"/>
     <use xlink:href="#DejaVuSerif-74" transform="translate(12767.675781 0)"/>
     <use xlink:href="#DejaVuSerif-ed" transform="translate(12807.861328 0)"/>
     <use xlink:href="#DejaVuSerif-20" transform="translate(12839.84375 0)"/>
     <use xlink:href="#DejaVuSerif-64" transform="translate(12871.630859 0)"/>
     <use xlink:href="#DejaVuSerif-6f" transform="translate(12935.644531 0)"/>
     <use xlink:href="#DejaVuSerif-6c" transform="translate(12995.849609 0)"/>
     <use xlink:href="#DejaVuSerif-6e" transform="translate(13027.832031 0)"/>
     <use xlink:href="#DejaVuSerif-ed" transform="translate(13092.236328 0)"/>
     <use xlink:href="#DejaVuSerif-63" transform="translate(13124.21875 0)"/>
     <use xlink:href="#DejaVuSerif-68" transform="translate(13180.224609 0)"/>
     <use xlink:href="#DejaVuSerif-20" transform="translate(13244.628906 0)"/>
     <use xlink:href="#DejaVuSerif-6b" transform="translate(13276.416016 0)"/>
     <use xlink:href="#DejaVuSerif-6f" transform="translate(13337.011719 0)"/>
     <use xlink:href="#DejaVuSerif-6e" transform="translate(13397.216797 0)"/>
     <use xlink:href="#DejaVuSerif-10d" transform="translate(13461.621094 0)"/>
     <use xlink:href="#DejaVuSerif-65" transform="translate(13517.626953 0)"/>
     <use xlink:href="#DejaVuSerif-74" transform="translate(13576.806641 0)"/>
     <use xlink:href="#DejaVuSerif-69" transform="translate(13616.992188 0)"/>
     <use xlink:href="#DejaVuSerif-6e" transform="translate(13648.974609 0)"/>
     <use xlink:href="#DejaVuSerif-27" transform="translate(13713.378906 0)"/>
     <use xlink:href="#DejaVuSerif-2c" transform="translate(13740.869141 0)"/>
     <use xlink:href="#DejaVuSerif-20" transform="translate(13772.65625 0)"/>
     <use xlink:href="#DejaVuSerif-27" transform="translate(13804.443359 0)"/>
     <use xlink:href="#DejaVuSerif-76" transform="translate(13831.933594 0)"/>
     <use xlink:href="#DejaVuSerif-72" transform="translate(13888.427734 0)"/>
     <use xlink:href="#DejaVuSerif-61" transform="translate(13936.230469 0)"/>
     <use xlink:href="#DejaVuSerif-63" transform="translate(13995.849609 0)"/>
     <use xlink:href="#DejaVuSerif-61" transform="translate(14051.855469 0)"/>
     <use xlink:href="#DejaVuSerif-6e" transform="translate(14111.474609 0)"/>
     <use xlink:href="#DejaVuSerif-69" transform="translate(14175.878906 0)"/>
     <use xlink:href="#DejaVuSerif-65" transform="translate(14207.861328 0)"/>
     <use xlink:href="#DejaVuSerif-20" transform="translate(14267.041016 0)"/>
     <use xlink:href="#DejaVuSerif-6b" transform="translate(14298.828125 0)"/>
     <use xlink:href="#DejaVuSerif-72" transform="translate(14359.423828 0)"/>
     <use xlink:href="#DejaVuSerif-76" transform="translate(14407.226562 0)"/>
     <use xlink:href="#DejaVuSerif-69" transform="translate(14463.720703 0)"/>
     <use xlink:href="#DejaVuSerif-20" transform="translate(14495.703125 0)"/>
     <use xlink:href="#DejaVuSerif-70" transform="translate(14527.490234 0)"/>
     <use xlink:href="#DejaVuSerif-72" transform="translate(14591.503906 0)"/>
     <use xlink:href="#DejaVuSerif-69" transform="translate(14639.306641 0)"/>
     <use xlink:href="#DejaVuSerif-20" transform="translate(14671.289062 0)"/>
     <use xlink:href="#DejaVuSerif-72" transform="translate(14703.076172 0)"/>
     <use xlink:href="#DejaVuSerif-61" transform="translate(14750.878906 0)"/>
     <use xlink:href="#DejaVuSerif-6b" transform="translate(14810.498047 0)"/>
     <use xlink:href="#DejaVuSerif-6f" transform="translate(14871.09375 0)"/>
     <use xlink:href="#DejaVuSerif-76" transform="translate(14931.298828 0)"/>
     <use xlink:href="#DejaVuSerif-69" transform="translate(14987.792969 0)"/>
     <use xlink:href="#DejaVuSerif-6e" transform="translate(15019.775391 0)"/>
     <use xlink:href="#DejaVuSerif-65" transform="translate(15084.179688 0)"/>
     <use xlink:href="#DejaVuSerif-27" transform="translate(15143.359375 0)"/>
     <use xlink:href="#DejaVuSerif-2c" transform="translate(15170.849609 0)"/>
     <use xlink:href="#DejaVuSerif-20" transform="translate(15202.636719 0)"/>
     <use xlink:href="#DejaVuSerif-27" transform="translate(15234.423828 0)"/>
     <use xlink:href="#DejaVuSerif-6f" transform="translate(15261.914062 0)"/>
     <use xlink:href="#DejaVuSerif-63" transform="translate(15322.119141 0)"/>
     <use xlink:href="#DejaVuSerif-68" transform="translate(15378.125 0)"/>
     <use xlink:href="#DejaVuSerif-72" transform="translate(15442.529297 0)"/>
     <use xlink:href="#DejaVuSerif-6e" transform="translate(15490.332031 0)"/>
     <use xlink:href="#DejaVuSerif-75" transform="translate(15554.736328 0)"/>
     <use xlink:href="#DejaVuSerif-74" transform="translate(15619.140625 0)"/>
     <use xlink:href="#DejaVuSerif-ed" transform="translate(15659.326172 0)"/>
     <use xlink:href="#DejaVuSerif-20" transform="translate(15691.308594 0)"/>
     <use xlink:href="#DejaVuSerif-63" transform="translate(15723.095703 0)"/>
     <use xlink:href="#DejaVuSerif-65" transform="translate(15779.101562 0)"/>
     <use xlink:href="#DejaVuSerif-6c" transform="translate(15838.28125 0)"/>
     <use xlink:href="#DejaVuSerif-e9" transform="translate(15870.263672 0)"/>
     <use xlink:href="#DejaVuSerif-68" transform="translate(15929.443359 0)"/>
     <use xlink:href="#DejaVuSerif-6f" transform="translate(15993.847656 0)"/>
     <use xlink:href="#DejaVuSerif-20" transform="translate(16054.052734 0)"/>
     <use xlink:href="#DejaVuSerif-74" transform="translate(16085.839844 0)"/>
     <use xlink:href="#DejaVuSerif-11b" transform="translate(16126.025391 0)"/>
     <use xlink:href="#DejaVuSerif-6c" transform="translate(16185.205078 0)"/>
     <use xlink:href="#DejaVuSerif-61" transform="translate(16217.1875 0)"/>
     <use xlink:href="#DejaVuSerif-27" transform="translate(16276.806641 0)"/>
     <use xlink:href="#DejaVuSerif-2c" transform="translate(16304.296875 0)"/>
     <use xlink:href="#DejaVuSerif-20" transform="translate(16336.083984 0)"/>
     <use xlink:href="#DejaVuSerif-27" transform="translate(16367.871094 0)"/>
     <use xlink:href="#DejaVuSerif-70" transform="translate(16395.361328 0)"/>
     <use xlink:href="#DejaVuSerif-72" transform="translate(16459.375 0)"/>
     <use xlink:href="#DejaVuSerif-61" transform="translate(16507.177734 0)"/>
     <use xlink:href="#DejaVuSerif-73" transform="translate(16566.796875 0)"/>
     <use xlink:href="#DejaVuSerif-6b" transform="translate(16618.115234 0)"/>
     <use xlink:href="#DejaVuSerif-6c" transform="translate(16678.710938 0)"/>
     <use xlink:href="#DejaVuSerif-e9" transform="translate(16710.693359 0)"/>
     <use xlink:href="#DejaVuSerif-20" transform="translate(16769.873047 0)"/>
     <use xlink:href="#DejaVuSerif-73" transform="translate(16801.660156 0)"/>
     <use xlink:href="#DejaVuSerif-74" transform="translate(16852.978516 0)"/>
     <use xlink:href="#DejaVuSerif-159" transform="translate(16893.164062 0)"/>
     <use xlink:href="#DejaVuSerif-65" transform="translate(16940.966797 0)"/>
     <use xlink:href="#DejaVuSerif-76" transform="translate(17000.146484 0)"/>
     <use xlink:href="#DejaVuSerif-6f" transform="translate(17056.640625 0)"/>
     <use xlink:href="#DejaVuSerif-27" transform="translate(17116.845703 0)"/>
     <use xlink:href="#DejaVuSerif-7d" transform="translate(17144.335938 0)"/>
     <use xlink:href="#DejaVuSerif-2f" transform="translate(17207.958984 0)"/>
     <use xlink:href="#DejaVuSerif-32" transform="translate(17241.650391 0)"/>
     <use xlink:href="#DejaVuSerif-38" transform="translate(17305.273438 0)"/>
     <use xlink:href="#DejaVuSerif-20" transform="translate(17368.896484 0)"/>
     <use xlink:href="#DejaVuSerif-65" transform="translate(17400.683594 0)"/>
     <use xlink:href="#DejaVuSerif-6d" transform="translate(17459.863281 0)"/>
     <use xlink:href="#DejaVuSerif-65" transform="translate(17554.6875 0)"/>
     <use xlink:href="#DejaVuSerif-72" transform="translate(17613.867188 0)"/>
     <use xlink:href="#DejaVuSerif-67" transform="translate(17661.669922 0)"/>
     <use xlink:href="#DejaVuSerif-2e" transform="translate(17725.683594 0)"/>
     <use xlink:href="#DejaVuSerif-20" transform="translate(17757.470703 0)"/>
     <use xlink:href="#DejaVuSerif-6d" transform="translate(17789.257812 0)"/>
     <use xlink:href="#DejaVuSerif-69" transform="translate(17884.082031 0)"/>
     <use xlink:href="#DejaVuSerif-73" transform="translate(17916.064453 0)"/>
     <use xlink:href="#DejaVuSerif-73" transform="translate(17967.382812 0)"/>
     <use xlink:href="#DejaVuSerif-65" transform="translate(18018.701172 0)"/>
     <use xlink:href="#DejaVuSerif-64" transform="translate(18077.880859 0)"/>
    </g>
   </g>
  </g>
  <g id="text_21">
   <!-- More reasoning → slower AND less safe -->
   <g transform="translate(560.056978 15.558281) scale(0.11 -0.11)">
    <defs>
     <path id="DejaVuSerif-2192" d="M 366 2322 
L 4391 2322 
L 3788 3375 
L 3822 3375 
L 5125 2084 
L 5125 2053 
L 3822 763 
L 3788 763 
L 4391 1816 
L 366 1816 
L 366 2322 
z
" transform="scale(0.015625)"/>
     <path id="DejaVuSerif-41" d="M 1281 1691 
L 2994 1691 
L 2138 3909 
L 1281 1691 
z
M -38 0 
L -38 331 
L 372 331 
L 2034 4666 
L 2559 4666 
L 4225 331 
L 4684 331 
L 4684 0 
L 2988 0 
L 2988 331 
L 3506 331 
L 3116 1356 
L 1153 1356 
L 763 331 
L 1275 331 
L 1275 0 
L -38 0 
z
" transform="scale(0.015625)"/>
     <path id="DejaVuSerif-4e" d="M 313 0 
L 313 331 
L 941 331 
L 941 4331 
L 313 4331 
L 313 4666 
L 1509 4666 
L 4306 984 
L 4306 4331 
L 3681 4331 
L 3681 4666 
L 5319 4666 
L 5319 4331 
L 4691 4331 
L 4691 -91 
L 4313 -91 
L 1325 3841 
L 1325 331 
L 1953 331 
L 1953 0 
L 313 0 
z
" transform="scale(0.015625)"/>
     <path id="DejaVuSerif-44" d="M 1581 331 
L 2163 331 
Q 3072 331 3558 850 
Q 4044 1369 4044 2338 
Q 4044 3306 3559 3818 
Q 3075 4331 2163 4331 
L 1581 4331 
L 1581 331 
z
M 353 0 
L 353 331 
L 947 331 
L 947 4331 
L 353 4331 
L 353 4666 
L 2209 4666 
Q 3416 4666 4089 4050 
Q 4763 3434 4763 2338 
Q 4763 1238 4088 619 
Q 3413 0 2209 0 
L 353 0 
z
" transform="scale(0.015625)"/>
     <path id="DejaVuSerif-66" d="M 2753 4078 
L 2450 4078 
Q 2447 4313 2317 4434 
Q 2188 4556 1941 4556 
Q 1619 4556 1487 4379 
Q 1356 4203 1356 3750 
L 1356 3322 
L 2284 3322 
L 2284 2988 
L 1356 2988 
L 1356 331 
L 2094 331 
L 2094 0 
L 231 0 
L 231 331 
L 781 331 
L 781 2988 
L 231 2988 
L 231 3322 
L 781 3322 
L 781 3738 
Q 781 4294 1070 4578 
Q 1359 4863 1919 4863 
Q 2128 4863 2337 4825 
Q 2547 4788 2753 4709 
L 2753 4078 
z
" transform="scale(0.015625)"/>
    </defs>
    <use xlink:href="#DejaVuSerif-4d"/>
    <use xlink:href="#DejaVuSerif-6f" transform="translate(102.392578 0)"/>
    <use xlink:href="#DejaVuSerif-72" transform="translate(162.597656 0)"/>
    <use xlink:href="#DejaVuSerif-65" transform="translate(210.400391 0)"/>
    <use xlink:href="#DejaVuSerif-20" transform="translate(269.580078 0)"/>
    <use xlink:href="#DejaVuSerif-72" transform="translate(301.367188 0)"/>
    <use xlink:href="#DejaVuSerif-65" transform="translate(349.169922 0)"/>
    <use xlink:href="#DejaVuSerif-61" transform="translate(408.349609 0)"/>
    <use xlink:href="#DejaVuSerif-73" transform="translate(467.96875 0)"/>
    <use xlink:href="#DejaVuSerif-6f" transform="translate(519.287109 0)"/>
    <use xlink:href="#DejaVuSerif-6e" transform="translate(579.492188 0)"/>
    <use xlink:href="#DejaVuSerif-69" transform="translate(643.896484 0)"/>
    <use xlink:href="#DejaVuSerif-6e" transform="translate(675.878906 0)"/>
    <use xlink:href="#DejaVuSerif-67" transform="translate(740.283203 0)"/>
    <use xlink:href="#DejaVuSerif-20" transform="translate(804.296875 0)"/>
    <use xlink:href="#DejaVuSerif-2192" transform="translate(836.083984 0)"/>
    <use xlink:href="#DejaVuSerif-20" transform="translate(919.873047 0)"/>
    <use xlink:href="#DejaVuSerif-73" transform="translate(951.660156 0)"/>
    <use xlink:href="#DejaVuSerif-6c" transform="translate(1002.978516 0)"/>
    <use xlink:href="#DejaVuSerif-6f" transform="translate(1034.960938 0)"/>
    <use xlink:href="#DejaVuSerif-77" transform="translate(1095.166016 0)"/>
    <use xlink:href="#DejaVuSerif-65" transform="translate(1180.761719 0)"/>
    <use xlink:href="#DejaVuSerif-72" transform="translate(1239.941406 0)"/>
    <use xlink:href="#DejaVuSerif-20" transform="translate(1287.744141 0)"/>
    <use xlink:href="#DejaVuSerif-41" transform="translate(1319.53125 0)"/>
    <use xlink:href="#DejaVuSerif-4e" transform="translate(1391.748047 0)"/>
    <use xlink:href="#DejaVuSerif-44" transform="translate(1479.248047 0)"/>
    <use xlink:href="#DejaVuSerif-20" transform="translate(1559.423828 0)"/>
    <use xlink:href="#DejaVuSerif-6c" transform="translate(1591.210938 0)"/>
    <use xlink:href="#DejaVuSerif-65" transform="translate(1623.193359 0)"/>
    <use xlink:href="#DejaVuSerif-73" transform="translate(1682.373047 0)"/>
    <use xlink:href="#DejaVuSerif-73" transform="translate(1733.691406 0)"/>
    <use xlink:href="#DejaVuSerif-20" transform="translate(1785.009766 0)"/>
    <use xlink:href="#DejaVuSerif-73" transform="translate(1816.796875 0)"/>
    <use xlink:href="#DejaVuSerif-61" transform="translate(1868.115234 0)"/>
    <use xlink:href="#DejaVuSerif-66" transform="translate(1927.734375 0)"/>
    <use xlink:href="#DejaVuSerif-65" transform="translate(1964.746094 0)"/>
   </g>
  </g>
 </g>
 <defs>
  <clipPath id="p29d3c40f67">
   <rect x="509.371822" y="31.68" width="334.8" height="188.496"/>
  </clipPath>
 </defs>
</svg>
