<?xml version="1.0" encoding="utf-8" standalone="no"?>
<!DOCTYPE svg PUBLIC "-//W3C//DTD SVG 1.1//EN"
  "http://www.w3.org/Graphics/SVG/1.1/DTD/svg11.dtd">
<svg xmlns:xlink="http://www.w3.org/1999/xlink" width="349.265313pt" height="225.576719pt" viewBox="0 0 349.265313 225.576719" xmlns="http://www.w3.org/2000/svg" version="1.1">
 <metadata>
  <rdf:RDF xmlns:dc="http://purl.org/dc/elements/1.1/" xmlns:cc="http://creativecommons.org/ns#" xmlns:rdf="http://www.w3.org/1999/02/22-rdf-syntax-ns#">
   <cc:Work>
    <dc:type rdf:resource="http://purl.org/dc/dcmitype/StillImage"/>
    <dc:date>2026-06-08T02:54:37.853163</dc:date>
    <dc:format>image/svg+xml</dc:format>
    <dc:creator>
     <cc:Agent>
      <dc:title>Matplotlib v3.10.8, https://matplotlib.org/</dc:title>
     </cc:Agent>
    </dc:creator>
   </cc:Work>
  </rdf:RDF>
 </metadata>
 <defs>
  <style type="text/css">*{stroke-linejoin: round; stroke-linecap: butt}</style>
 </defs>
 <g id="figure_1">
  <g id="patch_1">
   <path d="M 0 225.576719 
L 349.265313 225.576719 
L 349.265313 0 
L 0 0 
z
" style="fill: #ffffff"/>
  </g>
  <g id="axes_1">
   <g id="patch_2">
    <path d="M 40.745313 187.878281 
L 342.065313 187.878281 
L 342.065313 21.558281 
L 40.745313 21.558281 
z
" style="fill: #ffffff"/>
   </g>
   <g id="patch_3">
    <path d="M 54.441676 187.878281 
L 63.27804 187.878281 
L 63.27804 181.559132 
L 54.441676 181.559132 
z
" clip-path="url(#pde04cde040)" style="fill: #56b4e9; opacity: 0.55"/>
   </g>
   <g id="patch_4">
    <path d="M 63.27804 187.878281 
L 72.114403 187.878281 
L 72.114403 162.601686 
L 63.27804 162.601686 
z
" clip-path="url(#pde04cde040)" style="fill: #56b4e9; opacity: 0.55"/>
   </g>
   <g id="patch_5">
    <path d="M 72.114403 187.878281 
L 80.950767 187.878281 
L 80.950767 152.491047 
L 72.114403 152.491047 
z
" clip-path="url(#pde04cde040)" style="fill: #56b4e9; opacity: 0.55"/>
   </g>
   <g id="patch_6">
    <path d="M 80.950767 187.878281 
L 89.787131 187.878281 
L 89.787131 124.686792 
L 80.950767 124.686792 
z
" clip-path="url(#pde04cde040)" style="fill: #56b4e9; opacity: 0.55"/>
   </g>
   <g id="patch_7">
    <path d="M 89.787131 187.878281 
L 98.623494 187.878281 
L 98.623494 101.937856 
L 89.787131 101.937856 
z
" clip-path="url(#pde04cde040)" style="fill: #56b4e9; opacity: 0.55"/>
   </g>
   <g id="patch_8">
    <path d="M 98.623494 187.878281 
L 107.459858 187.878281 
L 107.459858 106.993175 
L 98.623494 106.993175 
z
" clip-path="url(#pde04cde040)" style="fill: #56b4e9; opacity: 0.55"/>
   </g>
   <g id="patch_9">
    <path d="M 107.459858 187.878281 
L 116.296222 187.878281 
L 116.296222 90.563388 
L 107.459858 90.563388 
z
" clip-path="url(#pde04cde040)" style="fill: #56b4e9; opacity: 0.55"/>
   </g>
   <g id="patch_10">
    <path d="M 116.296222 187.878281 
L 125.132585 187.878281 
L 125.132585 113.312324 
L 116.296222 113.312324 
z
" clip-path="url(#pde04cde040)" style="fill: #56b4e9; opacity: 0.55"/>
   </g>
   <g id="patch_11">
    <path d="M 125.132585 187.878281 
L 133.968949 187.878281 
L 133.968949 118.367643 
L 125.132585 118.367643 
z
" clip-path="url(#pde04cde040)" style="fill: #56b4e9; opacity: 0.55"/>
   </g>
   <g id="patch_12">
    <path d="M 133.968949 187.878281 
L 142.805313 187.878281 
L 142.805313 137.32509 
L 133.968949 137.32509 
z
" clip-path="url(#pde04cde040)" style="fill: #56b4e9; opacity: 0.55"/>
   </g>
   <g id="patch_13">
    <path d="M 142.805313 187.878281 
L 151.641676 187.878281 
L 151.641676 144.908068 
L 142.805313 144.908068 
z
" clip-path="url(#pde04cde040)" style="fill: #56b4e9; opacity: 0.55"/>
   </g>
   <g id="patch_14">
    <path d="M 151.641676 187.878281 
L 160.47804 187.878281 
L 160.47804 163.865515 
L 151.641676 163.865515 
z
" clip-path="url(#pde04cde040)" style="fill: #56b4e9; opacity: 0.55"/>
   </g>
   <g id="patch_15">
    <path d="M 160.47804 187.878281 
L 169.314403 187.878281 
L 169.314403 173.976154 
L 160.47804 173.976154 
z
" clip-path="url(#pde04cde040)" style="fill: #56b4e9; opacity: 0.55"/>
   </g>
   <g id="patch_16">
    <path d="M 169.314403 187.878281 
L 178.150767 187.878281 
L 178.150767 172.712324 
L 169.314403 172.712324 
z
" clip-path="url(#pde04cde040)" style="fill: #56b4e9; opacity: 0.55"/>
   </g>
   <g id="patch_17">
    <path d="M 178.150767 187.878281 
L 186.987131 187.878281 
L 186.987131 180.295303 
L 178.150767 180.295303 
z
" clip-path="url(#pde04cde040)" style="fill: #56b4e9; opacity: 0.55"/>
   </g>
   <g id="patch_18">
    <path d="M 186.987131 187.878281 
L 195.823494 187.878281 
L 195.823494 184.086792 
L 186.987131 184.086792 
z
" clip-path="url(#pde04cde040)" style="fill: #56b4e9; opacity: 0.55"/>
   </g>
   <g id="patch_19">
    <path d="M 195.823494 187.878281 
L 204.659858 187.878281 
L 204.659858 181.559132 
L 195.823494 181.559132 
z
" clip-path="url(#pde04cde040)" style="fill: #56b4e9; opacity: 0.55"/>
   </g>
   <g id="patch_20">
    <path d="M 204.659858 187.878281 
L 213.496222 187.878281 
L 213.496222 186.614451 
L 204.659858 186.614451 
z
" clip-path="url(#pde04cde040)" style="fill: #56b4e9; opacity: 0.55"/>
   </g>
   <g id="patch_21">
    <path d="M 213.496222 187.878281 
L 222.332585 187.878281 
L 222.332585 185.350622 
L 213.496222 185.350622 
z
" clip-path="url(#pde04cde040)" style="fill: #56b4e9; opacity: 0.55"/>
   </g>
   <g id="patch_22">
    <path d="M 222.332585 187.878281 
L 231.168949 187.878281 
L 231.168949 186.614451 
L 222.332585 186.614451 
z
" clip-path="url(#pde04cde040)" style="fill: #56b4e9; opacity: 0.55"/>
   </g>
   <g id="patch_23">
    <path d="M 231.168949 187.878281 
L 240.005312 187.878281 
L 240.005312 185.350622 
L 231.168949 185.350622 
z
" clip-path="url(#pde04cde040)" style="fill: #56b4e9; opacity: 0.55"/>
   </g>
   <g id="patch_24">
    <path d="M 240.005313 187.878281 
L 248.841676 187.878281 
L 248.841676 186.614451 
L 240.005313 186.614451 
z
" clip-path="url(#pde04cde040)" style="fill: #56b4e9; opacity: 0.55"/>
   </g>
   <g id="patch_25">
    <path d="M 248.841676 187.878281 
L 257.67804 187.878281 
L 257.67804 187.878281 
L 248.841676 187.878281 
z
" clip-path="url(#pde04cde040)" style="fill: #56b4e9; opacity: 0.55"/>
   </g>
   <g id="patch_26">
    <path d="M 257.67804 187.878281 
L 266.514403 187.878281 
L 266.514403 186.614451 
L 257.67804 186.614451 
z
" clip-path="url(#pde04cde040)" style="fill: #56b4e9; opacity: 0.55"/>
   </g>
   <g id="patch_27">
    <path d="M 266.514403 187.878281 
L 275.350767 187.878281 
L 275.350767 187.878281 
L 266.514403 187.878281 
z
" clip-path="url(#pde04cde040)" style="fill: #56b4e9; opacity: 0.55"/>
   </g>
   <g id="patch_28">
    <path d="M 275.350767 187.878281 
L 284.187131 187.878281 
L 284.187131 187.878281 
L 275.350767 187.878281 
z
" clip-path="url(#pde04cde040)" style="fill: #56b4e9; opacity: 0.55"/>
   </g>
   <g id="patch_29">
    <path d="M 284.187131 187.878281 
L 293.023494 187.878281 
L 293.023494 187.878281 
L 284.187131 187.878281 
z
" clip-path="url(#pde04cde040)" style="fill: #56b4e9; opacity: 0.55"/>
   </g>
   <g id="patch_30">
    <path d="M 293.023494 187.878281 
L 301.859858 187.878281 
L 301.859858 187.878281 
L 293.023494 187.878281 
z
" clip-path="url(#pde04cde040)" style="fill: #56b4e9; opacity: 0.55"/>
   </g>
   <g id="patch_31">
    <path d="M 301.859858 187.878281 
L 310.696222 187.878281 
L 310.696222 187.878281 
L 301.859858 187.878281 
z
" clip-path="url(#pde04cde040)" style="fill: #56b4e9; opacity: 0.55"/>
   </g>
   <g id="patch_32">
    <path d="M 310.696222 187.878281 
L 319.532585 187.878281 
L 319.532585 187.878281 
L 310.696222 187.878281 
z
" clip-path="url(#pde04cde040)" style="fill: #56b4e9; opacity: 0.55"/>
   </g>
   <g id="patch_33">
    <path d="M 319.532585 187.878281 
L 328.368949 187.878281 
L 328.368949 187.878281 
L 319.532585 187.878281 
z
" clip-path="url(#pde04cde040)" style="fill: #56b4e9; opacity: 0.55"/>
   </g>
   <g id="patch_34">
    <path d="M 54.441676 187.878281 
L 63.27804 187.878281 
L 63.27804 187.878281 
L 54.441676 187.878281 
z
" clip-path="url(#pde04cde040)" style="fill: #f0e442; opacity: 0.55"/>
   </g>
   <g id="patch_35">
    <path d="M 63.27804 187.878281 
L 72.114403 187.878281 
L 72.114403 187.878281 
L 63.27804 187.878281 
z
" clip-path="url(#pde04cde040)" style="fill: #f0e442; opacity: 0.55"/>
   </g>
   <g id="patch_36">
    <path d="M 72.114403 187.878281 
L 80.950767 187.878281 
L 80.950767 187.878281 
L 72.114403 187.878281 
z
" clip-path="url(#pde04cde040)" style="fill: #f0e442; opacity: 0.55"/>
   </g>
   <g id="patch_37">
    <path d="M 80.950767 187.878281 
L 89.787131 187.878281 
L 89.787131 187.878281 
L 80.950767 187.878281 
z
" clip-path="url(#pde04cde040)" style="fill: #f0e442; opacity: 0.55"/>
   </g>
   <g id="patch_38">
    <path d="M 89.787131 187.878281 
L 98.623494 187.878281 
L 98.623494 187.878281 
L 89.787131 187.878281 
z
" clip-path="url(#pde04cde040)" style="fill: #f0e442; opacity: 0.55"/>
   </g>
   <g id="patch_39">
    <path d="M 98.623494 187.878281 
L 107.459858 187.878281 
L 107.459858 161.478281 
L 98.623494 161.478281 
z
" clip-path="url(#pde04cde040)" style="fill: #f0e442; opacity: 0.55"/>
   </g>
   <g id="patch_40">
    <path d="M 107.459858 187.878281 
L 116.296222 187.878281 
L 116.296222 161.478281 
L 107.459858 161.478281 
z
" clip-path="url(#pde04cde040)" style="fill: #f0e442; opacity: 0.55"/>
   </g>
   <g id="patch_41">
    <path d="M 116.296222 187.878281 
L 125.132585 187.878281 
L 125.132585 187.878281 
L 116.296222 187.878281 
z
" clip-path="url(#pde04cde040)" style="fill: #f0e442; opacity: 0.55"/>
   </g>
   <g id="patch_42">
    <path d="M 125.132585 187.878281 
L 133.968949 187.878281 
L 133.968949 187.878281 
L 125.132585 187.878281 
z
" clip-path="url(#pde04cde040)" style="fill: #f0e442; opacity: 0.55"/>
   </g>
   <g id="patch_43">
    <path d="M 133.968949 187.878281 
L 142.805313 187.878281 
L 142.805313 161.478281 
L 133.968949 161.478281 
z
" clip-path="url(#pde04cde040)" style="fill: #f0e442; opacity: 0.55"/>
   </g>
   <g id="patch_44">
    <path d="M 142.805313 187.878281 
L 151.641676 187.878281 
L 151.641676 82.278281 
L 142.805313 82.278281 
z
" clip-path="url(#pde04cde040)" style="fill: #f0e442; opacity: 0.55"/>
   </g>
   <g id="patch_45">
    <path d="M 151.641676 187.878281 
L 160.47804 187.878281 
L 160.47804 29.478281 
L 151.641676 29.478281 
z
" clip-path="url(#pde04cde040)" style="fill: #f0e442; opacity: 0.55"/>
   </g>
   <g id="patch_46">
    <path d="M 160.47804 187.878281 
L 169.314403 187.878281 
L 169.314403 187.878281 
L 160.47804 187.878281 
z
" clip-path="url(#pde04cde040)" style="fill: #f0e442; opacity: 0.55"/>
   </g>
   <g id="patch_47">
    <path d="M 169.314403 187.878281 
L 178.150767 187.878281 
L 178.150767 82.278281 
L 169.314403 82.278281 
z
" clip-path="url(#pde04cde040)" style="fill: #f0e442; opacity: 0.55"/>
   </g>
   <g id="patch_48">
    <path d="M 178.150767 187.878281 
L 186.987131 187.878281 
L 186.987131 108.678281 
L 178.150767 108.678281 
z
" clip-path="url(#pde04cde040)" style="fill: #f0e442; opacity: 0.55"/>
   </g>
   <g id="patch_49">
    <path d="M 186.987131 187.878281 
L 195.823494 187.878281 
L 195.823494 161.478281 
L 186.987131 161.478281 
z
" clip-path="url(#pde04cde040)" style="fill: #f0e442; opacity: 0.55"/>
   </g>
   <g id="patch_50">
    <path d="M 195.823494 187.878281 
L 204.659858 187.878281 
L 204.659858 82.278281 
L 195.823494 82.278281 
z
" clip-path="url(#pde04cde040)" style="fill: #f0e442; opacity: 0.55"/>
   </g>
   <g id="patch_51">
    <path d="M 204.659858 187.878281 
L 213.496222 187.878281 
L 213.496222 161.478281 
L 204.659858 161.478281 
z
" clip-path="url(#pde04cde040)" style="fill: #f0e442; opacity: 0.55"/>
   </g>
   <g id="patch_52">
    <path d="M 213.496222 187.878281 
L 222.332585 187.878281 
L 222.332585 187.878281 
L 213.496222 187.878281 
z
" clip-path="url(#pde04cde040)" style="fill: #f0e442; opacity: 0.55"/>
   </g>
   <g id="patch_53">
    <path d="M 222.332585 187.878281 
L 231.168949 187.878281 
L 231.168949 187.878281 
L 222.332585 187.878281 
z
" clip-path="url(#pde04cde040)" style="fill: #f0e442; opacity: 0.55"/>
   </g>
   <g id="patch_54">
    <path d="M 231.168949 187.878281 
L 240.005312 187.878281 
L 240.005312 187.878281 
L 231.168949 187.878281 
z
" clip-path="url(#pde04cde040)" style="fill: #f0e442; opacity: 0.55"/>
   </g>
   <g id="patch_55">
    <path d="M 240.005313 187.878281 
L 248.841676 187.878281 
L 248.841676 161.478281 
L 240.005313 161.478281 
z
" clip-path="url(#pde04cde040)" style="fill: #f0e442; opacity: 0.55"/>
   </g>
   <g id="patch_56">
    <path d="M 248.841676 187.878281 
L 257.67804 187.878281 
L 257.67804 187.878281 
L 248.841676 187.878281 
z
" clip-path="url(#pde04cde040)" style="fill: #f0e442; opacity: 0.55"/>
   </g>
   <g id="patch_57">
    <path d="M 257.67804 187.878281 
L 266.514403 187.878281 
L 266.514403 187.878281 
L 257.67804 187.878281 
z
" clip-path="url(#pde04cde040)" style="fill: #f0e442; opacity: 0.55"/>
   </g>
   <g id="patch_58">
    <path d="M 266.514403 187.878281 
L 275.350767 187.878281 
L 275.350767 187.878281 
L 266.514403 187.878281 
z
" clip-path="url(#pde04cde040)" style="fill: #f0e442; opacity: 0.55"/>
   </g>
   <g id="patch_59">
    <path d="M 275.350767 187.878281 
L 284.187131 187.878281 
L 284.187131 187.878281 
L 275.350767 187.878281 
z
" clip-path="url(#pde04cde040)" style="fill: #f0e442; opacity: 0.55"/>
   </g>
   <g id="patch_60">
    <path d="M 284.187131 187.878281 
L 293.023494 187.878281 
L 293.023494 187.878281 
L 284.187131 187.878281 
z
" clip-path="url(#pde04cde040)" style="fill: #f0e442; opacity: 0.55"/>
   </g>
   <g id="patch_61">
    <path d="M 293.023494 187.878281 
L 301.859858 187.878281 
L 301.859858 187.878281 
L 293.023494 187.878281 
z
" clip-path="url(#pde04cde040)" style="fill: #f0e442; opacity: 0.55"/>
   </g>
   <g id="patch_62">
    <path d="M 301.859858 187.878281 
L 310.696222 187.878281 
L 310.696222 187.878281 
L 301.859858 187.878281 
z
" clip-path="url(#pde04cde040)" style="fill: #f0e442; opacity: 0.55"/>
   </g>
   <g id="patch_63">
    <path d="M 310.696222 187.878281 
L 319.532585 187.878281 
L 319.532585 187.878281 
L 310.696222 187.878281 
z
" clip-path="url(#pde04cde040)" style="fill: #f0e442; opacity: 0.55"/>
   </g>
   <g id="patch_64">
    <path d="M 319.532585 187.878281 
L 328.368949 187.878281 
L 328.368949 187.878281 
L 319.532585 187.878281 
z
" clip-path="url(#pde04cde040)" style="fill: #f0e442; opacity: 0.55"/>
   </g>
   <g id="patch_65">
    <path d="M 54.441676 187.878281 
L 63.27804 187.878281 
L 63.27804 187.878281 
L 54.441676 187.878281 
z
" clip-path="url(#pde04cde040)" style="fill: #d55e00; opacity: 0.55"/>
   </g>
   <g id="patch_66">
    <path d="M 63.27804 187.878281 
L 72.114403 187.878281 
L 72.114403 187.878281 
L 63.27804 187.878281 
z
" clip-path="url(#pde04cde040)" style="fill: #d55e00; opacity: 0.55"/>
   </g>
   <g id="patch_67">
    <path d="M 72.114403 187.878281 
L 80.950767 187.878281 
L 80.950767 187.878281 
L 72.114403 187.878281 
z
" clip-path="url(#pde04cde040)" style="fill: #d55e00; opacity: 0.55"/>
   </g>
   <g id="patch_68">
    <path d="M 80.950767 187.878281 
L 89.787131 187.878281 
L 89.787131 187.878281 
L 80.950767 187.878281 
z
" clip-path="url(#pde04cde040)" style="fill: #d55e00; opacity: 0.55"/>
   </g>
   <g id="patch_69">
    <path d="M 89.787131 187.878281 
L 98.623494 187.878281 
L 98.623494 187.878281 
L 89.787131 187.878281 
z
" clip-path="url(#pde04cde040)" style="fill: #d55e00; opacity: 0.55"/>
   </g>
   <g id="patch_70">
    <path d="M 98.623494 187.878281 
L 107.459858 187.878281 
L 107.459858 187.878281 
L 98.623494 187.878281 
z
" clip-path="url(#pde04cde040)" style="fill: #d55e00; opacity: 0.55"/>
   </g>
   <g id="patch_71">
    <path d="M 107.459858 187.878281 
L 116.296222 187.878281 
L 116.296222 187.878281 
L 107.459858 187.878281 
z
" clip-path="url(#pde04cde040)" style="fill: #d55e00; opacity: 0.55"/>
   </g>
   <g id="patch_72">
    <path d="M 116.296222 187.878281 
L 125.132585 187.878281 
L 125.132585 187.878281 
L 116.296222 187.878281 
z
" clip-path="url(#pde04cde040)" style="fill: #d55e00; opacity: 0.55"/>
   </g>
   <g id="patch_73">
    <path d="M 125.132585 187.878281 
L 133.968949 187.878281 
L 133.968949 187.878281 
L 125.132585 187.878281 
z
" clip-path="url(#pde04cde040)" style="fill: #d55e00; opacity: 0.55"/>
   </g>
   <g id="patch_74">
    <path d="M 133.968949 187.878281 
L 142.805313 187.878281 
L 142.805313 187.878281 
L 133.968949 187.878281 
z
" clip-path="url(#pde04cde040)" style="fill: #d55e00; opacity: 0.55"/>
   </g>
   <g id="patch_75">
    <path d="M 142.805313 187.878281 
L 151.641676 187.878281 
L 151.641676 187.878281 
L 142.805313 187.878281 
z
" clip-path="url(#pde04cde040)" style="fill: #d55e00; opacity: 0.55"/>
   </g>
   <g id="patch_76">
    <path d="M 151.641676 187.878281 
L 160.47804 187.878281 
L 160.47804 187.878281 
L 151.641676 187.878281 
z
" clip-path="url(#pde04cde040)" style="fill: #d55e00; opacity: 0.55"/>
   </g>
   <g id="patch_77">
    <path d="M 160.47804 187.878281 
L 169.314403 187.878281 
L 169.314403 183.78173 
L 160.47804 183.78173 
z
" clip-path="url(#pde04cde040)" style="fill: #d55e00; opacity: 0.55"/>
   </g>
   <g id="patch_78">
    <path d="M 169.314403 187.878281 
L 178.150767 187.878281 
L 178.150767 187.878281 
L 169.314403 187.878281 
z
" clip-path="url(#pde04cde040)" style="fill: #d55e00; opacity: 0.55"/>
   </g>
   <g id="patch_79">
    <path d="M 178.150767 187.878281 
L 186.987131 187.878281 
L 186.987131 187.878281 
L 178.150767 187.878281 
z
" clip-path="url(#pde04cde040)" style="fill: #d55e00; opacity: 0.55"/>
   </g>
   <g id="patch_80">
    <path d="M 186.987131 187.878281 
L 195.823494 187.878281 
L 195.823494 179.685178 
L 186.987131 179.685178 
z
" clip-path="url(#pde04cde040)" style="fill: #d55e00; opacity: 0.55"/>
   </g>
   <g id="patch_81">
    <path d="M 195.823494 187.878281 
L 204.659858 187.878281 
L 204.659858 187.878281 
L 195.823494 187.878281 
z
" clip-path="url(#pde04cde040)" style="fill: #d55e00; opacity: 0.55"/>
   </g>
   <g id="patch_82">
    <path d="M 204.659858 187.878281 
L 213.496222 187.878281 
L 213.496222 167.395523 
L 204.659858 167.395523 
z
" clip-path="url(#pde04cde040)" style="fill: #d55e00; opacity: 0.55"/>
   </g>
   <g id="patch_83">
    <path d="M 213.496222 187.878281 
L 222.332585 187.878281 
L 222.332585 175.588626 
L 213.496222 175.588626 
z
" clip-path="url(#pde04cde040)" style="fill: #d55e00; opacity: 0.55"/>
   </g>
   <g id="patch_84">
    <path d="M 222.332585 187.878281 
L 231.168949 187.878281 
L 231.168949 171.492074 
L 222.332585 171.492074 
z
" clip-path="url(#pde04cde040)" style="fill: #d55e00; opacity: 0.55"/>
   </g>
   <g id="patch_85">
    <path d="M 231.168949 187.878281 
L 240.005312 187.878281 
L 240.005312 159.202419 
L 231.168949 159.202419 
z
" clip-path="url(#pde04cde040)" style="fill: #d55e00; opacity: 0.55"/>
   </g>
   <g id="patch_86">
    <path d="M 240.005313 187.878281 
L 248.841676 187.878281 
L 248.841676 110.043798 
L 240.005313 110.043798 
z
" clip-path="url(#pde04cde040)" style="fill: #d55e00; opacity: 0.55"/>
   </g>
   <g id="patch_87">
    <path d="M 248.841676 187.878281 
L 257.67804 187.878281 
L 257.67804 142.816212 
L 248.841676 142.816212 
z
" clip-path="url(#pde04cde040)" style="fill: #d55e00; opacity: 0.55"/>
   </g>
   <g id="patch_88">
    <path d="M 257.67804 187.878281 
L 266.514403 187.878281 
L 266.514403 110.043798 
L 257.67804 110.043798 
z
" clip-path="url(#pde04cde040)" style="fill: #d55e00; opacity: 0.55"/>
   </g>
   <g id="patch_89">
    <path d="M 266.514403 187.878281 
L 275.350767 187.878281 
L 275.350767 93.657592 
L 266.514403 93.657592 
z
" clip-path="url(#pde04cde040)" style="fill: #d55e00; opacity: 0.55"/>
   </g>
   <g id="patch_90">
    <path d="M 275.350767 187.878281 
L 284.187131 187.878281 
L 284.187131 118.236902 
L 275.350767 118.236902 
z
" clip-path="url(#pde04cde040)" style="fill: #d55e00; opacity: 0.55"/>
   </g>
   <g id="patch_91">
    <path d="M 284.187131 187.878281 
L 293.023494 187.878281 
L 293.023494 122.333454 
L 284.187131 122.333454 
z
" clip-path="url(#pde04cde040)" style="fill: #d55e00; opacity: 0.55"/>
   </g>
   <g id="patch_92">
    <path d="M 293.023494 187.878281 
L 301.859858 187.878281 
L 301.859858 130.526557 
L 293.023494 130.526557 
z
" clip-path="url(#pde04cde040)" style="fill: #d55e00; opacity: 0.55"/>
   </g>
   <g id="patch_93">
    <path d="M 301.859858 187.878281 
L 310.696222 187.878281 
L 310.696222 114.14035 
L 301.859858 114.14035 
z
" clip-path="url(#pde04cde040)" style="fill: #d55e00; opacity: 0.55"/>
   </g>
   <g id="patch_94">
    <path d="M 310.696222 187.878281 
L 319.532585 187.878281 
L 319.532585 142.816212 
L 310.696222 142.816212 
z
" clip-path="url(#pde04cde040)" style="fill: #d55e00; opacity: 0.55"/>
   </g>
   <g id="patch_95">
    <path d="M 319.532585 187.878281 
L 328.368949 187.878281 
L 328.368949 171.492074 
L 319.532585 171.492074 
z
" clip-path="url(#pde04cde040)" style="fill: #d55e00; opacity: 0.55"/>
   </g>
   <g id="matplotlib.axis_1">
    <g id="xtick_1">
     <g id="line2d_1">
      <path d="M 69.441536 187.878281 
L 69.441536 21.558281 
" clip-path="url(#pde04cde040)" style="fill: none; stroke: #b0b0b0; stroke-opacity: 0.25; stroke-width: 0.6; stroke-linecap: square"/>
     </g>
     <g id="line2d_2">
      <defs>
       <path id="m760046045c" d="M 0 0 
L 0 3.5 
" style="stroke: #000000; stroke-width: 0.8"/>
      </defs>
      <g>
       <use xlink:href="#m760046045c" x="69.441536" y="187.878281" style="stroke: #000000; stroke-width: 0.8"/>
      </g>
     </g>
     <g id="text_1">
      <!-- −0.2 -->
      <g transform="translate(57.30013 202.476719) scale(0.1 -0.1)">
       <defs>
        <path id="DejaVuSerif-2212" d="M 678 2259 
L 4684 2259 
L 4684 1753 
L 678 1753 
L 678 2259 
z
" transform="scale(0.015625)"/>
        <path id="DejaVuSerif-30" d="M 2034 219 
Q 2513 219 2750 744 
Q 2988 1269 2988 2328 
Q 2988 3391 2750 3916 
Q 2513 4441 2034 4441 
Q 1556 4441 1318 3916 
Q 1081 3391 1081 2328 
Q 1081 1269 1318 744 
Q 1556 219 2034 219 
z
M 2034 -91 
Q 1275 -91 848 546 
Q 422 1184 422 2328 
Q 422 3475 848 4112 
Q 1275 4750 2034 4750 
Q 2797 4750 3222 4112 
Q 3647 3475 3647 2328 
Q 3647 1184 3222 546 
Q 2797 -91 2034 -91 
z
" transform="scale(0.015625)"/>
        <path id="DejaVuSerif-2e" d="M 603 325 
Q 603 500 722 622 
Q 841 744 1019 744 
Q 1191 744 1312 622 
Q 1434 500 1434 325 
Q 1434 153 1312 31 
Q 1191 -91 1019 -91 
Q 841 -91 722 29 
Q 603 150 603 325 
z
" transform="scale(0.015625)"/>
        <path id="DejaVuSerif-32" d="M 819 3553 
L 469 3553 
L 469 4384 
Q 803 4563 1142 4656 
Q 1481 4750 1806 4750 
Q 2534 4750 2956 4397 
Q 3378 4044 3378 3438 
Q 3378 2753 2422 1800 
Q 2347 1728 2309 1691 
L 1131 513 
L 3078 513 
L 3078 1088 
L 3444 1088 
L 3444 0 
L 434 0 
L 434 341 
L 1850 1753 
Q 2319 2222 2519 2614 
Q 2719 3006 2719 3438 
Q 2719 3909 2473 4175 
Q 2228 4441 1797 4441 
Q 1350 4441 1106 4219 
Q 863 3997 819 3553 
z
" transform="scale(0.015625)"/>
       </defs>
       <use xlink:href="#DejaVuSerif-2212"/>
       <use xlink:href="#DejaVuSerif-30" transform="translate(83.789062 0)"/>
       <use xlink:href="#DejaVuSerif-2e" transform="translate(147.412109 0)"/>
       <use xlink:href="#DejaVuSerif-32" transform="translate(179.199219 0)"/>
      </g>
     </g>
    </g>
    <g id="xtick_2">
     <g id="line2d_3">
      <path d="M 124.543884 187.878281 
L 124.543884 21.558281 
" clip-path="url(#pde04cde040)" style="fill: none; stroke: #b0b0b0; stroke-opacity: 0.25; stroke-width: 0.6; stroke-linecap: square"/>
     </g>
     <g id="line2d_4">
      <g>
       <use xlink:href="#m760046045c" x="124.543884" y="187.878281" style="stroke: #000000; stroke-width: 0.8"/>
      </g>
     </g>
     <g id="text_2">
      <!-- −0.1 -->
      <g transform="translate(112.402478 202.476719) scale(0.1 -0.1)">
       <defs>
        <path id="DejaVuSerif-31" d="M 909 0 
L 909 331 
L 1722 331 
L 1722 4213 
L 781 3603 
L 781 4013 
L 1919 4750 
L 2350 4750 
L 2350 331 
L 3163 331 
L 3163 0 
L 909 0 
z
" transform="scale(0.015625)"/>
       </defs>
       <use xlink:href="#DejaVuSerif-2212"/>
       <use xlink:href="#DejaVuSerif-30" transform="translate(83.789062 0)"/>
       <use xlink:href="#DejaVuSerif-2e" transform="translate(147.412109 0)"/>
       <use xlink:href="#DejaVuSerif-31" transform="translate(179.199219 0)"/>
      </g>
     </g>
    </g>
    <g id="xtick_3">
     <g id="line2d_5">
      <path d="M 179.646232 187.878281 
L 179.646232 21.558281 
" clip-path="url(#pde04cde040)" style="fill: none; stroke: #b0b0b0; stroke-opacity: 0.25; stroke-width: 0.6; stroke-linecap: square"/>
     </g>
     <g id="line2d_6">
      <g>
       <use xlink:href="#m760046045c" x="179.646232" y="187.878281" style="stroke: #000000; stroke-width: 0.8"/>
      </g>
     </g>
     <g id="text_3">
      <!-- 0.0 -->
      <g transform="translate(171.69467 202.476719) scale(0.1 -0.1)">
       <use xlink:href="#DejaVuSerif-30"/>
       <use xlink:href="#DejaVuSerif-2e" transform="translate(63.623047 0)"/>
       <use xlink:href="#DejaVuSerif-30" transform="translate(95.410156 0)"/>
      </g>
     </g>
    </g>
    <g id="xtick_4">
     <g id="line2d_7">
      <path d="M 234.748581 187.878281 
L 234.748581 21.558281 
" clip-path="url(#pde04cde040)" style="fill: none; stroke: #b0b0b0; stroke-opacity: 0.25; stroke-width: 0.6; stroke-linecap: square"/>
     </g>
     <g id="line2d_8">
      <g>
       <use xlink:href="#m760046045c" x="234.748581" y="187.878281" style="stroke: #000000; stroke-width: 0.8"/>
      </g>
     </g>
     <g id="text_4">
      <!-- 0.1 -->
      <g transform="translate(226.797018 202.476719) scale(0.1 -0.1)">
       <use xlink:href="#DejaVuSerif-30"/>
       <use xlink:href="#DejaVuSerif-2e" transform="translate(63.623047 0)"/>
       <use xlink:href="#DejaVuSerif-31" transform="translate(95.410156 0)"/>
      </g>
     </g>
    </g>
    <g id="xtick_5">
     <g id="line2d_9">
      <path d="M 289.850929 187.878281 
L 289.850929 21.558281 
" clip-path="url(#pde04cde040)" style="fill: none; stroke: #b0b0b0; stroke-opacity: 0.25; stroke-width: 0.6; stroke-linecap: square"/>
     </g>
     <g id="line2d_10">
      <g>
       <use xlink:href="#m760046045c" x="289.850929" y="187.878281" style="stroke: #000000; stroke-width: 0.8"/>
      </g>
     </g>
     <g id="text_5">
      <!-- 0.2 -->
      <g transform="translate(281.899366 202.476719) scale(0.1 -0.1)">
       <use xlink:href="#DejaVuSerif-30"/>
       <use xlink:href="#DejaVuSerif-2e" transform="translate(63.623047 0)"/>
       <use xlink:href="#DejaVuSerif-32" transform="translate(95.410156 0)"/>
      </g>
     </g>
    </g>
    <g id="text_6">
     <!-- projection onto probe direction -->
     <g transform="translate(112.089687 216.154844) scale(0.1 -0.1)">
      <defs>
       <path id="DejaVuSerif-70" d="M 1313 1825 
L 1313 1497 
Q 1313 897 1542 583 
Q 1772 269 2209 269 
Q 2650 269 2876 622 
Q 3103 975 3103 1663 
Q 3103 2353 2876 2703 
Q 2650 3053 2209 3053 
Q 1772 3053 1542 2737 
Q 1313 2422 1313 1825 
z
M 738 2988 
L 184 2988 
L 184 3322 
L 1313 3322 
L 1313 2803 
Q 1481 3116 1742 3264 
Q 2003 3413 2388 3413 
Q 3000 3413 3387 2928 
Q 3775 2444 3775 1663 
Q 3775 881 3387 395 
Q 3000 -91 2388 -91 
Q 2003 -91 1742 57 
Q 1481 206 1313 519 
L 1313 -997 
L 1856 -997 
L 1856 -1331 
L 184 -1331 
L 184 -997 
L 738 -997 
L 738 2988 
z
" transform="scale(0.015625)"/>
       <path id="DejaVuSerif-72" d="M 3059 3328 
L 3059 2497 
L 2728 2497 
Q 2713 2744 2591 2866 
Q 2469 2988 2234 2988 
Q 1809 2988 1582 2694 
Q 1356 2400 1356 1850 
L 1356 331 
L 2022 331 
L 2022 0 
L 263 0 
L 263 331 
L 781 331 
L 781 2994 
L 231 2994 
L 231 3322 
L 1356 3322 
L 1356 2731 
Q 1525 3078 1790 3245 
Q 2056 3413 2438 3413 
Q 2578 3413 2733 3391 
Q 2888 3369 3059 3328 
z
" transform="scale(0.015625)"/>
       <path id="DejaVuSerif-6f" d="M 1925 219 
Q 2388 219 2623 584 
Q 2859 950 2859 1663 
Q 2859 2375 2623 2739 
Q 2388 3103 1925 3103 
Q 1463 3103 1227 2739 
Q 991 2375 991 1663 
Q 991 950 1228 584 
Q 1466 219 1925 219 
z
M 1925 -91 
Q 1200 -91 759 389 
Q 319 869 319 1663 
Q 319 2456 758 2934 
Q 1197 3413 1925 3413 
Q 2653 3413 3092 2934 
Q 3531 2456 3531 1663 
Q 3531 869 3092 389 
Q 2653 -91 1925 -91 
z
" transform="scale(0.015625)"/>
       <path id="DejaVuSerif-6a" d="M 641 4353 
Q 641 4497 745 4603 
Q 850 4709 997 4709 
Q 1141 4709 1245 4603 
Q 1350 4497 1350 4353 
Q 1350 4206 1248 4103 
Q 1147 4000 997 4000 
Q 850 4000 745 4103 
Q 641 4206 641 4353 
z
M 781 2988 
L 238 2988 
L 238 3322 
L 1356 3322 
L 1356 -325 
Q 1356 -838 1051 -1130 
Q 747 -1422 213 -1422 
Q -13 -1422 -217 -1370 
Q -422 -1319 -616 -1216 
L -616 -531 
L -319 -531 
Q -297 -831 -164 -972 
Q -31 -1113 225 -1113 
Q 509 -1113 645 -920 
Q 781 -728 781 -325 
L 781 2988 
z
" transform="scale(0.015625)"/>
       <path id="DejaVuSerif-65" d="M 3469 1600 
L 991 1600 
L 991 1575 
Q 991 903 1244 561 
Q 1497 219 1991 219 
Q 2369 219 2611 417 
Q 2853 616 2950 1006 
L 3413 1006 
Q 3275 459 2904 184 
Q 2534 -91 1931 -91 
Q 1203 -91 761 389 
Q 319 869 319 1663 
Q 319 2450 753 2931 
Q 1188 3413 1894 3413 
Q 2647 3413 3050 2948 
Q 3453 2484 3469 1600 
z
M 2791 1931 
Q 2772 2513 2545 2808 
Q 2319 3103 1894 3103 
Q 1497 3103 1269 2806 
Q 1041 2509 991 1931 
L 2791 1931 
z
" transform="scale(0.015625)"/>
       <path id="DejaVuSerif-63" d="M 3291 997 
Q 3169 466 2822 187 
Q 2475 -91 1925 -91 
Q 1200 -91 759 389 
Q 319 869 319 1663 
Q 319 2459 759 2936 
Q 1200 3413 1925 3413 
Q 2241 3413 2553 3339 
Q 2866 3266 3181 3116 
L 3181 2266 
L 2847 2266 
Q 2781 2703 2561 2903 
Q 2341 3103 1931 3103 
Q 1466 3103 1228 2742 
Q 991 2381 991 1663 
Q 991 944 1227 581 
Q 1463 219 1931 219 
Q 2303 219 2525 412 
Q 2747 606 2828 997 
L 3291 997 
z
" transform="scale(0.015625)"/>
       <path id="DejaVuSerif-74" d="M 691 2988 
L 184 2988 
L 184 3322 
L 691 3322 
L 691 4353 
L 1269 4353 
L 1269 3322 
L 2350 3322 
L 2350 2988 
L 1269 2988 
L 1269 878 
Q 1269 456 1350 337 
Q 1431 219 1650 219 
Q 1875 219 1978 351 
Q 2081 484 2088 781 
L 2522 781 
Q 2497 328 2275 118 
Q 2053 -91 1600 -91 
Q 1103 -91 897 129 
Q 691 350 691 878 
L 691 2988 
z
" transform="scale(0.015625)"/>
       <path id="DejaVuSerif-69" d="M 622 4353 
Q 622 4497 726 4603 
Q 831 4709 978 4709 
Q 1122 4709 1226 4603 
Q 1331 4497 1331 4353 
Q 1331 4206 1228 4103 
Q 1125 4000 978 4000 
Q 831 4000 726 4103 
Q 622 4206 622 4353 
z
M 1356 331 
L 1900 331 
L 1900 0 
L 231 0 
L 231 331 
L 781 331 
L 781 2988 
L 231 2988 
L 231 3322 
L 1356 3322 
L 1356 331 
z
" transform="scale(0.015625)"/>
       <path id="DejaVuSerif-6e" d="M 263 0 
L 263 331 
L 781 331 
L 781 2988 
L 231 2988 
L 231 3322 
L 1356 3322 
L 1356 2731 
Q 1516 3069 1770 3241 
Q 2025 3413 2363 3413 
Q 2913 3413 3172 3097 
Q 3431 2781 3431 2113 
L 3431 331 
L 3944 331 
L 3944 0 
L 2356 0 
L 2356 331 
L 2853 331 
L 2853 1931 
Q 2853 2541 2703 2767 
Q 2553 2994 2175 2994 
Q 1775 2994 1565 2701 
Q 1356 2409 1356 1850 
L 1356 331 
L 1856 331 
L 1856 0 
L 263 0 
z
" transform="scale(0.015625)"/>
       <path id="DejaVuSerif-20" transform="scale(0.015625)"/>
       <path id="DejaVuSerif-62" d="M 738 331 
L 738 4531 
L 184 4531 
L 184 4863 
L 1313 4863 
L 1313 2803 
Q 1481 3116 1742 3264 
Q 2003 3413 2388 3413 
Q 3000 3413 3387 2928 
Q 3775 2444 3775 1663 
Q 3775 881 3387 395 
Q 3000 -91 2388 -91 
Q 2003 -91 1742 57 
Q 1481 206 1313 519 
L 1313 0 
L 184 0 
L 184 331 
L 738 331 
z
M 1313 1497 
Q 1313 897 1542 583 
Q 1772 269 2209 269 
Q 2650 269 2876 622 
Q 3103 975 3103 1663 
Q 3103 2353 2876 2703 
Q 2650 3053 2209 3053 
Q 1772 3053 1542 2737 
Q 1313 2422 1313 1825 
L 1313 1497 
z
" transform="scale(0.015625)"/>
       <path id="DejaVuSerif-64" d="M 3359 331 
L 3909 331 
L 3909 0 
L 2784 0 
L 2784 519 
Q 2616 206 2355 57 
Q 2094 -91 1709 -91 
Q 1097 -91 708 395 
Q 319 881 319 1663 
Q 319 2444 706 2928 
Q 1094 3413 1709 3413 
Q 2094 3413 2355 3264 
Q 2616 3116 2784 2803 
L 2784 4531 
L 2241 4531 
L 2241 4863 
L 3359 4863 
L 3359 331 
z
M 2784 1497 
L 2784 1825 
Q 2784 2422 2554 2737 
Q 2325 3053 1888 3053 
Q 1444 3053 1217 2703 
Q 991 2353 991 1663 
Q 991 975 1217 622 
Q 1444 269 1888 269 
Q 2325 269 2554 583 
Q 2784 897 2784 1497 
z
" transform="scale(0.015625)"/>
      </defs>
      <use xlink:href="#DejaVuSerif-70"/>
      <use xlink:href="#DejaVuSerif-72" transform="translate(64.013672 0)"/>
      <use xlink:href="#DejaVuSerif-6f" transform="translate(111.816406 0)"/>
      <use xlink:href="#DejaVuSerif-6a" transform="translate(172.021484 0)"/>
      <use xlink:href="#DejaVuSerif-65" transform="translate(203.027344 0)"/>
      <use xlink:href="#DejaVuSerif-63" transform="translate(262.207031 0)"/>
      <use xlink:href="#DejaVuSerif-74" transform="translate(318.212891 0)"/>
      <use xlink:href="#DejaVuSerif-69" transform="translate(358.398438 0)"/>
      <use xlink:href="#DejaVuSerif-6f" transform="translate(390.380859 0)"/>
      <use xlink:href="#DejaVuSerif-6e" transform="translate(450.585938 0)"/>
      <use xlink:href="#DejaVuSerif-20" transform="translate(514.990234 0)"/>
      <use xlink:href="#DejaVuSerif-6f" transform="translate(546.777344 0)"/>
      <use xlink:href="#DejaVuSerif-6e" transform="translate(606.982422 0)"/>
      <use xlink:href="#DejaVuSerif-74" transform="translate(671.386719 0)"/>
      <use xlink:href="#DejaVuSerif-6f" transform="translate(711.572266 0)"/>
      <use xlink:href="#DejaVuSerif-20" transform="translate(771.777344 0)"/>
      <use xlink:href="#DejaVuSerif-70" transform="translate(803.564453 0)"/>
      <use xlink:href="#DejaVuSerif-72" transform="translate(867.578125 0)"/>
      <use xlink:href="#DejaVuSerif-6f" transform="translate(915.380859 0)"/>
      <use xlink:href="#DejaVuSerif-62" transform="translate(975.585938 0)"/>
      <use xlink:href="#DejaVuSerif-65" transform="translate(1039.599609 0)"/>
      <use xlink:href="#DejaVuSerif-20" transform="translate(1098.779297 0)"/>
      <use xlink:href="#DejaVuSerif-64" transform="translate(1130.566406 0)"/>
      <use xlink:href="#DejaVuSerif-69" transform="translate(1194.580078 0)"/>
      <use xlink:href="#DejaVuSerif-72" transform="translate(1226.5625 0)"/>
      <use xlink:href="#DejaVuSerif-65" transform="translate(1274.365234 0)"/>
      <use xlink:href="#DejaVuSerif-63" transform="translate(1333.544922 0)"/>
      <use xlink:href="#DejaVuSerif-74" transform="translate(1389.550781 0)"/>
      <use xlink:href="#DejaVuSerif-69" transform="translate(1429.736328 0)"/>
      <use xlink:href="#DejaVuSerif-6f" transform="translate(1461.71875 0)"/>
      <use xlink:href="#DejaVuSerif-6e" transform="translate(1521.923828 0)"/>
     </g>
    </g>
   </g>
   <g id="matplotlib.axis_2">
    <g id="ytick_1">
     <g id="line2d_11">
      <path d="M 40.745313 187.878281 
L 342.065313 187.878281 
" clip-path="url(#pde04cde040)" style="fill: none; stroke: #b0b0b0; stroke-opacity: 0.25; stroke-width: 0.6; stroke-linecap: square"/>
     </g>
     <g id="line2d_12">
      <defs>
       <path id="mbd4cf5a329" d="M 0 0 
L -3.5 0 
" style="stroke: #000000; stroke-width: 0.8"/>
      </defs>
      <g>
       <use xlink:href="#mbd4cf5a329" x="40.745313" y="187.878281" style="stroke: #000000; stroke-width: 0.8"/>
      </g>
     </g>
     <g id="text_7">
      <!-- 0 -->
      <g transform="translate(27.382813 191.6775) scale(0.1 -0.1)">
       <use xlink:href="#DejaVuSerif-30"/>
      </g>
     </g>
    </g>
    <g id="ytick_2">
     <g id="line2d_13">
      <path d="M 40.745313 165.016969 
L 342.065313 165.016969 
" clip-path="url(#pde04cde040)" style="fill: none; stroke: #b0b0b0; stroke-opacity: 0.25; stroke-width: 0.6; stroke-linecap: square"/>
     </g>
     <g id="line2d_14">
      <g>
       <use xlink:href="#mbd4cf5a329" x="40.745313" y="165.016969" style="stroke: #000000; stroke-width: 0.8"/>
      </g>
     </g>
     <g id="text_8">
      <!-- 2 -->
      <g transform="translate(27.382813 168.816188) scale(0.1 -0.1)">
       <use xlink:href="#DejaVuSerif-32"/>
      </g>
     </g>
    </g>
    <g id="ytick_3">
     <g id="line2d_15">
      <path d="M 40.745313 142.155656 
L 342.065313 142.155656 
" clip-path="url(#pde04cde040)" style="fill: none; stroke: #b0b0b0; stroke-opacity: 0.25; stroke-width: 0.6; stroke-linecap: square"/>
     </g>
     <g id="line2d_16">
      <g>
       <use xlink:href="#mbd4cf5a329" x="40.745313" y="142.155656" style="stroke: #000000; stroke-width: 0.8"/>
      </g>
     </g>
     <g id="text_9">
      <!-- 4 -->
      <g transform="translate(27.382813 145.954875) scale(0.1 -0.1)">
       <defs>
        <path id="DejaVuSerif-34" d="M 2234 1581 
L 2234 4063 
L 641 1581 
L 2234 1581 
z
M 3609 0 
L 1484 0 
L 1484 331 
L 2234 331 
L 2234 1247 
L 197 1247 
L 197 1588 
L 2241 4750 
L 2859 4750 
L 2859 1581 
L 3750 1581 
L 3750 1247 
L 2859 1247 
L 2859 331 
L 3609 331 
L 3609 0 
z
" transform="scale(0.015625)"/>
       </defs>
       <use xlink:href="#DejaVuSerif-34"/>
      </g>
     </g>
    </g>
    <g id="ytick_4">
     <g id="line2d_17">
      <path d="M 40.745313 119.294344 
L 342.065313 119.294344 
" clip-path="url(#pde04cde040)" style="fill: none; stroke: #b0b0b0; stroke-opacity: 0.25; stroke-width: 0.6; stroke-linecap: square"/>
     </g>
     <g id="line2d_18">
      <g>
       <use xlink:href="#mbd4cf5a329" x="40.745313" y="119.294344" style="stroke: #000000; stroke-width: 0.8"/>
      </g>
     </g>
     <g id="text_10">
      <!-- 6 -->
      <g transform="translate(27.382813 123.093563) scale(0.1 -0.1)">
       <defs>
        <path id="DejaVuSerif-36" d="M 2094 219 
Q 2534 219 2771 542 
Q 3009 866 3009 1472 
Q 3009 2078 2771 2401 
Q 2534 2725 2094 2725 
Q 1647 2725 1412 2412 
Q 1178 2100 1178 1509 
Q 1178 888 1415 553 
Q 1653 219 2094 219 
z
M 1075 2569 
Q 1288 2803 1556 2918 
Q 1825 3034 2163 3034 
Q 2859 3034 3264 2615 
Q 3669 2197 3669 1472 
Q 3669 763 3233 336 
Q 2797 -91 2069 -91 
Q 1278 -91 853 498 
Q 428 1088 428 2181 
Q 428 3406 931 4078 
Q 1434 4750 2350 4750 
Q 2597 4750 2869 4703 
Q 3141 4656 3425 4563 
L 3425 3794 
L 3072 3794 
Q 3034 4109 2831 4275 
Q 2628 4441 2284 4441 
Q 1678 4441 1381 3981 
Q 1084 3522 1075 2569 
z
" transform="scale(0.015625)"/>
       </defs>
       <use xlink:href="#DejaVuSerif-36"/>
      </g>
     </g>
    </g>
    <g id="ytick_5">
     <g id="line2d_19">
      <path d="M 40.745313 96.433031 
L 342.065313 96.433031 
" clip-path="url(#pde04cde040)" style="fill: none; stroke: #b0b0b0; stroke-opacity: 0.25; stroke-width: 0.6; stroke-linecap: square"/>
     </g>
     <g id="line2d_20">
      <g>
       <use xlink:href="#mbd4cf5a329" x="40.745313" y="96.433031" style="stroke: #000000; stroke-width: 0.8"/>
      </g>
     </g>
     <g id="text_11">
      <!-- 8 -->
      <g transform="translate(27.382813 100.23225) scale(0.1 -0.1)">
       <defs>
        <path id="DejaVuSerif-38" d="M 2981 1275 
Q 2981 1775 2732 2051 
Q 2484 2328 2034 2328 
Q 1584 2328 1336 2051 
Q 1088 1775 1088 1275 
Q 1088 772 1336 495 
Q 1584 219 2034 219 
Q 2484 219 2732 495 
Q 2981 772 2981 1275 
z
M 2853 3541 
Q 2853 3966 2637 4203 
Q 2422 4441 2034 4441 
Q 1650 4441 1433 4203 
Q 1216 3966 1216 3541 
Q 1216 3113 1433 2875 
Q 1650 2638 2034 2638 
Q 2422 2638 2637 2875 
Q 2853 3113 2853 3541 
z
M 2516 2484 
Q 3047 2413 3344 2092 
Q 3641 1772 3641 1275 
Q 3641 619 3225 264 
Q 2809 -91 2034 -91 
Q 1263 -91 845 264 
Q 428 619 428 1275 
Q 428 1772 725 2092 
Q 1022 2413 1556 2484 
Q 1084 2569 832 2842 
Q 581 3116 581 3541 
Q 581 4103 968 4426 
Q 1356 4750 2034 4750 
Q 2713 4750 3100 4426 
Q 3488 4103 3488 3541 
Q 3488 3116 3236 2842 
Q 2984 2569 2516 2484 
z
" transform="scale(0.015625)"/>
       </defs>
       <use xlink:href="#DejaVuSerif-38"/>
      </g>
     </g>
    </g>
    <g id="ytick_6">
     <g id="line2d_21">
      <path d="M 40.745313 73.571719 
L 342.065313 73.571719 
" clip-path="url(#pde04cde040)" style="fill: none; stroke: #b0b0b0; stroke-opacity: 0.25; stroke-width: 0.6; stroke-linecap: square"/>
     </g>
     <g id="line2d_22">
      <g>
       <use xlink:href="#mbd4cf5a329" x="40.745313" y="73.571719" style="stroke: #000000; stroke-width: 0.8"/>
      </g>
     </g>
     <g id="text_12">
      <!-- 10 -->
      <g transform="translate(21.020313 77.370938) scale(0.1 -0.1)">
       <use xlink:href="#DejaVuSerif-31"/>
       <use xlink:href="#DejaVuSerif-30" transform="translate(63.623047 0)"/>
      </g>
     </g>
    </g>
    <g id="ytick_7">
     <g id="line2d_23">
      <path d="M 40.745313 50.710406 
L 342.065313 50.710406 
" clip-path="url(#pde04cde040)" style="fill: none; stroke: #b0b0b0; stroke-opacity: 0.25; stroke-width: 0.6; stroke-linecap: square"/>
     </g>
     <g id="line2d_24">
      <g>
       <use xlink:href="#mbd4cf5a329" x="40.745313" y="50.710406" style="stroke: #000000; stroke-width: 0.8"/>
      </g>
     </g>
     <g id="text_13">
      <!-- 12 -->
      <g transform="translate(21.020313 54.509625) scale(0.1 -0.1)">
       <use xlink:href="#DejaVuSerif-31"/>
       <use xlink:href="#DejaVuSerif-32" transform="translate(63.623047 0)"/>
      </g>
     </g>
    </g>
    <g id="ytick_8">
     <g id="line2d_25">
      <path d="M 40.745313 27.849094 
L 342.065313 27.849094 
" clip-path="url(#pde04cde040)" style="fill: none; stroke: #b0b0b0; stroke-opacity: 0.25; stroke-width: 0.6; stroke-linecap: square"/>
     </g>
     <g id="line2d_26">
      <g>
       <use xlink:href="#mbd4cf5a329" x="40.745313" y="27.849094" style="stroke: #000000; stroke-width: 0.8"/>
      </g>
     </g>
     <g id="text_14">
      <!-- 14 -->
      <g transform="translate(21.020313 31.648313) scale(0.1 -0.1)">
       <use xlink:href="#DejaVuSerif-31"/>
       <use xlink:href="#DejaVuSerif-34" transform="translate(63.623047 0)"/>
      </g>
     </g>
    </g>
    <g id="text_15">
     <!-- density -->
     <g transform="translate(14.798438 123.097969) rotate(-90) scale(0.1 -0.1)">
      <defs>
       <path id="DejaVuSerif-73" d="M 359 184 
L 359 959 
L 691 959 
Q 703 588 923 403 
Q 1144 219 1575 219 
Q 1963 219 2166 364 
Q 2369 509 2369 788 
Q 2369 1006 2220 1140 
Q 2072 1275 1594 1428 
L 1178 1569 
Q 750 1706 558 1912 
Q 366 2119 366 2438 
Q 366 2894 700 3153 
Q 1034 3413 1625 3413 
Q 1888 3413 2178 3344 
Q 2469 3275 2778 3144 
L 2778 2419 
L 2447 2419 
Q 2434 2741 2221 2922 
Q 2009 3103 1644 3103 
Q 1281 3103 1095 2975 
Q 909 2847 909 2591 
Q 909 2381 1050 2254 
Q 1191 2128 1613 1997 
L 2069 1856 
Q 2541 1709 2748 1489 
Q 2956 1269 2956 922 
Q 2956 450 2595 179 
Q 2234 -91 1600 -91 
Q 1278 -91 972 -22 
Q 666 47 359 184 
z
" transform="scale(0.015625)"/>
       <path id="DejaVuSerif-79" d="M 1381 -609 
L 1600 -56 
L 359 2988 
L -19 2988 
L -19 3322 
L 1509 3322 
L 1509 2988 
L 978 2988 
L 1913 703 
L 2847 2988 
L 2350 2988 
L 2350 3322 
L 3597 3322 
L 3597 2988 
L 3225 2988 
L 1703 -750 
Q 1547 -1138 1356 -1280 
Q 1166 -1422 819 -1422 
Q 672 -1422 517 -1397 
Q 363 -1372 206 -1325 
L 206 -691 
L 500 -691 
Q 519 -903 608 -995 
Q 697 -1088 884 -1088 
Q 1056 -1088 1161 -992 
Q 1266 -897 1381 -609 
z
" transform="scale(0.015625)"/>
      </defs>
      <use xlink:href="#DejaVuSerif-64"/>
      <use xlink:href="#DejaVuSerif-65" transform="translate(64.013672 0)"/>
      <use xlink:href="#DejaVuSerif-6e" transform="translate(123.193359 0)"/>
      <use xlink:href="#DejaVuSerif-73" transform="translate(187.597656 0)"/>
      <use xlink:href="#DejaVuSerif-69" transform="translate(238.916016 0)"/>
      <use xlink:href="#DejaVuSerif-74" transform="translate(270.898438 0)"/>
      <use xlink:href="#DejaVuSerif-79" transform="translate(311.083984 0)"/>
     </g>
    </g>
   </g>
   <g id="line2d_27">
    <path d="M 155.737403 187.878281 
L 155.737403 21.558281 
" clip-path="url(#pde04cde040)" style="fill: none; stroke-dasharray: 3.7,1.6; stroke-dashoffset: 0; stroke: #222222"/>
   </g>
   <g id="line2d_28">
    <path d="M 225.042788 187.878281 
L 225.042788 21.558281 
" clip-path="url(#pde04cde040)" style="fill: none; stroke-dasharray: 3.7,1.6; stroke-dashoffset: 0; stroke: #222222"/>
   </g>
   <g id="patch_96">
    <path d="M 40.745313 187.878281 
L 40.745313 21.558281 
" style="fill: none; stroke: #000000; stroke-width: 0.8; stroke-linejoin: miter; stroke-linecap: square"/>
   </g>
   <g id="patch_97">
    <path d="M 40.745313 187.878281 
L 342.065313 187.878281 
" style="fill: none; stroke: #000000; stroke-width: 0.8; stroke-linejoin: miter; stroke-linecap: square"/>
   </g>
   <g id="text_16">
    <!-- MU — gemini/per_axis  (TEST macro-F1=0.74) -->
    <g transform="translate(59.920078 15.558281) scale(0.11 -0.11)">
     <defs>
      <path id="DejaVuSerif-4d" d="M 353 0 
L 353 331 
L 947 331 
L 947 4331 
L 319 4331 
L 319 4666 
L 1678 4666 
L 3316 1344 
L 4953 4666 
L 6228 4666 
L 6228 4331 
L 5606 4331 
L 5606 331 
L 6203 331 
L 6203 0 
L 4378 0 
L 4378 331 
L 4972 331 
L 4972 3938 
L 3372 684 
L 2931 684 
L 1331 3938 
L 1331 331 
L 1925 331 
L 1925 0 
L 353 0 
z
" transform="scale(0.015625)"/>
      <path id="DejaVuSerif-55" d="M 897 4331 
L 300 4331 
L 300 4666 
L 2125 4666 
L 2125 4331 
L 1528 4331 
L 1528 1919 
Q 1528 1025 1820 672 
Q 2113 319 2828 319 
Q 3544 319 3836 672 
Q 4128 1025 4128 1919 
L 4128 4331 
L 3531 4331 
L 3531 4666 
L 5106 4666 
L 5106 4331 
L 4513 4331 
L 4513 1856 
Q 4513 791 4103 350 
Q 3694 -91 2713 -91 
Q 1731 -91 1314 353 
Q 897 797 897 1856 
L 897 4331 
z
" transform="scale(0.015625)"/>
      <path id="DejaVuSerif-2014" d="M 281 1906 
L 6119 1906 
L 6119 1491 
L 281 1491 
L 281 1906 
z
" transform="scale(0.015625)"/>
      <path id="DejaVuSerif-67" d="M 3359 2988 
L 3359 72 
Q 3359 -644 2965 -1033 
Q 2572 -1422 1844 -1422 
Q 1516 -1422 1216 -1362 
Q 916 -1303 641 -1184 
L 641 -488 
L 941 -488 
Q 997 -813 1206 -963 
Q 1416 -1113 1806 -1113 
Q 2313 -1113 2548 -827 
Q 2784 -541 2784 72 
L 2784 519 
Q 2616 206 2355 57 
Q 2094 -91 1709 -91 
Q 1097 -91 708 395 
Q 319 881 319 1663 
Q 319 2444 706 2928 
Q 1094 3413 1709 3413 
Q 2094 3413 2355 3264 
Q 2616 3116 2784 2803 
L 2784 3322 
L 3909 3322 
L 3909 2988 
L 3359 2988 
z
M 2784 1825 
Q 2784 2422 2554 2737 
Q 2325 3053 1888 3053 
Q 1444 3053 1217 2703 
Q 991 2353 991 1663 
Q 991 975 1217 622 
Q 1444 269 1888 269 
Q 2325 269 2554 583 
Q 2784 897 2784 1497 
L 2784 1825 
z
" transform="scale(0.015625)"/>
      <path id="DejaVuSerif-6d" d="M 3316 2675 
Q 3481 3041 3739 3227 
Q 3997 3413 4341 3413 
Q 4863 3413 5119 3089 
Q 5375 2766 5375 2113 
L 5375 331 
L 5894 331 
L 5894 0 
L 4300 0 
L 4300 331 
L 4800 331 
L 4800 2047 
Q 4800 2556 4650 2772 
Q 4500 2988 4153 2988 
Q 3769 2988 3567 2697 
Q 3366 2406 3366 1850 
L 3366 331 
L 3866 331 
L 3866 0 
L 2291 0 
L 2291 331 
L 2791 331 
L 2791 2069 
Q 2791 2566 2641 2777 
Q 2491 2988 2144 2988 
Q 1759 2988 1557 2697 
Q 1356 2406 1356 1850 
L 1356 331 
L 1856 331 
L 1856 0 
L 263 0 
L 263 331 
L 781 331 
L 781 2994 
L 231 2994 
L 231 3322 
L 1356 3322 
L 1356 2731 
Q 1516 3063 1762 3238 
Q 2009 3413 2322 3413 
Q 2709 3413 2968 3220 
Q 3228 3028 3316 2675 
z
" transform="scale(0.015625)"/>
      <path id="DejaVuSerif-2f" d="M 1656 4666 
L 2156 4666 
L 500 -594 
L 0 -594 
L 1656 4666 
z
" transform="scale(0.015625)"/>
      <path id="DejaVuSerif-5f" d="M 3200 -1259 
L 3200 -1509 
L 0 -1509 
L 0 -1259 
L 3200 -1259 
z
" transform="scale(0.015625)"/>
      <path id="DejaVuSerif-61" d="M 2547 1044 
L 2547 1747 
L 1806 1747 
Q 1378 1747 1168 1562 
Q 959 1378 959 997 
Q 959 650 1171 447 
Q 1384 244 1747 244 
Q 2106 244 2326 466 
Q 2547 688 2547 1044 
z
M 3122 2075 
L 3122 331 
L 3634 331 
L 3634 0 
L 2547 0 
L 2547 359 
Q 2356 128 2106 18 
Q 1856 -91 1522 -91 
Q 969 -91 644 203 
Q 319 497 319 997 
Q 319 1513 691 1797 
Q 1063 2081 1741 2081 
L 2547 2081 
L 2547 2309 
Q 2547 2688 2317 2895 
Q 2088 3103 1672 3103 
Q 1328 3103 1125 2947 
Q 922 2791 872 2484 
L 575 2484 
L 575 3156 
Q 875 3284 1158 3348 
Q 1441 3413 1709 3413 
Q 2400 3413 2761 3070 
Q 3122 2728 3122 2075 
z
" transform="scale(0.015625)"/>
      <path id="DejaVuSerif-78" d="M 1863 2028 
L 2559 2988 
L 2113 2988 
L 2113 3322 
L 3391 3322 
L 3391 2988 
L 2950 2988 
L 2059 1759 
L 3097 331 
L 3531 331 
L 3531 0 
L 1997 0 
L 1997 331 
L 2419 331 
L 1697 1325 
L 972 331 
L 1403 331 
L 1403 0 
L 141 0 
L 141 331 
L 581 331 
L 1497 1594 
L 488 2988 
L 78 2988 
L 78 3322 
L 1563 3322 
L 1563 2988 
L 1166 2988 
L 1863 2028 
z
" transform="scale(0.015625)"/>
      <path id="DejaVuSerif-28" d="M 2041 -997 
Q 1281 -656 893 83 
Q 506 822 506 1931 
Q 506 3044 893 3783 
Q 1281 4522 2041 4863 
L 2041 4556 
Q 1559 4225 1350 3623 
Q 1141 3022 1141 1931 
Q 1141 844 1350 242 
Q 1559 -359 2041 -691 
L 2041 -997 
z
" transform="scale(0.015625)"/>
      <path id="DejaVuSerif-54" d="M 1222 0 
L 1222 331 
L 1819 331 
L 1819 4294 
L 447 4294 
L 447 3566 
L 63 3566 
L 63 4666 
L 4206 4666 
L 4206 3566 
L 3822 3566 
L 3822 4294 
L 2450 4294 
L 2450 331 
L 3047 331 
L 3047 0 
L 1222 0 
z
" transform="scale(0.015625)"/>
      <path id="DejaVuSerif-45" d="M 353 0 
L 353 331 
L 947 331 
L 947 4331 
L 353 4331 
L 353 4666 
L 4109 4666 
L 4109 3628 
L 3725 3628 
L 3725 4281 
L 1581 4281 
L 1581 2719 
L 3109 2719 
L 3109 3303 
L 3494 3303 
L 3494 1753 
L 3109 1753 
L 3109 2338 
L 1581 2338 
L 1581 384 
L 3775 384 
L 3775 1038 
L 4159 1038 
L 4159 0 
L 353 0 
z
" transform="scale(0.015625)"/>
      <path id="DejaVuSerif-53" d="M 594 225 
L 594 1288 
L 953 1284 
Q 969 753 1261 498 
Q 1553 244 2150 244 
Q 2706 244 2998 464 
Q 3291 684 3291 1106 
Q 3291 1444 3114 1625 
Q 2938 1806 2369 1978 
L 1753 2163 
Q 1084 2366 811 2669 
Q 538 2972 538 3500 
Q 538 4094 959 4422 
Q 1381 4750 2144 4750 
Q 2469 4750 2856 4679 
Q 3244 4609 3681 4475 
L 3681 3481 
L 3328 3481 
Q 3275 3975 2998 4195 
Q 2722 4416 2156 4416 
Q 1663 4416 1405 4214 
Q 1147 4013 1147 3628 
Q 1147 3294 1340 3103 
Q 1534 2913 2163 2725 
L 2741 2553 
Q 3375 2363 3645 2067 
Q 3916 1772 3916 1275 
Q 3916 597 3481 253 
Q 3047 -91 2188 -91 
Q 1803 -91 1404 -12 
Q 1006 66 594 225 
z
" transform="scale(0.015625)"/>
      <path id="DejaVuSerif-2d" d="M 281 1959 
L 1881 1959 
L 1881 1472 
L 281 1472 
L 281 1959 
z
" transform="scale(0.015625)"/>
      <path id="DejaVuSerif-46" d="M 353 0 
L 353 331 
L 947 331 
L 947 4331 
L 353 4331 
L 353 4666 
L 4172 4666 
L 4172 3628 
L 3788 3628 
L 3788 4281 
L 1581 4281 
L 1581 2719 
L 3175 2719 
L 3175 3303 
L 3559 3303 
L 3559 1753 
L 3175 1753 
L 3175 2338 
L 1581 2338 
L 1581 331 
L 2328 331 
L 2328 0 
L 353 0 
z
" transform="scale(0.015625)"/>
      <path id="DejaVuSerif-3d" d="M 678 2894 
L 4684 2894 
L 4684 2394 
L 678 2394 
L 678 2894 
z
M 678 1619 
L 4684 1619 
L 4684 1119 
L 678 1119 
L 678 1619 
z
" transform="scale(0.015625)"/>
      <path id="DejaVuSerif-37" d="M 3609 4347 
L 1784 0 
L 1319 0 
L 3059 4153 
L 903 4153 
L 903 3578 
L 538 3578 
L 538 4666 
L 3609 4666 
L 3609 4347 
z
" transform="scale(0.015625)"/>
      <path id="DejaVuSerif-29" d="M 453 -997 
L 453 -691 
Q 934 -359 1145 242 
Q 1356 844 1356 1931 
Q 1356 3022 1145 3623 
Q 934 4225 453 4556 
L 453 4863 
Q 1216 4522 1603 3783 
Q 1991 3044 1991 1931 
Q 1991 822 1603 83 
Q 1216 -656 453 -997 
z
" transform="scale(0.015625)"/>
     </defs>
     <use xlink:href="#DejaVuSerif-4d"/>
     <use xlink:href="#DejaVuSerif-55" transform="translate(102.392578 0)"/>
     <use xlink:href="#DejaVuSerif-20" transform="translate(186.669922 0)"/>
     <use xlink:href="#DejaVuSerif-2014" transform="translate(218.457031 0)"/>
     <use xlink:href="#DejaVuSerif-20" transform="translate(318.457031 0)"/>
     <use xlink:href="#DejaVuSerif-67" transform="translate(350.244141 0)"/>
     <use xlink:href="#DejaVuSerif-65" transform="translate(414.257812 0)"/>
     <use xlink:href="#DejaVuSerif-6d" transform="translate(473.4375 0)"/>
     <use xlink:href="#DejaVuSerif-69" transform="translate(568.261719 0)"/>
     <use xlink:href="#DejaVuSerif-6e" transform="translate(600.244141 0)"/>
     <use xlink:href="#DejaVuSerif-69" transform="translate(664.648438 0)"/>
     <use xlink:href="#DejaVuSerif-2f" transform="translate(696.630859 0)"/>
     <use xlink:href="#DejaVuSerif-70" transform="translate(730.322266 0)"/>
     <use xlink:href="#DejaVuSerif-65" transform="translate(794.335938 0)"/>
     <use xlink:href="#DejaVuSerif-72" transform="translate(853.515625 0)"/>
     <use xlink:href="#DejaVuSerif-5f" transform="translate(901.318359 0)"/>
     <use xlink:href="#DejaVuSerif-61" transform="translate(951.318359 0)"/>
     <use xlink:href="#DejaVuSerif-78" transform="translate(1010.9375 0)"/>
     <use xlink:href="#DejaVuSerif-69" transform="translate(1067.333984 0)"/>
     <use xlink:href="#DejaVuSerif-73" transform="translate(1099.316406 0)"/>
     <use xlink:href="#DejaVuSerif-20" transform="translate(1150.634766 0)"/>
     <use xlink:href="#DejaVuSerif-20" transform="translate(1182.421875 0)"/>
     <use xlink:href="#DejaVuSerif-28" transform="translate(1214.208984 0)"/>
     <use xlink:href="#DejaVuSerif-54" transform="translate(1253.222656 0)"/>
     <use xlink:href="#DejaVuSerif-45" transform="translate(1319.921875 0)"/>
     <use xlink:href="#DejaVuSerif-53" transform="translate(1392.919922 0)"/>
     <use xlink:href="#DejaVuSerif-54" transform="translate(1461.425781 0)"/>
     <use xlink:href="#DejaVuSerif-20" transform="translate(1528.125 0)"/>
     <use xlink:href="#DejaVuSerif-6d" transform="translate(1559.912109 0)"/>
     <use xlink:href="#DejaVuSerif-61" transform="translate(1654.736328 0)"/>
     <use xlink:href="#DejaVuSerif-63" transform="translate(1714.355469 0)"/>
     <use xlink:href="#DejaVuSerif-72" transform="translate(1770.361328 0)"/>
     <use xlink:href="#DejaVuSerif-6f" transform="translate(1818.164062 0)"/>
     <use xlink:href="#DejaVuSerif-2d" transform="translate(1878.369141 0)"/>
     <use xlink:href="#DejaVuSerif-46" transform="translate(1912.158203 0)"/>
     <use xlink:href="#DejaVuSerif-31" transform="translate(1981.542969 0)"/>
     <use xlink:href="#DejaVuSerif-3d" transform="translate(2045.166016 0)"/>
     <use xlink:href="#DejaVuSerif-30" transform="translate(2128.955078 0)"/>
     <use xlink:href="#DejaVuSerif-2e" transform="translate(2192.578125 0)"/>
     <use xlink:href="#DejaVuSerif-37" transform="translate(2224.365234 0)"/>
     <use xlink:href="#DejaVuSerif-34" transform="translate(2287.988281 0)"/>
     <use xlink:href="#DejaVuSerif-29" transform="translate(2351.611328 0)"/>
    </g>
   </g>
   <g id="legend_1">
    <g id="patch_98">
     <path d="M 239.305625 35.666953 
L 256.305625 35.666953 
L 256.305625 29.716953 
L 239.305625 29.716953 
z
" style="fill: #56b4e9; opacity: 0.55"/>
    </g>
    <g id="text_17">
     <!-- grade 0 (n=564) -->
     <g transform="translate(263.105625 35.666953) scale(0.085 -0.085)">
      <defs>
       <path id="DejaVuSerif-35" d="M 3219 4666 
L 3219 4153 
L 1081 4153 
L 1081 2816 
Q 1244 2928 1461 2984 
Q 1678 3041 1947 3041 
Q 2703 3041 3140 2622 
Q 3578 2203 3578 1478 
Q 3578 738 3136 323 
Q 2694 -91 1894 -91 
Q 1572 -91 1234 -12 
Q 897 66 544 225 
L 544 1131 
L 897 1131 
Q 925 688 1179 453 
Q 1434 219 1894 219 
Q 2388 219 2653 544 
Q 2919 869 2919 1478 
Q 2919 2084 2655 2407 
Q 2391 2731 1894 2731 
Q 1613 2731 1398 2631 
Q 1184 2531 1019 2322 
L 750 2322 
L 750 4666 
L 3219 4666 
z
" transform="scale(0.015625)"/>
      </defs>
      <use xlink:href="#DejaVuSerif-67"/>
      <use xlink:href="#DejaVuSerif-72" transform="translate(64.013672 0)"/>
      <use xlink:href="#DejaVuSerif-61" transform="translate(111.816406 0)"/>
      <use xlink:href="#DejaVuSerif-64" transform="translate(171.435547 0)"/>
      <use xlink:href="#DejaVuSerif-65" transform="translate(235.449219 0)"/>
      <use xlink:href="#DejaVuSerif-20" transform="translate(294.628906 0)"/>
      <use xlink:href="#DejaVuSerif-30" transform="translate(326.416016 0)"/>
      <use xlink:href="#DejaVuSerif-20" transform="translate(390.039062 0)"/>
      <use xlink:href="#DejaVuSerif-28" transform="translate(421.826172 0)"/>
      <use xlink:href="#DejaVuSerif-6e" transform="translate(460.839844 0)"/>
      <use xlink:href="#DejaVuSerif-3d" transform="translate(525.244141 0)"/>
      <use xlink:href="#DejaVuSerif-35" transform="translate(609.033203 0)"/>
      <use xlink:href="#DejaVuSerif-36" transform="translate(672.65625 0)"/>
      <use xlink:href="#DejaVuSerif-34" transform="translate(736.279297 0)"/>
      <use xlink:href="#DejaVuSerif-29" transform="translate(799.902344 0)"/>
     </g>
    </g>
    <g id="patch_99">
     <path d="M 239.305625 48.264219 
L 256.305625 48.264219 
L 256.305625 42.314219 
L 239.305625 42.314219 
z
" style="fill: #f0e442; opacity: 0.55"/>
    </g>
    <g id="text_18">
     <!-- grade 1 (n=27) -->
     <g transform="translate(263.105625 48.264219) scale(0.085 -0.085)">
      <use xlink:href="#DejaVuSerif-67"/>
      <use xlink:href="#DejaVuSerif-72" transform="translate(64.013672 0)"/>
      <use xlink:href="#DejaVuSerif-61" transform="translate(111.816406 0)"/>
      <use xlink:href="#DejaVuSerif-64" transform="translate(171.435547 0)"/>
      <use xlink:href="#DejaVuSerif-65" transform="translate(235.449219 0)"/>
      <use xlink:href="#DejaVuSerif-20" transform="translate(294.628906 0)"/>
      <use xlink:href="#DejaVuSerif-31" transform="translate(326.416016 0)"/>
      <use xlink:href="#DejaVuSerif-20" transform="translate(390.039062 0)"/>
      <use xlink:href="#DejaVuSerif-28" transform="translate(421.826172 0)"/>
      <use xlink:href="#DejaVuSerif-6e" transform="translate(460.839844 0)"/>
      <use xlink:href="#DejaVuSerif-3d" transform="translate(525.244141 0)"/>
      <use xlink:href="#DejaVuSerif-32" transform="translate(609.033203 0)"/>
      <use xlink:href="#DejaVuSerif-37" transform="translate(672.65625 0)"/>
      <use xlink:href="#DejaVuSerif-29" transform="translate(736.279297 0)"/>
     </g>
    </g>
    <g id="patch_100">
     <path d="M 239.305625 60.861484 
L 256.305625 60.861484 
L 256.305625 54.911484 
L 239.305625 54.911484 
z
" style="fill: #d55e00; opacity: 0.55"/>
    </g>
    <g id="text_19">
     <!-- grade 2 (n=174) -->
     <g transform="translate(263.105625 60.861484) scale(0.085 -0.085)">
      <use xlink:href="#DejaVuSerif-67"/>
      <use xlink:href="#DejaVuSerif-72" transform="translate(64.013672 0)"/>
      <use xlink:href="#DejaVuSerif-61" transform="translate(111.816406 0)"/>
      <use xlink:href="#DejaVuSerif-64" transform="translate(171.435547 0)"/>
      <use xlink:href="#DejaVuSerif-65" transform="translate(235.449219 0)"/>
      <use xlink:href="#DejaVuSerif-20" transform="translate(294.628906 0)"/>
      <use xlink:href="#DejaVuSerif-32" transform="translate(326.416016 0)"/>
      <use xlink:href="#DejaVuSerif-20" transform="translate(390.039062 0)"/>
      <use xlink:href="#DejaVuSerif-28" transform="translate(421.826172 0)"/>
      <use xlink:href="#DejaVuSerif-6e" transform="translate(460.839844 0)"/>
      <use xlink:href="#DejaVuSerif-3d" transform="translate(525.244141 0)"/>
      <use xlink:href="#DejaVuSerif-31" transform="translate(609.033203 0)"/>
      <use xlink:href="#DejaVuSerif-37" transform="translate(672.65625 0)"/>
      <use xlink:href="#DejaVuSerif-34" transform="translate(736.279297 0)"/>
      <use xlink:href="#DejaVuSerif-29" transform="translate(799.902344 0)"/>
     </g>
    </g>
   </g>
  </g>
 </g>
 <defs>
  <clipPath id="pde04cde040">
   <rect x="40.745313" y="21.558281" width="301.32" height="166.32"/>
  </clipPath>
 </defs>
</svg>
